<svg id="Calque_1" data-name="Calque 1" xmlns="http://www.w3.org/2000/svg" xmlns:xlink="http://www.w3.org/1999/xlink" viewBox="0 0 1288.33 841.89"><defs><style>.cls-1{fill:#3a3230;}.cls-2{fill:#504543;}.cls-3{fill:url(#Dégradé_sans_nom_147);}.cls-4{fill:#fff;}.cls-5{fill:#cda981;}.cls-6{fill:url(#Dégradé_sans_nom_147-2);}.cls-7{fill:#986d66;}</style><linearGradient id="Dégradé_sans_nom_147" x1="160.12" y1="417.53" x2="625.99" y2="417.53" gradientUnits="userSpaceOnUse"><stop offset="0" stop-color="#93a6b7"/><stop offset="1" stop-color="#d4958d"/></linearGradient><linearGradient id="Dégradé_sans_nom_147-2" x1="1004.45" y1="409.23" x2="1076.26" y2="409.23" xlink:href="#Dégradé_sans_nom_147"/></defs><path class="cls-1" d="M732.18,248.91h30.36V354.39q0,25.19-4,35.34a33.49,33.49,0,0,1-13.18,16.16q-9.2,6-22.05,6-26.25,0-44.74-23l21.83-20.43q7.25,8.22,12.32,11a20.36,20.36,0,0,0,9.84,2.81,7.82,7.82,0,0,0,7.24-4.11q2.37-4.11,2.38-18.05Z"/><path class="cls-1" d="M795.51,290.31h29.82v56.62q0,16.54,2.28,23a20,20,0,0,0,7.31,10,20.91,20.91,0,0,0,12.41,3.56A21.67,21.67,0,0,0,859.84,380a20.6,20.6,0,0,0,7.64-10.32q1.83-5.08,1.84-21.72v-57.6h29.5v49.82q0,30.8-4.86,42.15-5.94,13.83-17.51,21.23t-29.39,7.4q-19.35,0-31.29-8.64T799,378.17q-3.45-10.69-3.45-38.91Z"/><path class="cls-1" d="M1000.41,306.73,982.15,325Q971,314,961.94,314c-3.32,0-5.91.71-7.78,2.11a6.33,6.33,0,0,0-2.82,5.24,6.44,6.44,0,0,0,1.79,4.38q1.79,2,8.81,5.46l10.8,5.4q17.09,8.43,23.45,17.18a35.79,35.79,0,0,1-5.13,46.69q-11.5,10.49-30.85,10.48-25.73,0-41.07-20.1L937.3,371a42,42,0,0,0,12.15,9.78q7,3.72,12.38,3.72,5.83,0,9.4-2.81t3.57-6.48q0-6.81-12.86-13.29l-10-5q-28.53-14.39-28.53-36,0-14,10.76-23.83t27.5-9.89a47.76,47.76,0,0,1,38.69,19.45Z"/><path class="cls-1" d="M1058.88,290.31V247h-29.5v43.34h-15.13v25.4h15.13V378.2a19.72,19.72,0,0,1,14,11c.24.53.47,1.05.83,1.82,2.89-7.42,7.93-11.49,14.71-12.76V315.71h17.5v-25.4ZM1045.3,450c-.62.45-1.17.79-2,.24a145.19,145.19,0,0,1-13.9-10.17V578.83h29.5V440C1054.51,443.53,1049.85,446.68,1045.3,450Z"/><path class="cls-1" d="M996,445.8l-21.31,21.07q-20.24-21.4-47.16-21.4-23.47,0-39.32,15.56a51.07,51.07,0,0,0-15.85,37.83,52.35,52.35,0,0,0,16.45,39q16.44,16,40.57,16,15.69,0,26.45-6.6t17.37-20.64h-46V498.21h80l.22,6.7a77.84,77.84,0,0,1-10.81,39.55q-10.82,18.7-28,28.54t-40.31,9.83q-24.75,0-44.15-10.75a78.67,78.67,0,0,1-30.69-30.64,85.46,85.46,0,0,1-11.3-42.91q0-31.54,20.86-54.9,24.75-27.76,64.41-27.77a98.19,98.19,0,0,1,38.8,7.67Q981.37,430,996,445.8Z"/><path class="cls-1" d="M1070.85,461.25h10.49q.11-23.13.75-27.34a22.54,22.54,0,0,1,8.16-15.4q7-5.68,19.72-5.68,9.19,0,20.75,4.22v22.48a39.32,39.32,0,0,0-10.48-1.84q-5.19,0-7.56,2.16c-1.16,1.08-1.73,3.32-1.73,6.7l-.11,14.7h18.7v25h-18.7v92.62h-29.5V486.21h-10.49Z"/><path class="cls-1" d="M1150.39,417.91h29.51v43.34h17.5v25.4h-17.5v92.18h-29.51V486.65h-15.13v-25.4h15.13Z"/><path class="cls-2" d="M728.4,243.47h30.37V349q0,25.19-4,35.34a33.51,33.51,0,0,1-13.19,16.16q-9.18,6-22,6-26.26,0-44.75-23L696.62,363q7.25,8.22,12.32,11a20.36,20.36,0,0,0,9.84,2.81,7.82,7.82,0,0,0,7.24-4.11q2.37-4.11,2.38-18.05Z"/><path class="cls-2" d="M791.73,284.87h29.83v56.62q0,16.54,2.27,23a20.11,20.11,0,0,0,7.31,10A20.93,20.93,0,0,0,843.55,378a21.67,21.67,0,0,0,12.51-3.51,20.6,20.6,0,0,0,7.64-10.32q1.84-5.08,1.84-21.72v-57.6H895v49.82q0,30.8-4.86,42.15-5.94,13.83-17.51,21.23t-29.39,7.4q-19.35,0-31.29-8.64t-16.8-24.1q-3.47-10.69-3.46-38.91Z"/><path class="cls-2" d="M996.63,301.29l-18.26,18.27q-11.13-11-20.21-11c-3.32,0-5.91.71-7.78,2.11a6.32,6.32,0,0,0-2.81,5.24,6.43,6.43,0,0,0,1.78,4.38q1.78,2,8.81,5.46l10.81,5.4q17.07,8.43,23.45,17.18A35.81,35.81,0,0,1,987.28,395q-11.5,10.49-30.85,10.48-25.73,0-41.07-20.1l18.16-19.77a42.08,42.08,0,0,0,12.16,9.78q7,3.72,12.37,3.72,5.84,0,9.4-2.81t3.57-6.48q0-6.81-12.86-13.29l-9.94-5q-28.54-14.39-28.54-36,0-13.95,10.76-23.83t27.5-9.89a47.76,47.76,0,0,1,38.69,19.45Z"/><path class="cls-2" d="M1055.11,284.87V241.53H1025.6v43.34h-15.13v25.4h15.13v62.49a19.72,19.72,0,0,1,14,11l.83,1.82c2.89-7.42,7.93-11.49,14.72-12.76V310.27h17.5v-25.4Zm-13.59,159.67a1.54,1.54,0,0,1-2,.24,145.19,145.19,0,0,1-13.9-10.17V573.39h29.51V434.55C1050.73,438.09,1046.07,441.24,1041.52,444.54Z"/><path class="cls-2" d="M992.18,440.36l-21.31,21.07Q950.65,440,923.71,440q-23.48,0-39.32,15.56a51.06,51.06,0,0,0-15.84,37.83,52.36,52.36,0,0,0,16.44,39q16.44,16,40.57,16,15.69,0,26.45-6.6t17.37-20.64h-46V492.77h80l.22,6.7A77.84,77.84,0,0,1,992.72,539q-10.8,18.71-28,28.54t-40.31,9.83q-24.75,0-44.15-10.75A78.67,78.67,0,0,1,849.58,536a85.45,85.45,0,0,1-11.29-42.91q0-31.54,20.85-54.9,24.75-27.76,64.41-27.77a98.19,98.19,0,0,1,38.8,7.67Q977.59,424.57,992.18,440.36Z"/><path class="cls-2" d="M1067.08,455.81h10.48q.11-23.13.75-27.34a22.58,22.58,0,0,1,8.16-15.4q7-5.69,19.73-5.68,9.18,0,20.75,4.22v22.48a39.45,39.45,0,0,0-10.49-1.84c-3.45,0-6,.72-7.56,2.16-1.15,1.08-1.73,3.32-1.73,6.7l-.11,14.7h18.7v25h-18.7v92.62h-29.5V480.77h-10.48Z"/><path class="cls-2" d="M1146.62,412.47h29.5v43.34h17.51v25.4h-17.51v92.18h-29.5V481.21h-15.13v-25.4h15.13Z"/><path class="cls-3" d="M393.25,282.05c20.21-52,58.59-76,110.89-77.6,50.7-1.54,96.74,33.71,113.72,84.33,15.53,46.3,7.72,89.86-14.26,132.4-30,58.09-72.23,105.93-122.38,146.89-26,21.26-54.11,40-81.28,59.9-3.63,2.65-6.88,4.58-11.83,1.34-65.81-43.09-126.81-91.56-173.32-156-23.15-32.06-43.48-66-51.61-105.27-12.63-61.15,13.38-135.88,85.73-159,53.75-17.15,116.92,10.71,139.53,62.18C389.81,274.42,391.22,277.53,393.25,282.05Z"/><path class="cls-4" d="M641.76,421.33a38.23,38.23,0,0,0-12.82-2.44A26,26,0,0,0,618.43,421c-.3.13-.57.29-.86.43a25.39,25.39,0,0,0-6.05-.76,30.7,30.7,0,0,0-12.3,2.75c-.1.05-.2.12-.3.16h0a31.24,31.24,0,0,0-5.07-.42c-8,0-15.34,3-22.34,9.33a41.63,41.63,0,0,0-5.85,6.39c-.44,0-.9,0-1.36,0A25.08,25.08,0,0,0,554.13,441a33.56,33.56,0,0,0-11.08,8.19c-6.13,6.65-8.44,14.44-10.9,22.72-.88,3-1.79,6-2.92,9.2a20.59,20.59,0,0,0-9.23-2.29,16,16,0,0,0-4.51.63c-1.43.37-7.89,1.58-13.61,2.66-9.57,1.8-21.47,4-29.24,5.84-2.2.51-4.7,1-7.34,1.55-9,1.81-20.12,4.05-31.32,9a82.77,82.77,0,0,0-14.91,8.4l-2.37,1.68c-8.11,5.75-16.82,11.92-24.11,20.61-7.28-8.69-16-14.86-24.1-20.6l-2.36-1.67a82.16,82.16,0,0,0-14.93-8.42c-11.2-4.92-22.35-7.16-31.31-9-2.65-.53-5.15-1-7.35-1.55-7.76-1.8-19.67-4-29.24-5.84-5.71-1.08-12.18-2.29-13.61-2.66a16,16,0,0,0-4.51-.63,20.55,20.55,0,0,0-9.22,2.29c-1.14-3.19-2.05-6.24-2.94-9.24-2.45-8.24-4.76-16-10.88-22.68A33.49,33.49,0,0,0,231.05,441a25.07,25.07,0,0,0-10.12-2.17c-.47,0-.92,0-1.37,0a41.56,41.56,0,0,0-5.84-6.39c-7-6.28-14.32-9.33-22.35-9.33a31.34,31.34,0,0,0-5.07.42h0c-.11,0-.2-.11-.31-.16a30.7,30.7,0,0,0-12.3-2.75,25.24,25.24,0,0,0-6,.76c-.29-.14-.57-.3-.86-.43a26,26,0,0,0-10.51-2.11,38.24,38.24,0,0,0-12.83,2.44,14.39,14.39,0,0,0-8.69,18c2.5,7.61,8.75,26.33,12.64,35.79,23.16,56.34,99,94.61,130.53,108.45,2.18,1,4.36,1.85,6.5,2.73,1.83.75,3.62,1.49,5.36,2.25,19,8.33,28.5,16.59,40.52,27,10.76,9.37,23,20,43.87,32.54,1.83,1.1,3.68,2.13,5.52,3.08a27.21,27.21,0,0,0,12.52,3.06h.8a27.21,27.21,0,0,0,12.52-3.06c1.83-.94,3.69-2,5.52-3.07,20.91-12.56,33.11-23.18,43.88-32.55,12-10.45,21.5-18.71,40.51-27,1.74-.76,3.53-1.5,5.36-2.25,2.14-.88,4.32-1.77,6.51-2.73,31.53-13.84,107.36-52.11,130.53-108.46,3.9-9.49,10.13-28.18,12.63-35.78A14.38,14.38,0,0,0,641.76,421.33Z"/><path class="cls-5" d="M518.85,510.75c3.13-1,6.27-2,9.34-3l.45-.15a94.53,94.53,0,0,0,8-7.9c5.15-6,12.91-18.26,18.84-28.86a112.75,112.75,0,0,1,9.38-25,10.57,10.57,0,0,0-5,.94,19.52,19.52,0,0,0-6.28,4.76c-3.86,4.19-5.54,9.86-7.67,17-1.22,4.07-2.59,8.68-4.57,13.66-2.64,6.62-7.72,13.8-15.1,21.32-2.34,2.39-4.89,4.8-7.63,7.2Z"/><path class="cls-5" d="M540.09,502.67c-.38.44-.79.9-1.24,1.39l1.63-.6,1.3-.49c1.15-.43,2.25-.85,3.29-1.26s2.31-1,3.48-1.51c.38-.17.77-.38,1.15-.57.79-.38,1.58-.77,2.39-1.19l1.38-.78c.74-.41,1.48-.81,2.22-1.25l1.49-.93c.67-.41,1.33-.81,2-1.25,5.64-8.32,16.33-28.06,20-35.07.88-1.69,1.79-3.49,2.73-5.34,4.11-8.13,8.65-17.08,14.64-23.39-5.55-.91-10.39.84-15.5,5.42-4.85,4.35-7.08,8.64-16.83,28.21C558.35,475.88,547,494.64,540.09,502.67Z"/><path class="cls-5" d="M583.21,461.27c-.1.19-7.63,14.43-14.29,25.83l1-.78.61-.49c1.58-1.31,3.11-2.64,4.59-4l.32-.29,1.9-1.72.37-.35,1.94-1.82.12-.11c1.4-1.35,2.74-2.67,4-3.93l.12-.12,1.69-1.73.15-.15c1.73-1.78,3.27-3.43,4.59-4.86l.18-.19,1.09-1.19.14-.15,1-1.14c3.1-3.4,5.95-8.51,9.24-14.44,3.77-6.79,8-14.37,13.65-21.16-3-1.28-6.55-1-10.6.73-8,4.89-13.88,16.43-19,26.62C585,457.74,584.11,459.56,583.21,461.27Z"/><path class="cls-5" d="M624.21,426.82a8.84,8.84,0,0,0-2.89,2.06c-6.52,7-11.24,15.52-15.4,23-3.43,6.17-6.39,11.5-9.85,15.29-5.57,6.11-18.63,20.44-34,30.61A89.62,89.62,0,0,1,549,505c-.75.33-1.52.65-2.28.95-4.54,1.8-10.15,3.82-16.21,5.86-7,2.34-14.37,4.59-21.29,6.51-28.48,7.92-32.58,5.52-33.92,4.74a3.67,3.67,0,0,1-2.13-3.42c.14-2.42,2.78-3.9,5.35-5,5.9-2.59,15.73-4.76,16.15-4.85l.25-.05a64.07,64.07,0,0,0,16.71-4.46,28.15,28.15,0,0,0,9.61-6.44,16.12,16.12,0,0,0,1.53-2c1.75-2.64,3.46-6.31,1.63-8.79a5.76,5.76,0,0,0-4.92-2.1c-1.46.43-6.38,1.36-14.95,3-9.47,1.78-21.24,4-28.65,5.71-2.41.56-5,1.09-7.76,1.64-8.72,1.76-18.6,3.75-28.38,8a68.93,68.93,0,0,0-12.36,7L425,513c-13.95,9.88-27.22,19.28-32.43,40.13-5.21-20.85-18.48-30.25-32.43-40.13l-2.37-1.69a69,69,0,0,0-12.37-7c-9.78-4.29-19.66-6.28-28.38-8-2.75-.55-5.35-1.08-7.75-1.64-7.42-1.71-19.19-3.93-28.65-5.71-8.58-1.62-13.5-2.55-14.95-3a5.74,5.74,0,0,0-4.92,2.1c-1.84,2.48-.13,6.15,1.62,8.79a17.17,17.17,0,0,0,1.53,2,28.15,28.15,0,0,0,9.61,6.44,64.17,64.17,0,0,0,16.71,4.46l.25.05c.42.09,10.25,2.26,16.15,4.85,2.57,1.13,5.21,2.61,5.35,5a3.65,3.65,0,0,1-2.12,3.42c-1.35.78-5.45,3.18-33.93-4.74-6.92-1.92-14.28-4.17-21.28-6.51-6.07-2-11.68-4.06-16.22-5.86-.76-.3-1.52-.62-2.28-.95a90.15,90.15,0,0,1-13-7.18c-15.4-10.17-28.46-24.5-34-30.61-3.46-3.79-6.42-9.12-9.85-15.29-4.16-7.49-8.88-16-15.4-23a8.73,8.73,0,0,0-2.89-2.06c-4.31-1.89-9.78-.37-12.57.66,2,6.25,8.49,25.6,12.27,34.81,21.18,51.49,93.08,87.61,123,100.75,4.05,1.78,8.09,3.32,11.85,5,38.65,16.93,42.55,34.33,86,60.43,1.61,1,3.17,1.83,4.68,2.61a14.45,14.45,0,0,0,12.7,0c1.51-.78,3.07-1.64,4.68-2.61,43.48-26.1,47.38-43.5,86-60.43,3.76-1.65,7.8-3.19,11.85-5,29.94-13.14,101.83-49.26,123-100.75,3.78-9.21,10.22-28.56,12.27-34.81C634,426.45,628.52,424.93,624.21,426.82Z"/><path class="cls-5" d="M248.54,499.72a92.65,92.65,0,0,0,8,7.9l.45.15c3.08,1,6.21,2,9.34,3l.19.06c-2.74-2.4-5.29-4.81-7.63-7.2-7.38-7.52-12.45-14.7-15.1-21.32-2-5-3.35-9.59-4.56-13.66-2.13-7.18-3.82-12.85-7.68-17a19.41,19.41,0,0,0-6.28-4.76,10.55,10.55,0,0,0-5-.94,113.64,113.64,0,0,1,9.39,25C235.63,481.46,243.39,493.72,248.54,499.72Z"/><path class="cls-5" d="M206,459.16c3.7,7,14.39,26.75,20,35.07.67.44,1.33.84,2,1.25l1.49.93c.75.44,1.48.84,2.22,1.25l1.38.78c.81.42,1.6.81,2.4,1.19.38.19.76.4,1.14.57,1.17.55,2.33,1.05,3.48,1.51s2.15.83,3.29,1.26l1.3.49,1.64.6c-.45-.49-.87-.95-1.25-1.39-6.89-8-18.26-26.79-24.15-38.61-9.74-19.57-12-23.86-16.83-28.21-5.11-4.58-10-6.33-15.5-5.42,6,6.31,10.53,15.26,14.64,23.39C204.19,455.67,205.1,457.47,206,459.16Z"/><path class="cls-5" d="M192.46,464.12l1,1.14.14.15,1.09,1.19.18.19c1.32,1.43,2.86,3.08,4.59,4.86l.15.15,1.69,1.73.12.12c1.26,1.26,2.6,2.58,4,3.93l.11.11,1.94,1.82.38.35,1.89,1.72.32.29c1.48,1.32,3,2.65,4.6,4l.6.49.95.78c-6.66-11.4-14.18-25.64-14.29-25.83-.9-1.71-1.82-3.53-2.77-5.4-5.15-10.19-11-21.73-19-26.62-4.05-1.78-7.6-2-10.61-.73,5.66,6.79,9.88,14.37,13.65,21.16C186.52,455.61,189.36,460.72,192.46,464.12Z"/><path class="cls-4" d="M1040.34,448.89a7.27,7.27,0,0,1-3.93-1.2,139,139,0,0,1-13.51-9.89,87.57,87.57,0,0,1-15.52-16.33c-3.43-4.72-7.57-11.15-9.17-18.92-2.48-12,2.82-27.22,17.51-31.9a22.54,22.54,0,0,1,7-1.08,24,24,0,0,1,5.12.55,24.7,24.7,0,0,1,12.52,6.84,22.76,22.76,0,0,1,12.69-6.8,27.42,27.42,0,0,1,4.79-.52h.7c10.28,0,19.51,7,23,17.32,2.77,8.25,1.88,16.83-2.62,25.51-4.82,9.37-11.66,17.59-20.89,25.13l-.27.21c-3.06,2.48-6.24,4.74-9.31,6.93l-3.59,2.57a7.41,7.41,0,0,1-4.49,1.59Z"/><path class="cls-6" d="M1075,389.38c-2.61-7.8-9.71-13.24-17.53-13a21.65,21.65,0,0,0-3.77.41c-6.14,1.15-10.7,4.83-13.31,11.54-.32-.7-.54-1.16-.75-1.65a17.83,17.83,0,0,0-12.63-10,17.24,17.24,0,0,0-8.87.38c-11.16,3.56-15.17,15.08-13.22,24.5,1.25,6.07,4.38,11.29,8,16.22A80,80,0,0,0,1027,432.68a128.21,128.21,0,0,0,12.58,9.19c.77.51,1.27.2,1.82-.21,4.11-3,8.34-5.83,12.29-9l.25-.2a71.44,71.44,0,0,0,18.85-22.64C1076.2,403.24,1077.4,396.51,1075,389.38Z"/><circle class="cls-7" cx="473.85" cy="272.83" r="16.32"/><circle class="cls-7" cx="513.67" cy="273.31" r="16.32"/><circle class="cls-7" cx="553.49" cy="273.31" r="16.32"/><circle class="cls-4" cx="472.99" cy="270.7" r="16.05"/><circle class="cls-4" cx="512.16" cy="271.18" r="16.05"/><circle class="cls-4" cx="551.34" cy="271.18" r="16.05"/></svg>