<svg xmlns="http://www.w3.org/2000/svg" xmlns:xlink="http://www.w3.org/1999/xlink" viewBox="0 0 156.85 163.56"><defs><style>.cls-1{isolation:isolate;}.cls-2{fill:#d2978d;}.cls-3{fill:#c08a81;}.cls-4{fill:#fff;}.cls-5{fill:url(#Dégradé_sans_nom_162);}.cls-11,.cls-6{fill:#fff3c2;}.cls-10,.cls-7{fill:#f9df5a;}.cls-10,.cls-11,.cls-8{mix-blend-mode:screen;}.cls-9{fill:#eac733;}</style><linearGradient id="Dégradé_sans_nom_162" x1="43.66" y1="85.12" x2="113.68" y2="85.12" gradientUnits="userSpaceOnUse"><stop offset="0" stop-color="#c08a81"/><stop offset="1" stop-color="#d4958d"/></linearGradient></defs><g class="cls-1"><g id="Calque_1" data-name="Calque 1"><path class="cls-2" d="M125.8,66.2l.33-.54.29-.56c.2-.37.41-.75.59-1.15a21.25,21.25,0,0,0,1-2.47,13.1,13.1,0,0,0,.63-2.81,8.38,8.38,0,0,0-.27-3.12,6.58,6.58,0,0,0-1.72-2.85,5.28,5.28,0,0,0-3.21-1.55,4.21,4.21,0,0,0-.94,0,5.14,5.14,0,0,0-2.56,1,10.18,10.18,0,0,0-2.3,2.45c-.62.87-1.15,1.77-1.69,2.62l-.84,1.21c-.3.39-.61.77-.92,1.16a24.88,24.88,0,0,1-4.51,4,46,46,0,0,1-11.32,5.5c-4,1.4-8.23,2.51-12.28,3.91a46.82,46.82,0,0,0-11.41,5.43,30.76,30.76,0,0,0-8.25,8.41c-.53.76-1,1.57-1.43,2.35s-.84,1.59-1.17,2.39-.65,1.6-1,2.38l-.37,1.19-.19.58-.15.59a27.39,27.39,0,0,0-.94,8.56,9.15,9.15,0,0,0,.91,3.46,6.06,6.06,0,0,0,2,2.24,4.5,4.5,0,0,0,2.16.8,3.49,3.49,0,0,0,1.54-.23,3.61,3.61,0,0,0,1.8-1.54,1.87,1.87,0,0,0,.12-.25,25.21,25.21,0,0,1,2.87.91,28.92,28.92,0,0,0,3.92,1.21,10.45,10.45,0,0,0,2.07.25,8.1,8.1,0,0,0,2-.21,6.3,6.3,0,0,0,2.8-1.42,3.21,3.21,0,0,0,.94-1.36v0a32.3,32.3,0,0,0,4.48,2.35,12.84,12.84,0,0,0,6.43,1.1,8.18,8.18,0,0,0,4.63-2.11,5.16,5.16,0,0,0,1.48-2.25,5.28,5.28,0,0,0,.1-.63c0-.09,0-.17,0-.24.64.07,1.3.12,2,.14a20.54,20.54,0,0,0,7-.94,14.68,14.68,0,0,0,5.73-3.33,9.44,9.44,0,0,0,1.76-2.28,7.2,7.2,0,0,0,.78-2.25,5.14,5.14,0,0,0-.2-2.74,2.87,2.87,0,0,0-.43-.72,21.55,21.55,0,0,0,3.5-2.79c.35-.37.72-.72,1-1.1s.65-.75.93-1.15.57-.77.82-1.16a11.09,11.09,0,0,0,.69-1.19,7.51,7.51,0,0,0,.8-2.44,4.65,4.65,0,0,0-.21-2.15,3.85,3.85,0,0,0-.81-1.36,2.33,2.33,0,0,0-.73-.56,2.29,2.29,0,0,0-.42-.14,21.38,21.38,0,0,0,1.66-2.06c.15-.22.32-.43.45-.65s.27-.45.4-.67c.28-.43.5-.9.73-1.34a11.4,11.4,0,0,0,1-2.75,5.42,5.42,0,0,0-.08-2.72,3.52,3.52,0,0,0-.56-1.11,4,4,0,0,0-.8-.75,3.52,3.52,0,0,0-1.57-.56,2.87,2.87,0,0,0-.42,0c.23-.32.45-.65.68-1S125.58,66.55,125.8,66.2Z"/><path class="cls-3" d="M125.76,78.11c.14-.22.27-.45.4-.67.28-.43.5-.9.73-1.34a11.4,11.4,0,0,0,1-2.75,5.42,5.42,0,0,0-.08-2.72,3.52,3.52,0,0,0-.56-1.11,4,4,0,0,0-.8-.75,3.52,3.52,0,0,0-1.57-.56,2.87,2.87,0,0,0-.42,0c.23-.32.45-.65.68-1s.43-.69.65-1l.33-.54.29-.56c.2-.37.41-.75.59-1.15a21.25,21.25,0,0,0,1-2.47,13.1,13.1,0,0,0,.63-2.81,8.38,8.38,0,0,0-.27-3.12,6.58,6.58,0,0,0-1.72-2.85,5.43,5.43,0,0,0-3.14-1.55c1,2.89.19,6.25-1,9a47.51,47.51,0,0,1-2.94,5.61q-1.73,2.94-3.69,5.73c-1.48,2.11-3.06,4.14-4.73,6.11-.11.13,0,.37.2.25a17,17,0,0,1,5-2.5,15.75,15.75,0,0,1,2.64-.59c.83-.12,2-.26,2.45.66a3.1,3.1,0,0,1-.33,2.46,10.92,10.92,0,0,1-1.18,2,16.33,16.33,0,0,1-3.57,3.47,47.16,47.16,0,0,1-4.67,3c-.15.09,0,.36.13.3a8.87,8.87,0,0,1,4.63-.6A3.19,3.19,0,0,1,119,88.6a2.9,2.9,0,0,1-.7,2,19,19,0,0,1-1.37,1.6,24.68,24.68,0,0,1-7.13,5.3.16.16,0,0,0,.13.29,1.26,1.26,0,0,1,1.44.65,1.76,1.76,0,0,1,.07,1.75,6.13,6.13,0,0,1-3.06,2.37,21.06,21.06,0,0,1-8.13,2.07,20.59,20.59,0,0,1-4.77-.31.16.16,0,0,0-.16.27c.83.89.13,2.27-.79,2.76a7.77,7.77,0,0,1-4,.4,40.3,40.3,0,0,1-8.45-1.32,39.23,39.23,0,0,1-4.52-1.5.17.17,0,0,0-.21.16c.06,2.29-2.53,3.25-4.43,3.38-2.57.17-5-1.07-7.61-.66a4.58,4.58,0,0,0-2.69,1.46,5.88,5.88,0,0,0,1.44,1.39,4.5,4.5,0,0,0,2.16.8,3.49,3.49,0,0,0,1.54-.23,3.61,3.61,0,0,0,1.8-1.54,1.87,1.87,0,0,0,.12-.25,25.21,25.21,0,0,1,2.87.91,28.92,28.92,0,0,0,3.92,1.21,10.45,10.45,0,0,0,2.07.25,8.1,8.1,0,0,0,2-.21,6.3,6.3,0,0,0,2.8-1.42,3.21,3.21,0,0,0,.94-1.36v0a32.3,32.3,0,0,0,4.48,2.35,12.84,12.84,0,0,0,6.43,1.1,8.18,8.18,0,0,0,4.63-2.11,5.16,5.16,0,0,0,1.48-2.25,5.28,5.28,0,0,0,.1-.63c0-.09,0-.17,0-.24.64.07,1.3.12,2,.14a20.54,20.54,0,0,0,7-.94,14.68,14.68,0,0,0,5.73-3.33,9.44,9.44,0,0,0,1.76-2.28,7.2,7.2,0,0,0,.78-2.25,5.14,5.14,0,0,0-.2-2.74,2.87,2.87,0,0,0-.43-.72,21.55,21.55,0,0,0,3.5-2.79c.35-.37.72-.72,1-1.1s.65-.75.93-1.15.57-.77.82-1.16a11.09,11.09,0,0,0,.69-1.19,7.51,7.51,0,0,0,.8-2.44,4.65,4.65,0,0,0-.21-2.15,3.85,3.85,0,0,0-.81-1.36,2.33,2.33,0,0,0-.73-.56,2.29,2.29,0,0,0-.42-.14,21.38,21.38,0,0,0,1.66-2.06C125.46,78.54,125.63,78.33,125.76,78.11Z"/><path class="cls-4" d="M102.66,79.78a2.25,2.25,0,0,0-.35,1,11,11,0,0,1-.58,1.84,8.24,8.24,0,0,1-1.32,2.12,5.83,5.83,0,0,1-1,.93,5.57,5.57,0,0,1-1.17.72,6.14,6.14,0,0,1-.64.27c-.22.06-.43.15-.66.19a8,8,0,0,1-1.34.22,15.6,15.6,0,0,1-4.19-.47c-.43-.06-.59,0-.49.28a2.67,2.67,0,0,0,1.06,1,6.79,6.79,0,0,0,1.89.81,8.23,8.23,0,0,1-1.49,3.79,4.84,4.84,0,0,1-.76.74,4.41,4.41,0,0,1-.91.55,4.67,4.67,0,0,1-1,.33,5.06,5.06,0,0,1-1.09.12,11.61,11.61,0,0,1-3.43-.64c-.38-.08-.55,0-.51.23a2,2,0,0,0,.76,1.05A5.31,5.31,0,0,0,87.51,96l.57.12a1.06,1.06,0,0,0-.16.32A10,10,0,0,1,87.3,98a3.15,3.15,0,0,1-.58.79,4.15,4.15,0,0,1-.83.64c-.62.37-1.31.57-1.78.87-.23.15-.33.29-.27.46a1,1,0,0,0,.63.47,3.08,3.08,0,0,0,1.37.13,4,4,0,0,0,1.65-.58,3.79,3.79,0,0,0,1.29-1.35,3.85,3.85,0,0,0,.49-1.57,2.73,2.73,0,0,0-.34-1.66A6.06,6.06,0,0,0,90.5,96a5.72,5.72,0,0,0,3.7-2.77,5.33,5.33,0,0,0,.32-.63A6,6,0,0,0,95,89.83a3.14,3.14,0,0,0-.25-1A8.06,8.06,0,0,0,98,88.65a7.49,7.49,0,0,0,3.18-1.84,7.72,7.72,0,0,0,1.1-1.36c.16-.23.28-.48.41-.71s.22-.47.3-.71a7.08,7.08,0,0,0,.48-2.49,3.63,3.63,0,0,0-.2-1.31C103,79.76,102.81,79.66,102.66,79.78ZM100.4,91.54c-.3-.29-.5-.31-.63-.19a1.41,1.41,0,0,0-.22.74,10.61,10.61,0,0,1-.23,1.3,5.64,5.64,0,0,1-.65,1.55,4.51,4.51,0,0,1-.54.72,3.84,3.84,0,0,1-.68.59,4.33,4.33,0,0,1-.81.46,6.16,6.16,0,0,1-.88.31,14.87,14.87,0,0,1-3,.26c-.35,0-.5.15-.42.35a1.7,1.7,0,0,0,.85.77,4.71,4.71,0,0,0,2,.53,5.81,5.81,0,0,0,2.59-.49,5.39,5.39,0,0,0,2.17-1.78,5.58,5.58,0,0,0,1-2.32,5,5,0,0,0-.06-1.89A2.46,2.46,0,0,0,100.4,91.54ZM125.8,66.2l.33-.54.29-.56c.2-.37.41-.75.59-1.15a21.25,21.25,0,0,0,1-2.47,13.1,13.1,0,0,0,.63-2.81,8.38,8.38,0,0,0-.27-3.12,6.58,6.58,0,0,0-1.72-2.85,5.28,5.28,0,0,0-3.21-1.55,4.21,4.21,0,0,0-.94,0,5.14,5.14,0,0,0-2.56,1,10.18,10.18,0,0,0-2.3,2.45c-.62.87-1.15,1.77-1.69,2.62l-.84,1.21c-.3.39-.61.77-.92,1.16a24.88,24.88,0,0,1-4.51,4,46,46,0,0,1-11.32,5.5c-4,1.4-8.23,2.51-12.28,3.91a46.82,46.82,0,0,0-11.41,5.43,30.76,30.76,0,0,0-8.25,8.41c-.53.76-1,1.57-1.43,2.35s-.84,1.59-1.17,2.39-.65,1.6-1,2.38l-.37,1.19-.19.58-.15.59a27.39,27.39,0,0,0-.94,8.56,9.15,9.15,0,0,0,.91,3.46,6.06,6.06,0,0,0,2,2.24,4.5,4.5,0,0,0,2.16.8,3.49,3.49,0,0,0,1.54-.23,3.61,3.61,0,0,0,1.8-1.54,1.87,1.87,0,0,0,.12-.25,25.21,25.21,0,0,1,2.87.91,28.92,28.92,0,0,0,3.92,1.21,10.45,10.45,0,0,0,2.07.25,8.1,8.1,0,0,0,2-.21,6.3,6.3,0,0,0,2.8-1.42,3.21,3.21,0,0,0,.94-1.36v0a32.3,32.3,0,0,0,4.48,2.35,12.84,12.84,0,0,0,6.43,1.1,8.18,8.18,0,0,0,4.63-2.11,5.16,5.16,0,0,0,1.48-2.25,5.28,5.28,0,0,0,.1-.63c0-.09,0-.17,0-.24.64.07,1.3.12,2,.14a20.54,20.54,0,0,0,7-.94,14.68,14.68,0,0,0,5.73-3.33,9.44,9.44,0,0,0,1.76-2.28,7.2,7.2,0,0,0,.78-2.25,5.14,5.14,0,0,0-.2-2.74,2.87,2.87,0,0,0-.43-.72,21.55,21.55,0,0,0,3.5-2.79c.35-.37.72-.72,1-1.1s.65-.75.93-1.15.57-.77.82-1.16a11.09,11.09,0,0,0,.69-1.19,7.51,7.51,0,0,0,.8-2.44,4.65,4.65,0,0,0-.21-2.15,3.85,3.85,0,0,0-.81-1.36,2.33,2.33,0,0,0-.73-.56,2.29,2.29,0,0,0-.42-.14,21.38,21.38,0,0,0,1.66-2.06c.15-.22.32-.43.45-.65s.27-.45.4-.67c.28-.43.5-.9.73-1.34a11.4,11.4,0,0,0,1-2.75,5.42,5.42,0,0,0-.08-2.72,3.52,3.52,0,0,0-.56-1.11,4,4,0,0,0-.8-.75,3.52,3.52,0,0,0-1.57-.56,2.87,2.87,0,0,0-.42,0c.23-.32.45-.65.68-1S125.58,66.55,125.8,66.2Zm-3.32,2.25A28.54,28.54,0,0,1,116.94,74a32.3,32.3,0,0,1-4.83,3c-.67.33-1.19.6-1.59.77a6.2,6.2,0,0,0-.76.4c-.22.17.11.14.93-.07a20.11,20.11,0,0,0,3.76-1.43A27,27,0,0,0,120,73c.26-.21.51-.44.76-.67s.51-.47.75-.72c.49-.5,1-1,1.49-1.6.25-.27.48-.56.72-.86a2,2,0,0,1,1.06.12,2.24,2.24,0,0,1,.57.3,2,2,0,0,1,.52.49,1.72,1.72,0,0,1,.35.63,3.53,3.53,0,0,1,.14.89,5.86,5.86,0,0,1-.46,2.14,12.33,12.33,0,0,1-.56,1.17c-.23.39-.44.81-.68,1.21a22,22,0,0,1-3.7,4.47,23.48,23.48,0,0,1-4.61,3.33,27,27,0,0,1-4.45,1.94l-1,.32-.85.24c-.53.18-1,.29-1.33.41-.71.26-.8.43-.4.55a4.68,4.68,0,0,0,1,.12,11.78,11.78,0,0,0,1.62,0,18.91,18.91,0,0,0,4.61-1.13,20.49,20.49,0,0,0,5.25-2.94,22.79,22.79,0,0,0,2.39-2.12,3.77,3.77,0,0,1,.76,1,3.51,3.51,0,0,1,.39,1.36,4.21,4.21,0,0,1-.28,1.74,9,9,0,0,1-1.09,2c-.23.34-.51.68-.79,1-.14.17-.27.35-.42.52l-.46.5a22.78,22.78,0,0,1-4.3,3.66,24.55,24.55,0,0,1-4.93,2.49,28.34,28.34,0,0,1-4.55,1.26l-1,.18-.85.13c-.53.11-1,.16-1.33.24-.7.17-.82.33-.44.5a5,5,0,0,0,.92.24,4.73,4.73,0,0,0,.71.09l.85.06a19.09,19.09,0,0,0,4.58-.45,22,22,0,0,0,5.47-2c.37-.19.74-.41,1.1-.63a8.19,8.19,0,0,1,0,1.62,6.65,6.65,0,0,1-1.53,3.64,12.11,12.11,0,0,1-4.5,3.23,18.72,18.72,0,0,1-6.21,1.42,29.49,29.49,0,0,1-6.35-.33c-2-.3-3.85-.71-5.38-1a30,30,0,0,0-3.59-.61c-1.62-.1-.61.53,1.91,1.52a44.58,44.58,0,0,0,4.85,1.56,33.15,33.15,0,0,0,4.1.79,11.64,11.64,0,0,1-1,1.32,7.17,7.17,0,0,1-3.35,2c-.2,0-.39.1-.59.13a4.08,4.08,0,0,1-.61.09c-.2,0-.41,0-.62,0s-.44,0-.67,0a11,11,0,0,1-2.79-.53,27.09,27.09,0,0,1-5.72-2.78,39.48,39.48,0,0,0-5.81-3.06,12.3,12.3,0,0,0-5.56-.9,7.54,7.54,0,0,0-2.06.47,5,5,0,0,0-1.31.73c-.58.52-.54.71-.15.65a18.79,18.79,0,0,1,2.37-.4,11.74,11.74,0,0,1,4.39.59,26.47,26.47,0,0,1,5.33,2.63l.79.48c-.12.1-.26.22-.43.34a6.15,6.15,0,0,1-.84.53,6.74,6.74,0,0,1-2.61.67,7,7,0,0,1-1.62-.1c-2.29-.33-4.87-1.62-7.41-2.11a9,9,0,0,0-3.42-.08,3.91,3.91,0,0,0-2,.93c-.34.37-.29.54,0,.58s.74,0,1.41-.07a10.92,10.92,0,0,1,2.55.23,3.06,3.06,0,0,1-2.61,1.25,3.82,3.82,0,0,1-2.26-1.09,5.51,5.51,0,0,1-.93-1.19,6.94,6.94,0,0,1-.6-1.55,12.54,12.54,0,0,1-.22-3.84,30.19,30.19,0,0,1,.67-4.42c.14-.76.39-1.52.61-2.31s.51-1.55.84-2.33.69-1.55,1-2.34l.63-1.16c.2-.39.45-.76.68-1.15a29.25,29.25,0,0,1,7.54-8.27,32.58,32.58,0,0,1,5.11-3.09,77.38,77.38,0,0,1,11.8-4.34c2.06-.63,4.15-1.24,6.23-1.93s4.15-1.45,6.17-2.34a42.23,42.23,0,0,0,5.83-3.1,27.55,27.55,0,0,0,5.08-4.16c.36-.41.75-.79,1.09-1.22l.5-.64.25-.31.23-.34c.3-.44.63-.88.89-1.33l.8-1.3a15.47,15.47,0,0,1,1.69-2.31,4.34,4.34,0,0,1,2.07-1.35,3,3,0,0,1,2.25.31,4.51,4.51,0,0,1,1.69,1.72,4.65,4.65,0,0,1,.46,1.11,6.34,6.34,0,0,1,.2,1.22A8.63,8.63,0,0,1,126.7,60a20.24,20.24,0,0,1-1.78,4.6A28.11,28.11,0,0,1,122.48,68.45Zm-15,2a15.33,15.33,0,0,0-3,1L98.23,73.8c-2.48,1-5.32,2-8.26,3.36-1.47.65-3,1.37-4.44,2.16-.75.39-1.48.82-2.21,1.24s-1.45.88-2.14,1.37-1.37,1-2,1.48l-1,.79c-.33.26-.64.53-.94.81a32.35,32.35,0,0,0-3.32,3.43,23.86,23.86,0,0,0-4.15,7c-.18.56-.38,1.07-.5,1.57S69,98,69,98.45a11.57,11.57,0,0,0-.16,2.19c0,1.14.2,1.28.42.7.12-.29.23-.77.41-1.38.1-.31.21-.65.32-1a5.14,5.14,0,0,1,.2-.59l.23-.63a25.14,25.14,0,0,1,3.35-6c.42-.53.83-1.09,1.31-1.63s1-1.07,1.49-1.61A38.31,38.31,0,0,1,80,85.35a49.36,49.36,0,0,1,8.17-5.11c2.85-1.47,5.71-2.73,8.26-3.86s4.8-2.13,6.52-3,2.89-1.5,3.37-1.81C107.5,70.77,107.81,70.42,107.44,70.43Z"/><path class="cls-2" d="M148.37,48.29c.11-.18.22-.36.32-.54l.3-.56c.2-.37.41-.75.59-1.15a21.25,21.25,0,0,0,1-2.47,12.52,12.52,0,0,0,.62-2.81,8.15,8.15,0,0,0-.26-3.12,6.71,6.71,0,0,0-1.72-2.86A5.42,5.42,0,0,0,146,33.23a5.56,5.56,0,0,0-1.87.2,6,6,0,0,0-1.64.82,10.33,10.33,0,0,0-2.29,2.45c-.62.87-1.16,1.77-1.7,2.61-.27.42-.55.81-.83,1.22s-.62.77-.92,1.16a25.26,25.26,0,0,1-4.51,4A46,46,0,0,1,121,51.22c-4,1.39-8.23,2.51-12.28,3.91a46.89,46.89,0,0,0-11.42,5.43A31,31,0,0,0,89,69c-.53.77-1,1.58-1.43,2.36s-.84,1.59-1.17,2.39-.65,1.6-1,2.38l-.38,1.19-.18.58-.15.59A27.39,27.39,0,0,0,83.8,87a9,9,0,0,0,.91,3.46,6.05,6.05,0,0,0,2,2.24,4.5,4.5,0,0,0,2.16.8,3.49,3.49,0,0,0,1.54-.23,3.58,3.58,0,0,0,1.8-1.55,1.34,1.34,0,0,0,.12-.24,25.21,25.21,0,0,1,2.87.91,28.92,28.92,0,0,0,3.92,1.21,12.19,12.19,0,0,0,2.06.25,8.13,8.13,0,0,0,2-.21,6.2,6.2,0,0,0,2.79-1.42,3.27,3.27,0,0,0,.95-1.36v0a33.42,33.42,0,0,0,4.48,2.35,12.81,12.81,0,0,0,6.42,1.1,8.24,8.24,0,0,0,4.64-2.11A4,4,0,0,0,124,89.31c0-.1,0-.17,0-.24.64.07,1.3.12,2,.14a21,21,0,0,0,7-.94,14.89,14.89,0,0,0,5.74-3.33,9.15,9.15,0,0,0,1.75-2.28,7,7,0,0,0,.79-2.25,5.14,5.14,0,0,0-.2-2.74,2.87,2.87,0,0,0-.43-.72,21.55,21.55,0,0,0,3.5-2.79c.35-.37.72-.72,1-1.1s.65-.75.93-1.15.57-.77.82-1.16a11.09,11.09,0,0,0,.69-1.19,7.25,7.25,0,0,0,.79-2.44,4.53,4.53,0,0,0-.2-2.15,3.9,3.9,0,0,0-.81-1.37,2.26,2.26,0,0,0-.73-.55,2.29,2.29,0,0,0-.42-.14,21.38,21.38,0,0,0,1.66-2.06c.15-.22.31-.43.45-.65s.27-.45.4-.67c.28-.43.5-.9.73-1.34a11.11,11.11,0,0,0,1-2.75,5.31,5.31,0,0,0-.07-2.72,3.68,3.68,0,0,0-.56-1.12,4.21,4.21,0,0,0-.8-.74,3.4,3.4,0,0,0-1.57-.56,2.87,2.87,0,0,0-.42,0l.68-1C148,49,148.15,48.64,148.37,48.29Z"/><path class="cls-3" d="M148.33,60.2c.13-.23.27-.45.4-.67.28-.43.5-.9.73-1.34a11.11,11.11,0,0,0,1-2.75,5.31,5.31,0,0,0-.07-2.72,3.68,3.68,0,0,0-.56-1.12,4.21,4.21,0,0,0-.8-.74,3.4,3.4,0,0,0-1.57-.56,2.87,2.87,0,0,0-.42,0l.68-1c.23-.33.43-.69.65-1,.11-.18.22-.36.32-.54l.3-.56c.2-.37.41-.75.59-1.15a21.25,21.25,0,0,0,1-2.47,12.52,12.52,0,0,0,.62-2.81,8.15,8.15,0,0,0-.26-3.12,6.71,6.71,0,0,0-1.72-2.86,5.36,5.36,0,0,0-3.14-1.54c1,2.89.19,6.25-1,9a47.51,47.51,0,0,1-2.94,5.61q-1.73,2.94-3.69,5.73-2.22,3.15-4.73,6.11c-.11.13,0,.37.2.25a17.32,17.32,0,0,1,5-2.51,16.79,16.79,0,0,1,2.64-.58c.83-.12,2-.26,2.45.66a3.1,3.1,0,0,1-.33,2.46,11.26,11.26,0,0,1-1.18,2A16.33,16.33,0,0,1,139,65.48a47.16,47.16,0,0,1-4.67,3,.17.17,0,0,0,.13.3,8.87,8.87,0,0,1,4.63-.6,3.2,3.2,0,0,1,2.49,2.55,2.91,2.91,0,0,1-.71,2,18.84,18.84,0,0,1-1.36,1.6,25.11,25.11,0,0,1-3.16,2.85,24.45,24.45,0,0,1-4,2.44.17.17,0,0,0,.13.3,1.24,1.24,0,0,1,1.43.65,1.74,1.74,0,0,1,.08,1.75A6.13,6.13,0,0,1,131,84.61a21.06,21.06,0,0,1-8.13,2.07,20.71,20.71,0,0,1-4.78-.31.16.16,0,0,0-.15.27c.83.89.13,2.27-.79,2.76a7.77,7.77,0,0,1-3.95.4,40.48,40.48,0,0,1-13-2.82c-.09,0-.2.06-.2.16.06,2.29-2.53,3.25-4.43,3.38-2.57.17-5-1.08-7.61-.66a4.58,4.58,0,0,0-2.69,1.46,5.71,5.71,0,0,0,1.44,1.39,4.5,4.5,0,0,0,2.16.8,3.49,3.49,0,0,0,1.54-.23,3.58,3.58,0,0,0,1.8-1.55,1.34,1.34,0,0,0,.12-.24,25.21,25.21,0,0,1,2.87.91,28.92,28.92,0,0,0,3.92,1.21,12.19,12.19,0,0,0,2.06.25,8.13,8.13,0,0,0,2-.21,6.2,6.2,0,0,0,2.79-1.42,3.27,3.27,0,0,0,.95-1.36v0a33.42,33.42,0,0,0,4.48,2.35,12.81,12.81,0,0,0,6.42,1.1,8.24,8.24,0,0,0,4.64-2.11A4,4,0,0,0,124,89.31c0-.1,0-.17,0-.24.64.07,1.3.12,2,.14a21,21,0,0,0,7-.94,14.89,14.89,0,0,0,5.74-3.33,9.15,9.15,0,0,0,1.75-2.28,7,7,0,0,0,.79-2.25,5.14,5.14,0,0,0-.2-2.74,2.87,2.87,0,0,0-.43-.72,21.55,21.55,0,0,0,3.5-2.79c.35-.37.72-.72,1-1.1s.65-.75.93-1.15.57-.77.82-1.16a11.09,11.09,0,0,0,.69-1.19,7.25,7.25,0,0,0,.79-2.44,4.53,4.53,0,0,0-.2-2.15,3.9,3.9,0,0,0-.81-1.37,2.26,2.26,0,0,0-.73-.55,2.29,2.29,0,0,0-.42-.14,21.38,21.38,0,0,0,1.66-2.06C148,60.63,148.19,60.42,148.33,60.2Z"/><path class="cls-3" d="M129.23,53.05c-3.24,1.41-6.49,2.83-9.72,4.29s-6.41,3-9.55,4.57a56.58,56.58,0,0,0-8.54,5,24.28,24.28,0,0,0-6.1,6.83,40.92,40.92,0,0,0-3.68,8.32c-.12.36-.23.71-.34,1.07-.07.2.25.29.31.09,0,0,0-.09,0-.13a.15.15,0,0,0,.09-.07A38,38,0,0,1,104.5,69.71a69.57,69.57,0,0,1,9.27-4.61,54,54,0,0,0,8.81-4.55,21.09,21.09,0,0,0,6.32-6.3c.2-.32.38-.65.56-1C129.54,53.12,129.38,53,129.23,53.05Z"/><path class="cls-3" d="M125.33,66.29a.16.16,0,0,0-.28,0,8.34,8.34,0,0,1-3.71,3.11A7.91,7.91,0,0,1,119,70a2.76,2.76,0,0,0-1.11.23,1.11,1.11,0,0,0-.54.92,8.07,8.07,0,0,1-.62,2.26,7.89,7.89,0,0,1-1.25,1.93,8.05,8.05,0,0,1-1.77,1.47,5.83,5.83,0,0,1-1.06.53c-.36.14-.74.23-1.09.4a1.56,1.56,0,0,0-.78,1,12.13,12.13,0,0,1-.53,1.42,9.1,9.1,0,0,1-1.71,2.5c-.14.16.09.39.23.23s.35-.39.52-.59a2.74,2.74,0,0,0,2.37,0,7.75,7.75,0,0,0,2.1-1.5A6.2,6.2,0,0,1,116,79.36c.91-.27,1.87-.29,2.8-.48A5.4,5.4,0,0,0,122.59,76c.39-.79.46-1.71.89-2.48a6.46,6.46,0,0,1,.93-1.09,5.51,5.51,0,0,0,.69-1A5.84,5.84,0,0,0,125.33,66.29Z"/><path class="cls-4" d="M125.23,61.87a2.13,2.13,0,0,0-.35,1,13.32,13.32,0,0,1-.58,1.84A8.41,8.41,0,0,1,123,66.8a6.26,6.26,0,0,1-1,.93,6.34,6.34,0,0,1-1.17.72c-.2.1-.42.18-.64.27s-.44.14-.66.19a7.91,7.91,0,0,1-1.35.22,15.57,15.57,0,0,1-4.18-.47c-.43-.06-.59,0-.5.28a2.8,2.8,0,0,0,1.07,1,6.51,6.51,0,0,0,1.89.8A8.27,8.27,0,0,1,115,74.57a4.49,4.49,0,0,1-.76.75,4.41,4.41,0,0,1-.91.55,4.67,4.67,0,0,1-1,.33,5.06,5.06,0,0,1-1.09.12,11.55,11.55,0,0,1-3.43-.64c-.38-.08-.55,0-.51.22A2,2,0,0,0,108,77,5.32,5.32,0,0,0,110.07,78l.58.13a1.07,1.07,0,0,0-.17.32,9,9,0,0,1-.61,1.56,3.15,3.15,0,0,1-.58.79,3.78,3.78,0,0,1-.83.63c-.62.38-1.31.58-1.78.87-.23.15-.33.3-.27.47a1,1,0,0,0,.63.47,3.21,3.21,0,0,0,1.37.13,3.93,3.93,0,0,0,1.65-.59,3.76,3.76,0,0,0,1.29-1.34,3.85,3.85,0,0,0,.49-1.58,2.71,2.71,0,0,0-.34-1.65,5.94,5.94,0,0,0,1.56-.15,5.71,5.71,0,0,0,3.71-2.77,5.33,5.33,0,0,0,.32-.63,6,6,0,0,0,.43-2.78,2.77,2.77,0,0,0-.26-1,7.88,7.88,0,0,0,3.28-.22,7.34,7.34,0,0,0,3.19-1.83,8.2,8.2,0,0,0,1.1-1.36c.16-.23.27-.48.4-.71s.23-.48.31-.71a6.86,6.86,0,0,0,.47-2.49,3.66,3.66,0,0,0-.19-1.31C125.57,61.85,125.37,61.74,125.23,61.87ZM123,73.63c-.31-.29-.5-.31-.63-.19a1.32,1.32,0,0,0-.22.74,10.61,10.61,0,0,1-.23,1.3,6,6,0,0,1-.65,1.55,4,4,0,0,1-.54.71,3.53,3.53,0,0,1-.68.6,4.33,4.33,0,0,1-.81.46,5.87,5.87,0,0,1-.89.31,14.74,14.74,0,0,1-3,.26c-.35,0-.5.15-.42.35a1.75,1.75,0,0,0,.85.77,4.86,4.86,0,0,0,2,.53,5.88,5.88,0,0,0,2.58-.49,5.36,5.36,0,0,0,3.12-4.1,4.61,4.61,0,0,0-.06-1.89A2.26,2.26,0,0,0,123,73.63Zm25.4-25.34c.11-.18.22-.36.32-.54l.3-.56c.2-.37.41-.75.59-1.15a21.25,21.25,0,0,0,1-2.47,12.52,12.52,0,0,0,.62-2.81,8.15,8.15,0,0,0-.26-3.12,6.71,6.71,0,0,0-1.72-2.86A5.42,5.42,0,0,0,146,33.23a5.56,5.56,0,0,0-1.87.2,6,6,0,0,0-1.64.82,10.33,10.33,0,0,0-2.29,2.45c-.62.87-1.16,1.77-1.7,2.61-.27.42-.55.81-.83,1.22s-.62.77-.92,1.16a25.26,25.26,0,0,1-4.51,4A46,46,0,0,1,121,51.22c-4,1.39-8.23,2.51-12.28,3.91a46.89,46.89,0,0,0-11.42,5.43A31,31,0,0,0,89,69c-.53.77-1,1.58-1.43,2.36s-.84,1.59-1.17,2.39-.65,1.6-1,2.38l-.38,1.19-.18.58-.15.59A27.39,27.39,0,0,0,83.8,87a9,9,0,0,0,.91,3.46,6.05,6.05,0,0,0,2,2.24,4.5,4.5,0,0,0,2.16.8,3.49,3.49,0,0,0,1.54-.23,3.58,3.58,0,0,0,1.8-1.55,1.34,1.34,0,0,0,.12-.24,25.21,25.21,0,0,1,2.87.91,28.92,28.92,0,0,0,3.92,1.21,12.19,12.19,0,0,0,2.06.25,8.13,8.13,0,0,0,2-.21,6.2,6.2,0,0,0,2.79-1.42,3.27,3.27,0,0,0,.95-1.36v0a33.42,33.42,0,0,0,4.48,2.35,12.81,12.81,0,0,0,6.42,1.1,8.24,8.24,0,0,0,4.64-2.11A4,4,0,0,0,124,89.31c0-.1,0-.17,0-.24.64.07,1.3.12,2,.14a21,21,0,0,0,7-.94,14.89,14.89,0,0,0,5.74-3.33,9.15,9.15,0,0,0,1.75-2.28,7,7,0,0,0,.79-2.25,5.14,5.14,0,0,0-.2-2.74,2.87,2.87,0,0,0-.43-.72,21.55,21.55,0,0,0,3.5-2.79c.35-.37.72-.72,1-1.1s.65-.75.93-1.15.57-.77.82-1.16a11.09,11.09,0,0,0,.69-1.19,7.25,7.25,0,0,0,.79-2.44,4.53,4.53,0,0,0-.2-2.15,3.9,3.9,0,0,0-.81-1.37,2.26,2.26,0,0,0-.73-.55,2.29,2.29,0,0,0-.42-.14,21.38,21.38,0,0,0,1.66-2.06c.15-.22.31-.43.45-.65s.27-.45.4-.67c.28-.43.5-.9.73-1.34a11.11,11.11,0,0,0,1-2.75,5.31,5.31,0,0,0-.07-2.72,3.68,3.68,0,0,0-.56-1.12,4.21,4.21,0,0,0-.8-.74,3.4,3.4,0,0,0-1.57-.56,2.87,2.87,0,0,0-.42,0l.68-1C148,49,148.15,48.64,148.37,48.29Zm-3.32,2.25a28.54,28.54,0,0,1-5.54,5.56,32.3,32.3,0,0,1-4.83,3c-.67.33-1.2.6-1.59.77a4.15,4.15,0,0,0-.76.4c-.22.16.11.14.93-.07A20,20,0,0,0,137,58.79a26.57,26.57,0,0,0,5.59-3.68c.26-.21.51-.44.75-.67s.51-.47.76-.72c.49-.51,1-1,1.49-1.6.24-.27.48-.56.72-.86a2,2,0,0,1,1.06.12,2.42,2.42,0,0,1,.57.3,2,2,0,0,1,.52.49,1.72,1.72,0,0,1,.35.63,3.52,3.52,0,0,1,.14.88,5.7,5.7,0,0,1-.47,2.15,10.16,10.16,0,0,1-.55,1.17c-.23.39-.44.81-.68,1.2a21.73,21.73,0,0,1-3.7,4.47A23.42,23.42,0,0,1,139,66,27.58,27.58,0,0,1,134.49,68c-.33.11-.65.21-.94.32l-.85.24c-.53.18-1,.29-1.33.41-.71.26-.81.43-.4.55a5.48,5.48,0,0,0,1,.12,13.62,13.62,0,0,0,1.62,0,19.49,19.49,0,0,0,4.61-1.13,21.28,21.28,0,0,0,5.25-2.94,21.8,21.8,0,0,0,2.39-2.13,4,4,0,0,1,.76,1,3.51,3.51,0,0,1,.39,1.35,4.25,4.25,0,0,1-.28,1.75,9,9,0,0,1-1.09,2c-.24.34-.52.68-.79,1-.14.17-.27.35-.42.52l-.46.5a22.37,22.37,0,0,1-4.3,3.65,24.42,24.42,0,0,1-4.94,2.5,30,30,0,0,1-4.55,1.26l-.95.18-.85.13c-.53.11-1,.16-1.33.24-.71.17-.82.33-.44.5a5,5,0,0,0,.92.24,4.57,4.57,0,0,0,.71.09l.85.06a19.14,19.14,0,0,0,4.58-.45,22,22,0,0,0,5.47-2c.37-.2.74-.41,1.1-.63a10.12,10.12,0,0,1,0,1.62,6.68,6.68,0,0,1-1.53,3.64,12.11,12.11,0,0,1-4.5,3.23A18.72,18.72,0,0,1,128,87.12a29.49,29.49,0,0,1-6.35-.33c-2-.3-3.85-.71-5.39-1a29.56,29.56,0,0,0-3.58-.61c-1.62-.1-.61.53,1.91,1.52a44.58,44.58,0,0,0,4.85,1.56,35.34,35.34,0,0,0,4.09.79,11.27,11.27,0,0,1-1,1.32,7.16,7.16,0,0,1-3.36,2c-.19,0-.38.1-.58.13a6,6,0,0,1-.61.09,6.26,6.26,0,0,1-.63,0c-.22,0-.44,0-.66,0a11.41,11.41,0,0,1-2.79-.53,27.09,27.09,0,0,1-5.72-2.78,39.58,39.58,0,0,0-5.82-3.06,12.24,12.24,0,0,0-5.55-.9,7.62,7.62,0,0,0-2.07.47,5.09,5.09,0,0,0-1.3.73c-.59.52-.55.71-.15.65a18.45,18.45,0,0,1,2.37-.4,11.77,11.77,0,0,1,4.39.59A26.47,26.47,0,0,1,105.37,90l.79.47a4.29,4.29,0,0,1-.43.35,6.83,6.83,0,0,1-.84.53,7.17,7.17,0,0,1-1.17.44,7.86,7.86,0,0,1-1.45.23,8.19,8.19,0,0,1-1.61-.1c-2.29-.33-4.87-1.63-7.41-2.11a9,9,0,0,0-3.42-.08,3.83,3.83,0,0,0-2,.93c-.34.37-.29.53,0,.58s.74,0,1.41-.07a10.92,10.92,0,0,1,2.55.23,3.1,3.1,0,0,1-.73.71,2.93,2.93,0,0,1-1.88.54,3.76,3.76,0,0,1-2.26-1.1A5.06,5.06,0,0,1,86,90.32a6.25,6.25,0,0,1-.6-1.54,12.54,12.54,0,0,1-.22-3.84,31.54,31.54,0,0,1,.66-4.42c.15-.77.4-1.52.61-2.31s.52-1.56.85-2.33.68-1.55,1-2.34l.63-1.16c.19-.39.45-.76.68-1.15a30.8,30.8,0,0,1,3.29-4.41A30.2,30.2,0,0,1,97.16,63a32.48,32.48,0,0,1,5.1-3.09,76.84,76.84,0,0,1,11.81-4.34c2.06-.63,4.15-1.24,6.23-1.93s4.15-1.45,6.17-2.34a42.23,42.23,0,0,0,5.83-3.1A27.55,27.55,0,0,0,137.38,44c.36-.41.75-.79,1.08-1.22l.51-.64.25-.31.23-.34c.3-.44.63-.89.89-1.33l.8-1.3a14.8,14.8,0,0,1,1.69-2.31,4.34,4.34,0,0,1,2.07-1.35,3,3,0,0,1,2.25.31,4.55,4.55,0,0,1,1.69,1.71,4.9,4.9,0,0,1,.46,1.12,6.21,6.21,0,0,1,.2,1.22,8.66,8.66,0,0,1-.23,2.48,20.71,20.71,0,0,1-1.78,4.6A28.11,28.11,0,0,1,145.05,50.54Zm-15.05,2a16.74,16.74,0,0,0-3,1l-6.18,2.37c-2.48,1-5.32,2-8.26,3.36-1.47.65-3,1.37-4.45,2.16-.74.39-1.47.82-2.2,1.24s-1.45.88-2.14,1.37-1.38,1-2,1.48l-1,.79c-.33.26-.64.53-.94.81a32.35,32.35,0,0,0-3.32,3.43,23.86,23.86,0,0,0-4.15,7c-.18.56-.38,1.07-.5,1.57s-.23,1-.31,1.41a11.57,11.57,0,0,0-.16,2.19c0,1.14.2,1.28.42.7.12-.29.23-.77.41-1.38.1-.31.2-.66.32-1a3.42,3.42,0,0,1,.2-.59l.23-.63a25,25,0,0,1,3.35-6c.42-.54.83-1.09,1.31-1.63s1-1.07,1.49-1.61a38.31,38.31,0,0,1,3.45-3.08,50.08,50.08,0,0,1,8.17-5.12c2.85-1.46,5.71-2.72,8.26-3.85s4.8-2.13,6.52-3a34.31,34.31,0,0,0,3.37-1.81C130.07,52.86,130.38,52.5,130,52.51Z"/><path class="cls-2" d="M89.09,111.07a3.68,3.68,0,0,1-1.8-1.55,1.15,1.15,0,0,1-.12-.25,30,30,0,0,0-2.87.91,28.93,28.93,0,0,1-3.92,1.22,11.23,11.23,0,0,1-2.06.24,7.28,7.28,0,0,1-2-.21A6.2,6.2,0,0,1,73.57,110a3.22,3.22,0,0,1-.95-1.37h0A33.42,33.42,0,0,1,68.14,111a12.92,12.92,0,0,1-6.42,1.1A8.21,8.21,0,0,1,57.08,110a5.15,5.15,0,0,1-1.48-2.25,3.54,3.54,0,0,1-.09-.62,1.89,1.89,0,0,1,0-.24c-.64.06-1.29.12-2,.14a21,21,0,0,1-7-.94,14.89,14.89,0,0,1-5.74-3.33A9.52,9.52,0,0,1,39,100.45a7,7,0,0,1-.79-2.25,5.12,5.12,0,0,1,.2-2.74,2.87,2.87,0,0,1,.43-.72A21.05,21.05,0,0,1,35.37,92c-.36-.37-.73-.72-1-1.1s-.65-.75-.93-1.15-.57-.77-.82-1.16a13.07,13.07,0,0,1-.69-1.19,7.25,7.25,0,0,1-.79-2.44,4.53,4.53,0,0,1,.2-2.15,3.9,3.9,0,0,1,.81-1.37,2.51,2.51,0,0,1,.73-.56,1.65,1.65,0,0,1,.42-.13,21.38,21.38,0,0,1-1.66-2.06c-.15-.22-.31-.43-.45-.65s-.27-.45-.4-.67c-.28-.44-.5-.9-.73-1.34a11.11,11.11,0,0,1-1-2.75,5.3,5.3,0,0,1,.07-2.72,3.57,3.57,0,0,1,.56-1.12,3.9,3.9,0,0,1,.8-.74A3.29,3.29,0,0,1,32,68.09a2.84,2.84,0,0,1,.42,0l-.68-1c-.23-.33-.43-.69-.65-1.05-.11-.17-.22-.35-.32-.53l-.3-.56c-.2-.38-.41-.75-.59-1.15a21.25,21.25,0,0,1-1-2.47,12.61,12.61,0,0,1-.62-2.82,8.18,8.18,0,0,1,.26-3.12,6.67,6.67,0,0,1,1.72-2.85A5.42,5.42,0,0,1,33.44,51a4.89,4.89,0,0,1,.94,0,4.25,4.25,0,0,1,.93.18A6,6,0,0,1,37,52a10.15,10.15,0,0,1,2.29,2.45c.63.87,1.16,1.77,1.7,2.61.27.42.55.81.83,1.22s.62.77.92,1.15a24.52,24.52,0,0,0,4.51,4A45.69,45.69,0,0,0,58.52,69c4,1.4,8.23,2.52,12.28,3.92a46.72,46.72,0,0,1,11.42,5.43,31,31,0,0,1,8.24,8.4c.53.77,1,1.58,1.43,2.36s.84,1.58,1.18,2.39.64,1.6,1,2.38l.38,1.18.18.59.15.58a27.48,27.48,0,0,1,.94,8.57"/><path class="cls-3" d="M89.09,111.07a3.68,3.68,0,0,1-1.8-1.55,1.15,1.15,0,0,1-.12-.25,30,30,0,0,0-2.87.91,28.93,28.93,0,0,1-3.92,1.22,11.23,11.23,0,0,1-2.06.24,7.28,7.28,0,0,1-2-.21A6.2,6.2,0,0,1,73.57,110a3.22,3.22,0,0,1-.95-1.37h0A33.42,33.42,0,0,1,68.14,111a12.92,12.92,0,0,1-6.42,1.1A8.21,8.21,0,0,1,57.08,110a5.15,5.15,0,0,1-1.48-2.25,3.54,3.54,0,0,1-.09-.62,1.89,1.89,0,0,1,0-.24c-.64.06-1.29.12-2,.14a21,21,0,0,1-7-.94,14.89,14.89,0,0,1-5.74-3.33A9.52,9.52,0,0,1,39,100.45a7,7,0,0,1-.79-2.25,5.12,5.12,0,0,1,.2-2.74,2.87,2.87,0,0,1,.43-.72A21.05,21.05,0,0,1,35.37,92c-.36-.37-.73-.72-1-1.1s-.65-.75-.93-1.15-.57-.77-.82-1.16a13.07,13.07,0,0,1-.69-1.19,7.25,7.25,0,0,1-.79-2.44,4.53,4.53,0,0,1,.2-2.15,3.9,3.9,0,0,1,.81-1.37,2.51,2.51,0,0,1,.73-.56,1.65,1.65,0,0,1,.42-.13,21.38,21.38,0,0,1-1.66-2.06c-.15-.22-.31-.43-.45-.65s-.27-.45-.4-.67c-.28-.44-.5-.9-.73-1.34a11.11,11.11,0,0,1-1-2.75,5.3,5.3,0,0,1,.07-2.72,3.57,3.57,0,0,1,.56-1.12,3.9,3.9,0,0,1,.8-.74A3.29,3.29,0,0,1,32,68.09a2.84,2.84,0,0,1,.42,0l-.68-1c-.23-.33-.43-.69-.65-1.05-.11-.17-.22-.35-.32-.53l-.3-.56c-.2-.38-.41-.75-.59-1.15a21.25,21.25,0,0,1-1-2.47,12.61,12.61,0,0,1-.62-2.82,8.18,8.18,0,0,1,.26-3.12,6.67,6.67,0,0,1,1.72-2.85A5.36,5.36,0,0,1,33.37,51c-1,2.89-.19,6.25,1,9a45.15,45.15,0,0,0,2.93,5.6c1.15,2,2.38,3.88,3.69,5.73q2.22,3.17,4.73,6.11c.11.13,0,.38-.2.26a17.08,17.08,0,0,0-5-2.51,16.79,16.79,0,0,0-2.64-.58c-.83-.12-2-.27-2.45.66a3.14,3.14,0,0,0,.33,2.46,11.26,11.26,0,0,0,1.18,2,16.55,16.55,0,0,0,3.57,3.47,47.16,47.16,0,0,0,4.67,3,.17.17,0,0,1-.13.3,8.77,8.77,0,0,0-4.63-.6,3.19,3.19,0,0,0-2.49,2.55,2.88,2.88,0,0,0,.71,2A17.53,17.53,0,0,0,40,92a24.91,24.91,0,0,0,7.13,5.29.17.17,0,0,1-.13.3,1.24,1.24,0,0,0-1.43.65,1.76,1.76,0,0,0-.08,1.75,6.13,6.13,0,0,0,3.06,2.37,21.06,21.06,0,0,0,8.13,2.07,21.28,21.28,0,0,0,4.78-.31.16.16,0,0,1,.15.27c-.83.89-.13,2.26.79,2.75a7.67,7.67,0,0,0,3.95.41,41,41,0,0,0,8.45-1.32,40,40,0,0,0,4.53-1.5c.09,0,.2.06.2.16-.06,2.29,2.53,3.25,4.44,3.38,2.56.17,5-1.08,7.6-.66"/><path class="cls-4" d="M53.65,80.11a3.66,3.66,0,0,0-.19,1.31,6.77,6.77,0,0,0,.47,2.48c.08.24.2.47.31.72s.25.48.41.71a7.25,7.25,0,0,0,1.09,1.35,7.36,7.36,0,0,0,3.19,1.84,7.88,7.88,0,0,0,3.28.22,2.7,2.7,0,0,0-.26,1,5.31,5.31,0,0,0,.21,2.15,5.93,5.93,0,0,0,.22.63,5.33,5.33,0,0,0,.32.63,6.39,6.39,0,0,0,.91,1.21,5.71,5.71,0,0,0,2.8,1.55A6,6,0,0,0,68,96a2.69,2.69,0,0,0-.34,1.65,3.89,3.89,0,0,0,.49,1.58,3.85,3.85,0,0,0,1.29,1.34,3.93,3.93,0,0,0,1.65.59,3.21,3.21,0,0,0,1.37-.13,1,1,0,0,0,.63-.48c.06-.16,0-.31-.27-.46-.47-.29-1.16-.49-1.78-.87a3.82,3.82,0,0,1-.83-.64,3.1,3.1,0,0,1-.58-.78A9.28,9.28,0,0,1,69,96.28a1.28,1.28,0,0,0-.17-.33,5.41,5.41,0,0,0,.58-.12,5.32,5.32,0,0,0,2.09-1.08,2,2,0,0,0,.76-1.06c0-.23-.13-.3-.51-.22a11.55,11.55,0,0,1-3.43.64A5.77,5.77,0,0,1,67.22,94a4.67,4.67,0,0,1-1-.33,4.05,4.05,0,0,1-.91-.56,4.09,4.09,0,0,1-.76-.74A8.31,8.31,0,0,1,63,88.57a6.67,6.67,0,0,0,1.89-.8,2.8,2.8,0,0,0,1.07-1c.1-.25-.07-.34-.5-.28a15.52,15.52,0,0,1-4.18.47A7.91,7.91,0,0,1,60,86.7c-.22,0-.44-.13-.66-.2a6.11,6.11,0,0,1-.64-.26,6.34,6.34,0,0,1-1.17-.72,6.73,6.73,0,0,1-1-.93,8.41,8.41,0,0,1-1.32-2.12,13.32,13.32,0,0,1-.58-1.84,2.08,2.08,0,0,0-.35-1C54.1,79.53,53.9,79.63,53.65,80.11Zm2.46,12.22a4.79,4.79,0,0,0-.06,1.89A5.48,5.48,0,0,0,57,96.54a5.32,5.32,0,0,0,2.18,1.77,5.63,5.63,0,0,0,2.58.49,4.87,4.87,0,0,0,2-.52,1.75,1.75,0,0,0,.85-.77q.12-.3-.42-.36a13.44,13.44,0,0,1-3-.26,4.91,4.91,0,0,1-.89-.3,5,5,0,0,1-.81-.46,3.53,3.53,0,0,1-.68-.6,4.23,4.23,0,0,1-.54-.72,5.77,5.77,0,0,1-.65-1.54,11,11,0,0,1-.23-1.3,1.32,1.32,0,0,0-.22-.74c-.13-.12-.32-.1-.63.19A2.19,2.19,0,0,0,56.11,92.33ZM95.67,104.8a27.48,27.48,0,0,0-.94-8.57l-.15-.58-.18-.59L94,93.88c-.31-.78-.58-1.59-1-2.38s-.76-1.59-1.18-2.39-.9-1.59-1.43-2.36a31,31,0,0,0-8.24-8.4A46.72,46.72,0,0,0,70.8,72.92c-4-1.4-8.24-2.52-12.28-3.92A45.69,45.69,0,0,1,47.2,63.5a24.52,24.52,0,0,1-4.51-4c-.3-.38-.62-.76-.92-1.15s-.56-.8-.83-1.22c-.54-.84-1.07-1.74-1.7-2.61A10.15,10.15,0,0,0,37,52a6,6,0,0,0-1.64-.82,4.25,4.25,0,0,0-.93-.18,4.89,4.89,0,0,0-.94,0,5.42,5.42,0,0,0-3.21,1.55,6.67,6.67,0,0,0-1.72,2.85,8.18,8.18,0,0,0-.26,3.12,12.61,12.61,0,0,0,.62,2.82,21.25,21.25,0,0,0,1,2.47c.18.4.39.77.59,1.15l.3.56c.1.18.21.36.32.53.22.36.42.72.65,1.05l.68,1a2.84,2.84,0,0,0-.42,0,3.29,3.29,0,0,0-1.57.56,3.9,3.9,0,0,0-.8.74,3.57,3.57,0,0,0-.56,1.12A5.3,5.3,0,0,0,29,73.23,11.11,11.11,0,0,0,30,76c.23.44.45.9.73,1.34.13.22.27.44.4.67s.3.43.45.65a21.38,21.38,0,0,0,1.66,2.06,1.65,1.65,0,0,0-.42.13,2.51,2.51,0,0,0-.73.56,3.9,3.9,0,0,0-.81,1.37,4.53,4.53,0,0,0-.2,2.15,7.25,7.25,0,0,0,.79,2.44,13.07,13.07,0,0,0,.69,1.19c.25.39.54.77.82,1.16s.62.76.93,1.15.69.73,1,1.1a21.05,21.05,0,0,0,3.49,2.79,2.87,2.87,0,0,0-.43.72,5.12,5.12,0,0,0-.2,2.74,7,7,0,0,0,.79,2.25,9.52,9.52,0,0,0,1.75,2.28,14.89,14.89,0,0,0,5.74,3.33,21,21,0,0,0,7,.94c.67,0,1.32-.08,2-.14a1.89,1.89,0,0,0,0,.24,3.54,3.54,0,0,0,.09.62A5.15,5.15,0,0,0,57.08,110a8.21,8.21,0,0,0,4.64,2.12,12.92,12.92,0,0,0,6.42-1.1,33.42,33.42,0,0,0,4.48-2.35h0a3.22,3.22,0,0,0,.95,1.37,6.2,6.2,0,0,0,2.79,1.41,7.28,7.28,0,0,0,2,.21,11.23,11.23,0,0,0,2.06-.24,28.93,28.93,0,0,0,3.92-1.22,30,30,0,0,1,2.87-.91,1.15,1.15,0,0,0,.12.25,3.68,3.68,0,0,0,1.8,1.55M32,64.43a20.71,20.71,0,0,1-1.78-4.6A9,9,0,0,1,30,57.35a6.21,6.21,0,0,1,.2-1.22A4.52,4.52,0,0,1,30.64,55a4.45,4.45,0,0,1,1.68-1.71A3,3,0,0,1,34.57,53a4.39,4.39,0,0,1,2.07,1.34,15.39,15.39,0,0,1,1.69,2.32l.8,1.3c.26.44.59.89.89,1.33.08.11.15.23.23.33l.25.32.51.64c.33.43.72.81,1.08,1.22A28,28,0,0,0,47.17,66,42.23,42.23,0,0,0,53,69.05c2,.89,4.09,1.65,6.17,2.34s4.17,1.3,6.23,1.93a76.84,76.84,0,0,1,11.81,4.34,32.48,32.48,0,0,1,5.1,3.09A29.25,29.25,0,0,1,89.85,89c.23.39.49.75.68,1.15l.63,1.16c.37.78.75,1.55,1,2.34s.58,1.56.85,2.33.46,1.54.61,2.31a30,30,0,0,1,.66,4.41,12.58,12.58,0,0,1-.22,3.85,6.25,6.25,0,0,1-.6,1.54,5.06,5.06,0,0,1-.93,1.19,3.74,3.74,0,0,1-2.26,1.09,2.86,2.86,0,0,1-1.88-.53,3.1,3.1,0,0,1-.73-.71,10.4,10.4,0,0,1,2.55-.23c.68,0,1.16.1,1.42.07s.3-.21,0-.58a3.76,3.76,0,0,0-2-.93,9.24,9.24,0,0,0-3.42.07c-2.54.49-5.12,1.79-7.41,2.12a7.46,7.46,0,0,1-1.61.09,6.47,6.47,0,0,1-1.45-.23,5.71,5.71,0,0,1-1.17-.44,5.82,5.82,0,0,1-.84-.52c-.17-.13-.31-.24-.43-.35l.79-.47a25.76,25.76,0,0,1,5.34-2.63,11.69,11.69,0,0,1,4.38-.59,18.45,18.45,0,0,1,2.37.4c.4,0,.44-.13-.15-.65a5.08,5.08,0,0,0-1.3-.74,7.64,7.64,0,0,0-2.07-.46,12.24,12.24,0,0,0-5.55.9A38.64,38.64,0,0,0,71.3,107a27.58,27.58,0,0,1-5.72,2.78,11.41,11.41,0,0,1-2.79.53c-.22,0-.44,0-.66,0s-.42,0-.63,0a6,6,0,0,1-.61-.09c-.2,0-.39-.09-.58-.13a7.17,7.17,0,0,1-3.36-2,9.8,9.8,0,0,1-1-1.32,33.39,33.39,0,0,0,4.09-.78,44.58,44.58,0,0,0,4.85-1.56c2.52-1,3.53-1.63,1.91-1.52a29.56,29.56,0,0,0-3.58.61c-1.54.32-3.38.72-5.38,1a29.62,29.62,0,0,1-6.36.33,18.73,18.73,0,0,1-6.21-1.43,12,12,0,0,1-4.5-3.22,6.68,6.68,0,0,1-1.53-3.64,10.12,10.12,0,0,1,0-1.62c.36.22.73.43,1.1.63a22,22,0,0,0,5.47,2,19.14,19.14,0,0,0,4.58.45l.85-.06A6.22,6.22,0,0,0,52,98a4.22,4.22,0,0,0,.92-.25c.38-.16.27-.32-.44-.49-.35-.08-.8-.13-1.33-.24l-.85-.13-1-.18a30,30,0,0,1-4.55-1.26,24.42,24.42,0,0,1-4.94-2.5,22.37,22.37,0,0,1-4.3-3.65l-.46-.51c-.15-.16-.28-.34-.42-.52-.27-.34-.55-.68-.79-1a9.21,9.21,0,0,1-1.09-2,4.07,4.07,0,0,1-.27-1.75,3.4,3.4,0,0,1,.38-1.36,3.9,3.9,0,0,1,.77-1A20.82,20.82,0,0,0,36,83.26a21.28,21.28,0,0,0,5.25,2.94,19.49,19.49,0,0,0,4.61,1.13,16.14,16.14,0,0,0,1.62,0,6.61,6.61,0,0,0,1-.12c.41-.12.31-.3-.39-.55-.36-.13-.81-.24-1.33-.41l-.86-.25L45,85.74a27.58,27.58,0,0,1-4.46-1.94,23.72,23.72,0,0,1-4.61-3.34A21.36,21.36,0,0,1,32.22,76c-.25-.4-.46-.81-.69-1.2A9.55,9.55,0,0,1,31,73.61a5.61,5.61,0,0,1-.47-2.14,3.45,3.45,0,0,1,.14-.88A1.92,1.92,0,0,1,31,70a2.24,2.24,0,0,1,.53-.49,2.55,2.55,0,0,1,.56-.3,2.11,2.11,0,0,1,1.06-.11c.24.3.48.59.72.86.48.58,1,1.09,1.49,1.6.25.25.51.48.76.71a9.24,9.24,0,0,0,.75.67,26.66,26.66,0,0,0,5.59,3.69A20.78,20.78,0,0,0,46.21,78c.82.2,1.15.23.93.07a4.15,4.15,0,0,0-.76-.4l-1.59-.77a32.81,32.81,0,0,1-4.83-3,28.83,28.83,0,0,1-5.54-5.56A28.11,28.11,0,0,1,32,64.43Zm18.63,7A34.31,34.31,0,0,0,54,73.28c1.72.84,4,1.85,6.52,3s5.41,2.39,8.26,3.85a49,49,0,0,1,8.17,5.12,36.76,36.76,0,0,1,3.45,3.07c.52.55,1,1.07,1.49,1.62s.89,1.09,1.31,1.63a24.77,24.77,0,0,1,3.35,6l.23.63a3.63,3.63,0,0,1,.2.58c.12.38.22.73.32,1,.18.62.29,1.1.41,1.38.23.58.38.45.42-.7A11.67,11.67,0,0,0,88,98.32c-.08-.43-.2-.9-.31-1.4s-.32-1-.49-1.57a23.91,23.91,0,0,0-4.16-7,30.52,30.52,0,0,0-3.32-3.43c-.3-.28-.61-.55-.94-.81l-1-.79c-.67-.5-1.34-1-2-1.48s-1.42-.93-2.14-1.38-1.46-.84-2.2-1.23c-1.48-.79-3-1.51-4.45-2.16-2.94-1.32-5.78-2.4-8.26-3.36l-6.18-2.37a16.74,16.74,0,0,0-3-1C49.09,70.29,49.4,70.65,50.61,71.47Z"/><path class="cls-2" d="M8.53,48.16c-.11-.18-.22-.35-.32-.53l-.3-.56c-.2-.38-.41-.75-.58-1.15a21.27,21.27,0,0,1-1-2.47,13.18,13.18,0,0,1-.62-2.82,8.18,8.18,0,0,1,.26-3.12,6.77,6.77,0,0,1,1.72-2.85,5.42,5.42,0,0,1,3.21-1.55,4.3,4.3,0,0,1,1,0,5,5,0,0,1,.92.17,6.17,6.17,0,0,1,1.64.83,10.4,10.4,0,0,1,2.3,2.45c.62.87,1.15,1.77,1.69,2.61.27.42.55.81.83,1.21s.62.77.93,1.16a24.13,24.13,0,0,0,4.5,4A45.86,45.86,0,0,0,36,51.09c4,1.4,8.23,2.52,12.29,3.92a47.16,47.16,0,0,1,11.41,5.42,31.15,31.15,0,0,1,8.24,8.41c.53.77,1,1.58,1.44,2.36s.83,1.58,1.17,2.39.65,1.6,1,2.38l.38,1.18c.06.2.13.39.18.59l.15.58a27.16,27.16,0,0,1,.94,8.57,9,9,0,0,1-.91,3.46,6,6,0,0,1-2,2.24,5.38,5.38,0,0,1-1.12.57,4.73,4.73,0,0,1-1,.22,3.53,3.53,0,0,1-1.55-.22,3.68,3.68,0,0,1-1.8-1.55c0-.08-.08-.17-.12-.25a30,30,0,0,0-2.87.91,30.42,30.42,0,0,1-3.92,1.22,11.23,11.23,0,0,1-2.06.24,7.28,7.28,0,0,1-2-.21A6.3,6.3,0,0,1,51,92.11a3.22,3.22,0,0,1-1-1.37h0a33.3,33.3,0,0,1-4.47,2.35,13,13,0,0,1-6.43,1.1,8.25,8.25,0,0,1-4.64-2.12A5.25,5.25,0,0,1,33,89.81a4.73,4.73,0,0,1-.09-.63,1.77,1.77,0,0,1,0-.24c-.65.07-1.3.12-2,.14a20.78,20.78,0,0,1-7-.93,14.89,14.89,0,0,1-5.74-3.33,9.79,9.79,0,0,1-1.75-2.28,7.07,7.07,0,0,1-.79-2.25,5.27,5.27,0,0,1,.2-2.75,3,3,0,0,1,.43-.71A21.58,21.58,0,0,1,12.8,74c-.36-.37-.73-.72-1.05-1.11s-.65-.74-.93-1.14S10.25,71,10,70.63a13.07,13.07,0,0,1-.69-1.19A7.56,7.56,0,0,1,8.52,67a4.58,4.58,0,0,1,.2-2.16,4,4,0,0,1,.81-1.36,2.64,2.64,0,0,1,.73-.56,2.57,2.57,0,0,1,.42-.14A19.18,19.18,0,0,1,9,60.72c-.15-.21-.31-.42-.45-.65l-.4-.66a13.55,13.55,0,0,1-.72-1.35,10.49,10.49,0,0,1-1-2.75,5.38,5.38,0,0,1,.07-2.71,3.57,3.57,0,0,1,.56-1.12,3.9,3.9,0,0,1,.8-.74,3.33,3.33,0,0,1,1.57-.56,2.84,2.84,0,0,1,.42,0c-.22-.33-.45-.65-.68-1S8.75,48.51,8.53,48.16Z"/><path class="cls-3" d="M8.57,60.07l-.4-.66a13.55,13.55,0,0,1-.72-1.35,10.49,10.49,0,0,1-1-2.75,5.38,5.38,0,0,1,.07-2.71,3.57,3.57,0,0,1,.56-1.12,3.9,3.9,0,0,1,.8-.74,3.33,3.33,0,0,1,1.57-.56,2.84,2.84,0,0,1,.42,0c-.22-.33-.45-.65-.68-1s-.43-.7-.65-1.05c-.11-.18-.22-.35-.32-.53l-.3-.56c-.2-.38-.41-.75-.58-1.15a21.27,21.27,0,0,1-1-2.47,13.18,13.18,0,0,1-.62-2.82,8.18,8.18,0,0,1,.26-3.12,6.77,6.77,0,0,1,1.72-2.85,5.36,5.36,0,0,1,3.14-1.54c-1,2.89-.19,6.24,1,9a45.87,45.87,0,0,0,2.93,5.6q1.72,2.94,3.69,5.73,2.22,3.17,4.73,6.11c.11.13,0,.37-.19.26a17.25,17.25,0,0,0-5-2.51,18.18,18.18,0,0,0-2.63-.59c-.83-.11-2-.26-2.46.67a3.14,3.14,0,0,0,.33,2.46,11.26,11.26,0,0,0,1.18,2,16.5,16.5,0,0,0,3.57,3.46,47.25,47.25,0,0,0,4.67,3,.17.17,0,0,1-.13.3,8.68,8.68,0,0,0-4.63-.6,3.19,3.19,0,0,0-2.49,2.55,2.93,2.93,0,0,0,.71,2,16.18,16.18,0,0,0,1.37,1.61,24.67,24.67,0,0,0,7.12,5.29.17.17,0,0,1-.13.3,1.24,1.24,0,0,0-1.43.64,1.78,1.78,0,0,0-.08,1.76A6.13,6.13,0,0,0,26,84.49a21.09,21.09,0,0,0,12.91,1.76.16.16,0,0,1,.16.27c-.84.88-.14,2.26.78,2.75a7.67,7.67,0,0,0,4,.41,41.16,41.16,0,0,0,8.46-1.32,40.55,40.55,0,0,0,4.52-1.5.16.16,0,0,1,.2.16c-.06,2.29,2.53,3.25,4.44,3.38,2.56.17,5-1.08,7.6-.66a4.58,4.58,0,0,1,2.69,1.46,6,6,0,0,1-1.43,1.39,5.38,5.38,0,0,1-1.12.57,4.73,4.73,0,0,1-1,.22,3.53,3.53,0,0,1-1.55-.22,3.68,3.68,0,0,1-1.8-1.55c0-.08-.08-.17-.12-.25a30,30,0,0,0-2.87.91,30.42,30.42,0,0,1-3.92,1.22,11.23,11.23,0,0,1-2.06.24,7.28,7.28,0,0,1-2-.21A6.3,6.3,0,0,1,51,92.11a3.22,3.22,0,0,1-1-1.37h0a33.3,33.3,0,0,1-4.47,2.35,13,13,0,0,1-6.43,1.1,8.25,8.25,0,0,1-4.64-2.12A5.25,5.25,0,0,1,33,89.81a4.73,4.73,0,0,1-.09-.63,1.77,1.77,0,0,1,0-.24c-.65.07-1.3.12-2,.14a20.78,20.78,0,0,1-7-.93,14.89,14.89,0,0,1-5.74-3.33,9.79,9.79,0,0,1-1.75-2.28,7.07,7.07,0,0,1-.79-2.25,5.27,5.27,0,0,1,.2-2.75,3,3,0,0,1,.43-.71A21.58,21.58,0,0,1,12.8,74c-.36-.37-.73-.72-1.05-1.11s-.65-.74-.93-1.14S10.25,71,10,70.63a13.07,13.07,0,0,1-.69-1.19A7.56,7.56,0,0,1,8.52,67a4.58,4.58,0,0,1,.2-2.16,4,4,0,0,1,.81-1.36,2.64,2.64,0,0,1,.73-.56,2.57,2.57,0,0,1,.42-.14A19.18,19.18,0,0,1,9,60.72C8.87,60.51,8.71,60.3,8.57,60.07Z"/><path class="cls-3" d="M27.45,53.15c.17.33.35.66.55,1a21.21,21.21,0,0,0,6.32,6.3A55.61,55.61,0,0,0,43.13,65a70.86,70.86,0,0,1,9.28,4.6,38.15,38.15,0,0,1,7.18,5.87,37.6,37.6,0,0,1,5.57,7.45.18.18,0,0,0,.09.07.56.56,0,0,1,0,.12c.07.2.38.12.32-.08-.12-.36-.23-.72-.35-1.07a40.92,40.92,0,0,0-3.68-8.32,24,24,0,0,0-6.1-6.83,56.5,56.5,0,0,0-8.54-5c-3.14-1.6-6.33-3.11-9.55-4.56s-6.47-2.88-9.72-4.29A.16.16,0,0,0,27.45,53.15Z"/><path class="cls-3" d="M31.8,71.37a6,6,0,0,0,.7,1,6.4,6.4,0,0,1,.92,1.09c.43.77.5,1.69.9,2.48a5.37,5.37,0,0,0,3.74,2.84c.93.19,1.89.22,2.8.49a6.08,6.08,0,0,1,2.29,1.45,8,8,0,0,0,2.11,1.5,2.78,2.78,0,0,0,2.36,0c.17.2.34.4.52.59s.37-.08.23-.23a9.38,9.38,0,0,1-1.71-2.51,12,12,0,0,1-.53-1.41,1.55,1.55,0,0,0-.77-1,11.14,11.14,0,0,0-1.1-.4,8.06,8.06,0,0,1-1.06-.53,7.57,7.57,0,0,1-1.76-1.48,7.68,7.68,0,0,1-1.26-1.92A8.14,8.14,0,0,1,39.56,71a1.14,1.14,0,0,0-.53-.92,3,3,0,0,0-1.12-.22,8.07,8.07,0,0,1-2.35-.61,8.36,8.36,0,0,1-3.71-3.12c-.06-.09-.23-.11-.28,0A5.86,5.86,0,0,0,31.8,71.37Z"/><path class="cls-4" d="M31.09,62.2a3.37,3.37,0,0,0-.2,1.31A6.77,6.77,0,0,0,31.36,66c.08.24.2.47.31.72s.25.48.41.71a7.53,7.53,0,0,0,4.28,3.19,7.87,7.87,0,0,0,3.28.21,2.84,2.84,0,0,0-.26,1A5.32,5.32,0,0,0,39.59,74c0,.21.15.41.22.63s.19.42.32.63a6,6,0,0,0,.91,1.2A5.65,5.65,0,0,0,43.84,78a6,6,0,0,0,1.56.16,2.64,2.64,0,0,0-.33,1.65,3.72,3.72,0,0,0,.48,1.58,4,4,0,0,0,2.94,1.93,3,3,0,0,0,1.37-.14,1,1,0,0,0,.63-.47c.06-.16,0-.31-.27-.46-.47-.29-1.16-.49-1.78-.87a4.07,4.07,0,0,1-.83-.64,3.1,3.1,0,0,1-.58-.78,9.62,9.62,0,0,1-.61-1.56,1.28,1.28,0,0,0-.17-.33,5.41,5.41,0,0,0,.58-.12,5.32,5.32,0,0,0,2.09-1.08,2.08,2.08,0,0,0,.76-1.06c0-.23-.13-.3-.51-.22a11.55,11.55,0,0,1-3.43.64,5.67,5.67,0,0,1-1.08-.12,4.09,4.09,0,0,1-1-.34,3.57,3.57,0,0,1-.92-.55,4,4,0,0,1-.75-.74,8.24,8.24,0,0,1-1.5-3.79,6.67,6.67,0,0,0,1.89-.8,2.8,2.8,0,0,0,1.07-1c.1-.25-.07-.34-.5-.28a15.19,15.19,0,0,1-4.18.46,7.13,7.13,0,0,1-1.35-.21c-.22-.05-.44-.13-.66-.2a6.14,6.14,0,0,1-.64-.27,5.8,5.8,0,0,1-1.17-.71,6.19,6.19,0,0,1-1-.93,7.87,7.87,0,0,1-1.32-2.12A12.63,12.63,0,0,1,32,62.72a2,2,0,0,0-.35-1C31.53,61.62,31.34,61.72,31.09,62.2Zm2.45,12.22a4.79,4.79,0,0,0-.06,1.89,5.48,5.48,0,0,0,.94,2.32A5.32,5.32,0,0,0,36.6,80.4a5.63,5.63,0,0,0,2.58.49,4.87,4.87,0,0,0,2-.52A1.84,1.84,0,0,0,42,79.6c.07-.21-.07-.32-.42-.36a14.14,14.14,0,0,1-3-.26,4.57,4.57,0,0,1-.88-.3,4.68,4.68,0,0,1-.82-.46,3.9,3.9,0,0,1-.68-.6,4.23,4.23,0,0,1-.54-.72A5.77,5.77,0,0,1,35,75.36a11,11,0,0,1-.23-1.3,1.29,1.29,0,0,0-.22-.74c-.13-.12-.32-.1-.62.19A2,2,0,0,0,33.54,74.42ZM9.18,49.21c.23.33.46.65.68,1a2.84,2.84,0,0,0-.42,0,3.33,3.33,0,0,0-1.57.56,3.9,3.9,0,0,0-.8.74,3.57,3.57,0,0,0-.56,1.12,5.38,5.38,0,0,0-.07,2.71,10.49,10.49,0,0,0,1,2.75,13.55,13.55,0,0,0,.72,1.35l.4.66c.14.23.3.44.45.65a19.18,19.18,0,0,0,1.66,2.06,2.57,2.57,0,0,0-.42.14,2.64,2.64,0,0,0-.73.56,4,4,0,0,0-.81,1.36A4.58,4.58,0,0,0,8.52,67a7.56,7.56,0,0,0,.79,2.44A13.07,13.07,0,0,0,10,70.63c.25.39.54.76.82,1.16s.62.76.93,1.14.69.74,1.05,1.11a21.58,21.58,0,0,0,3.49,2.79,3,3,0,0,0-.43.71,5.27,5.27,0,0,0-.2,2.75,7.07,7.07,0,0,0,.79,2.25,9.79,9.79,0,0,0,1.75,2.28,14.89,14.89,0,0,0,5.74,3.33,20.78,20.78,0,0,0,7,.93c.67,0,1.32-.07,2-.14a1.77,1.77,0,0,0,0,.24,4.73,4.73,0,0,0,.09.63,5.25,5.25,0,0,0,1.48,2.25,8.25,8.25,0,0,0,4.64,2.12,13,13,0,0,0,6.43-1.1,33.3,33.3,0,0,0,4.47-2.35h0a3.22,3.22,0,0,0,1,1.37,6.3,6.3,0,0,0,2.79,1.41,7.28,7.28,0,0,0,2,.21,11.23,11.23,0,0,0,2.06-.24,30.42,30.42,0,0,0,3.92-1.22,30,30,0,0,1,2.87-.91c0,.08.07.17.12.25a3.68,3.68,0,0,0,1.8,1.55,3.53,3.53,0,0,0,1.55.22,4.73,4.73,0,0,0,1-.22,5.38,5.38,0,0,0,1.12-.57,6,6,0,0,0,2-2.24,9,9,0,0,0,.91-3.46,27.16,27.16,0,0,0-.94-8.57L72,77.74c-.05-.2-.12-.39-.18-.59L71.45,76c-.3-.78-.58-1.59-1-2.38S69.74,72,69.33,71.2s-.91-1.59-1.44-2.36a31.15,31.15,0,0,0-8.24-8.41A47.16,47.16,0,0,0,48.24,55C44.18,53.61,40,52.49,36,51.09a45.86,45.86,0,0,1-11.32-5.5,24.13,24.13,0,0,1-4.5-4c-.31-.39-.63-.76-.93-1.16s-.56-.79-.83-1.21c-.54-.84-1.07-1.74-1.69-2.61a10.4,10.4,0,0,0-2.3-2.45,6.17,6.17,0,0,0-1.64-.83,5,5,0,0,0-.92-.17,4.3,4.3,0,0,0-1,0,5.42,5.42,0,0,0-3.21,1.55,6.77,6.77,0,0,0-1.72,2.85,8.18,8.18,0,0,0-.26,3.12,13.18,13.18,0,0,0,.62,2.82,21.27,21.27,0,0,0,1,2.47c.17.4.38.77.58,1.15l.3.56c.1.18.21.35.32.53C8.75,48.51,9,48.88,9.18,49.21Zm.23-2.69a20.71,20.71,0,0,1-1.78-4.6,9.07,9.07,0,0,1-.23-2.48,6.21,6.21,0,0,1,.2-1.22,4.37,4.37,0,0,1,.47-1.12,4.58,4.58,0,0,1,1.69-1.72,3,3,0,0,1,2.24-.3,4.31,4.31,0,0,1,2.07,1.34,15.81,15.81,0,0,1,1.69,2.31l.8,1.31c.27.44.59.88.89,1.33l.23.33.25.32.51.64c.33.42.72.81,1.08,1.22A27.5,27.5,0,0,0,24.6,48a41.23,41.23,0,0,0,5.83,3.11c2,.89,4.09,1.65,6.17,2.34s4.17,1.3,6.23,1.92a77.92,77.92,0,0,1,11.81,4.35,32,32,0,0,1,5.1,3.09A29.08,29.08,0,0,1,64,66.7a30.33,30.33,0,0,1,3.3,4.41c.22.39.48.75.68,1.15l.62,1.15c.37.79.75,1.56,1,2.35s.58,1.56.85,2.33.46,1.54.61,2.31a29.81,29.81,0,0,1,.66,4.41,12.27,12.27,0,0,1-.22,3.85,6.25,6.25,0,0,1-.6,1.54A5.3,5.3,0,0,1,70,91.39a3.79,3.79,0,0,1-2.27,1.09A2.92,2.92,0,0,1,65.87,92a3.3,3.3,0,0,1-.73-.71A10.48,10.48,0,0,1,67.69,91a13,13,0,0,0,1.42.07c.25,0,.3-.21,0-.57a3.76,3.76,0,0,0-2-.93,9.24,9.24,0,0,0-3.42.07c-2.54.49-5.12,1.79-7.41,2.12a7.46,7.46,0,0,1-1.61.09,7.1,7.1,0,0,1-1.45-.23A6,6,0,0,1,52,91.18a7.55,7.55,0,0,1-.85-.52c-.17-.13-.3-.24-.42-.35l.79-.48a26.74,26.74,0,0,1,5.33-2.63,11.66,11.66,0,0,1,4.38-.58,16.78,16.78,0,0,1,2.37.4c.4,0,.44-.14-.15-.65a4.91,4.91,0,0,0-1.3-.74,7.64,7.64,0,0,0-2.07-.46,12.24,12.24,0,0,0-5.55.9,38.64,38.64,0,0,0-5.82,3.06A27.58,27.58,0,0,1,43,91.91a11.91,11.91,0,0,1-2.79.53c-.22,0-.44,0-.66,0s-.42,0-.63,0a6,6,0,0,1-.61-.09,5.45,5.45,0,0,1-.58-.14,7.08,7.08,0,0,1-3.36-2,9.8,9.8,0,0,1-1-1.32,33.39,33.39,0,0,0,4.09-.78,43.87,43.87,0,0,0,4.85-1.56c2.52-1,3.53-1.63,1.92-1.52a28.06,28.06,0,0,0-3.59.61c-1.54.32-3.38.72-5.38,1a29,29,0,0,1-6.36.34,18.62,18.62,0,0,1-6.2-1.43,11.9,11.9,0,0,1-4.5-3.22,6.7,6.7,0,0,1-1.54-3.64,10.09,10.09,0,0,1,0-1.62c.37.22.73.43,1.11.63a22.15,22.15,0,0,0,5.46,2,19.14,19.14,0,0,0,4.58.45l.86-.06a6.32,6.32,0,0,0,.7-.09,5,5,0,0,0,.93-.25c.37-.16.26-.33-.45-.49-.35-.09-.8-.14-1.33-.24C28.3,79,28,79,27.71,79l-.95-.19a29,29,0,0,1-4.55-1.25A24.68,24.68,0,0,1,17.27,75,23.05,23.05,0,0,1,13,71.36l-.46-.51-.42-.52c-.27-.34-.55-.68-.79-1a9.09,9.09,0,0,1-1.08-2,4,4,0,0,1-.28-1.75,3.57,3.57,0,0,1,.38-1.36,3.72,3.72,0,0,1,.77-1,20.73,20.73,0,0,0,2.38,2.12,21,21,0,0,0,5.25,3,18.94,18.94,0,0,0,4.61,1.12,13.89,13.89,0,0,0,1.62.06,5.29,5.29,0,0,0,1-.13c.41-.11.31-.29-.39-.54-.35-.13-.81-.24-1.33-.41l-.85-.25-.95-.31A27.13,27.13,0,0,1,18,65.89a23.89,23.89,0,0,1-4.62-3.34,21.36,21.36,0,0,1-3.69-4.47c-.25-.4-.46-.81-.69-1.2a9.55,9.55,0,0,1-.55-1.18A5.44,5.44,0,0,1,8,53.56a3,3,0,0,1,.13-.88A2,2,0,0,1,8.43,52,2.45,2.45,0,0,1,9,51.55a2.55,2.55,0,0,1,.56-.3,2.16,2.16,0,0,1,1.07-.12q.35.45.72.87c.47.58,1,1.09,1.48,1.6.25.25.51.48.76.71a9.24,9.24,0,0,0,.75.67,26.66,26.66,0,0,0,5.59,3.69,20.78,20.78,0,0,0,3.75,1.44c.82.2,1.15.23.93.06a6.46,6.46,0,0,0-.75-.4c-.4-.17-.93-.44-1.6-.77a31.81,31.81,0,0,1-4.83-3,28.83,28.83,0,0,1-5.54-5.56A28.11,28.11,0,0,1,9.41,46.52Zm18.63,7c.48.31,1.66,1,3.38,1.81s4,1.85,6.51,3,5.41,2.39,8.26,3.85a49,49,0,0,1,8.17,5.12,36.9,36.9,0,0,1,3.46,3.07c.51.55,1,1.07,1.48,1.62s.9,1.09,1.31,1.63a24.44,24.44,0,0,1,3.35,6l.23.63a5.12,5.12,0,0,1,.21.58c.11.38.21.73.31,1,.18.62.29,1.09.41,1.38.23.58.38.45.42-.7a11.67,11.67,0,0,0-.16-2.19c-.08-.43-.19-.9-.31-1.4s-.32-1-.49-1.57a24.08,24.08,0,0,0-4.15-7A31.54,31.54,0,0,0,57.1,67c-.3-.28-.61-.56-.93-.81l-1-.79c-.67-.5-1.34-1-2.05-1.49S51.73,63,51,62.52s-1.46-.84-2.2-1.23c-1.48-.79-3-1.51-4.45-2.16-2.94-1.32-5.78-2.41-8.25-3.36L29.92,53.4a16.48,16.48,0,0,0-3-1C26.52,52.38,26.83,52.74,28,53.56Z"/><path class="cls-4" d="M78.67,119.07a3.24,3.24,0,0,1-1.77-.56c-12.16-8-20.35-15.34-26.54-23.91-3.22-4.46-6.7-9.92-8.07-16.54-2.07-10,2.12-22.21,14.15-26A17.89,17.89,0,0,1,62,51.17a19.64,19.64,0,0,1,16.74,9.3c3.48-5.91,9.06-9,16.61-9.24h.54c8.19,0,15.58,5.61,18.38,14,2.32,6.92,1.58,13.91-2.26,21.34A71.29,71.29,0,0,1,93.1,109.19c-2.77,2.26-5.7,4.35-8.55,6.37-1.25.9-2.5,1.79-3.75,2.7A3.57,3.57,0,0,1,78.67,119.07Z"/><path class="cls-5" d="M78.7,64.76c3-7.82,8.8-11.43,16.67-11.67,7.62-.23,14.54,5.07,17.09,12.68,2.33,7,1.16,13.5-2.14,19.9a70.19,70.19,0,0,1-18.4,22.08c-3.91,3.19-8.13,6-12.22,9-.54.4-1,.69-1.77.2C68,110.47,58.87,103.19,51.88,93.51c-3.48-4.82-6.54-9.91-7.76-15.82-1.9-9.19,2-20.43,12.88-23.9,8.08-2.57,17.58,1.61,21,9.35C78.18,63.61,78.39,64.08,78.7,64.76Z"/><path class="cls-6" d="M69.89,35.83a.35.35,0,0,0,0,.7A.35.35,0,0,0,69.89,35.83Z"/><path class="cls-6" d="M84.52,35.83a.35.35,0,0,0,0,.7A.35.35,0,0,0,84.52,35.83Z"/><path class="cls-7" d="M78.84,39c-13,0-23.56,2.14-23.56,4.77S65.83,48.5,78.84,48.5s23.56-2.14,23.56-4.78S91.85,39,78.84,39Zm0,8c-11.3,0-20.47-1.5-20.47-3.36s9.17-3.37,20.47-3.37,20.47,1.51,20.47,3.37S90.14,46.93,78.84,46.93Z"/><path class="cls-7" d="M78.84,38c-13,0-23.56,2.13-23.56,4.77s10.55,4.77,23.56,4.77,23.56-2.13,23.56-4.77S91.85,38,78.84,38Zm0,8c-11.3,0-20.47-1.51-20.47-3.36s9.17-3.37,20.47-3.37,20.47,1.51,20.47,3.37S90.14,46,78.84,46Z"/><g class="cls-8"><path class="cls-7" d="M61.29,40.91c-1.31,0-2.59-.06-3.82-.12a4.39,4.39,0,0,0-2,1.43c1,.07,2,.13,3,.17C58.68,41.85,59.69,41.35,61.29,40.91Z"/><path class="cls-7" d="M80.84,39.3c1.52,0,3,.07,4.4.15a3.51,3.51,0,0,0,1.43-1.15c-1-.08-2.1-.14-3.19-.18A6.61,6.61,0,0,1,80.84,39.3Z"/></g><g class="cls-8"><path class="cls-7" d="M99.31,42.65s0,0,0,.06c1,0,2,0,3.08,0a2,2,0,0,0-1-1.25c-1.12,0-2.22,0-3.3.08C98.88,41.86,99.31,42.24,99.31,42.65Z"/><path class="cls-7" d="M82.08,46s0,0,0-.06c-1,0-2,0-3.07,0a1.13,1.13,0,0,0,0,.18c0,.48.36.94,1,1.38,1.37,0,2.71,0,4-.11C82.77,47,82.08,46.54,82.08,46Z"/></g><path class="cls-9" d="M78.84,39.28c-11.3,0-20.47,1.51-20.47,3.37a.72.72,0,0,0,.2.46c1.37-1.64,9.92-2.91,20.27-2.91s18.9,1.27,20.27,2.91a.72.72,0,0,0,.2-.46C99.31,40.79,90.14,39.28,78.84,39.28Z"/><path class="cls-9" d="M78.84,47.57c-12.24,0-22.3-1.89-23.44-4.31a1,1,0,0,0-.12.46c0,2.64,10.55,4.78,23.56,4.78s23.56-2.14,23.56-4.78a1.11,1.11,0,0,0-.11-.46C101.14,45.68,91.08,47.57,78.84,47.57Z"/><path class="cls-10" d="M68.51,39a36.55,36.55,0,0,0-5.52.6c-.22,0-.12.38.1.34a34,34,0,0,1,5.42-.59C68.73,39.36,68.73,39,68.51,39Z"/><path class="cls-11" d="M75,46.51l-7.08-.33c-.22,0-.22.34,0,.35l7.08.33C75.2,46.87,75.2,46.52,75,46.51Z"/><path class="cls-11" d="M75.82,46.4a.18.18,0,0,0,0,.35A.18.18,0,0,0,75.82,46.4Z"/><path class="cls-11" d="M77.37,46.51a.13.13,0,0,0,0-.06l0,0-.08,0h0l-.08.05-.07.08a.1.1,0,0,0,0,0,.25.25,0,0,0,0,.14.1.1,0,0,0,0,.05l0,0a.15.15,0,0,0,.09,0h.05l.07,0,.08-.07,0-.06a.15.15,0,0,0,0-.07A.13.13,0,0,0,77.37,46.51Z"/><path class="cls-11" d="M96.41,45.26l-4.32.67c-.22,0-.12.37.09.33l4.32-.67C96.72,45.56,96.63,45.23,96.41,45.26Z"/><path class="cls-11" d="M97.67,40.33a42.53,42.53,0,0,0-4.34-1c-.21,0-.31.3-.09.34,1.46.25,2.91.57,4.34,1A.17.17,0,1,0,97.67,40.33Z"/><path class="cls-6" d="M67.58,36.89a.52.52,0,0,0,0,1A.52.52,0,0,0,67.58,36.89Z"/><path class="cls-6" d="M66,37.22a.35.35,0,0,0,0,.69A.35.35,0,0,0,66,37.22Z"/><path class="cls-6" d="M58.5,47.34a.35.35,0,0,0,0,.7A.35.35,0,0,0,58.5,47.34Z"/><path class="cls-6" d="M63.12,43.38a.35.35,0,0,0,0,.69A.35.35,0,0,0,63.12,43.38Z"/><path class="cls-6" d="M57,47.53a.35.35,0,0,0,0,.7A.35.35,0,0,0,57,47.53Z"/><path class="cls-6" d="M55.91,40.86a.38.38,0,0,0-.09-.15l-.07-.06a.34.34,0,0,0-.18,0h-.15a.15.15,0,0,0-.13,0,.21.21,0,0,0-.12.07.41.41,0,0,0-.07.11.28.28,0,0,0,0,.13v.1a.46.46,0,0,0,.09.15l.07,0a.41.41,0,0,0,.18,0h.15a.32.32,0,0,0,.14,0,.3.3,0,0,0,.18-.18.32.32,0,0,0,0-.14Z"/><path class="cls-6" d="M52.65,43.34a.35.35,0,0,0,0,.69A.35.35,0,0,0,52.65,43.34Z"/><path class="cls-6" d="M92.22,48.61a.35.35,0,0,0,0,.7A.35.35,0,0,0,92.22,48.61Z"/><path class="cls-6" d="M102.69,45.38a.35.35,0,0,0,0,.69A.35.35,0,0,0,102.69,45.38Z"/><path class="cls-6" d="M104.69,43.38a.35.35,0,0,0,0,.69A.35.35,0,0,0,104.69,43.38Z"/><path class="cls-6" d="M103.44,42v.09a.18.18,0,0,0,.35,0V42A.18.18,0,0,0,103.44,42Z"/><path class="cls-6" d="M101.61,39.51a.52.52,0,0,0,0,1A.52.52,0,0,0,101.61,39.51Z"/><path class="cls-6" d="M96.68,42.78a.18.18,0,0,0,0,.35A.18.18,0,0,0,96.68,42.78Z"/><path class="cls-6" d="M95.91,37.06a.35.35,0,0,0,0,.7A.35.35,0,0,0,95.91,37.06Z"/><path class="cls-6" d="M90.37,36.91a.35.35,0,0,0,0,.69A.35.35,0,0,0,90.37,36.91Z"/><path class="cls-6" d="M82.06,49.84a.35.35,0,0,0,0,.7A.35.35,0,0,0,82.06,49.84Z"/><path class="cls-6" d="M73.28,50.31a.35.35,0,0,0,0,.69A.35.35,0,0,0,73.28,50.31Z"/><path class="cls-6" d="M92.06,49.73H92a.35.35,0,0,0,0,.69h.08A.35.35,0,0,0,92.06,49.73Z"/><path class="cls-4" d="M81.62,63.29s4.2-8.6,11.67-8.68A26.93,26.93,0,0,0,81.62,63.29Z"/></g></g></svg>