<svg xmlns="http://www.w3.org/2000/svg" xmlns:xlink="http://www.w3.org/1999/xlink" viewBox="0 0 156.85 163.56"><defs><style>.cls-1{isolation:isolate;}.cls-10,.cls-2{fill:#f9df5a;}.cls-3{fill:#fff;}.cls-4{fill:#d2978d;}.cls-5{fill:#c08a81;}.cls-6{fill:url(#Dégradé_sans_nom_162);}.cls-11,.cls-7{fill:#fff3c2;}.cls-10,.cls-11,.cls-8{mix-blend-mode:screen;}.cls-9{fill:#eac733;}</style><linearGradient id="Dégradé_sans_nom_162" x1="46.33" y1="84.89" x2="113.39" y2="84.89" gradientUnits="userSpaceOnUse"><stop offset="0" stop-color="#c08a81"/><stop offset="1" stop-color="#d4958d"/></linearGradient></defs><g class="cls-1"><g id="Calque_1" data-name="Calque 1"><polygon class="cls-2" points="73.01 86.1 73.01 118.86 90.52 124.92 108.11 118.86 108.11 86.1 73.01 86.1"/><path class="cls-3" d="M90.2,126.7a1.69,1.69,0,0,1-.58-.1l-17.51-6a1.79,1.79,0,0,1-1.2-1.69V86.1a1.79,1.79,0,0,1,1.78-1.79H107.8a1.79,1.79,0,0,1,1.79,1.79v32.76a1.79,1.79,0,0,1-1.21,1.69l-17.6,6.06A1.85,1.85,0,0,1,90.2,126.7Z"/><polygon class="cls-2" points="72.69 86.1 72.69 118.86 90.2 124.92 107.8 118.86 107.8 86.1 72.69 86.1"/><polygon class="cls-2" points="52.08 86.03 52.08 118.79 69.59 124.85 87.19 118.79 87.19 86.03 52.08 86.03"/><path class="cls-3" d="M69.28,126.63a1.65,1.65,0,0,1-.58-.1l-17.51-6A1.8,1.8,0,0,1,50,118.79V86a1.79,1.79,0,0,1,1.79-1.79H86.88A1.79,1.79,0,0,1,88.66,86v32.76a1.78,1.78,0,0,1-1.2,1.69l-17.6,6.06A1.9,1.9,0,0,1,69.28,126.63Z"/><polygon class="cls-2" points="51.77 86.03 51.77 118.79 69.28 124.85 86.88 118.79 86.88 86.03 51.77 86.03"/><polygon class="cls-2" points="62.62 98 62.62 130.77 80.13 136.82 97.73 130.77 97.73 98 62.62 98"/><path class="cls-3" d="M79.82,138.61a2,2,0,0,1-.59-.1l-17.51-6.06a1.77,1.77,0,0,1-1.2-1.68V98a1.79,1.79,0,0,1,1.79-1.79h35.1A1.79,1.79,0,0,1,99.2,98v32.77A1.8,1.8,0,0,1,98,132.46l-17.59,6A2,2,0,0,1,79.82,138.61Z"/><polygon class="cls-2" points="62.31 98 62.31 130.77 79.82 136.82 97.41 130.77 97.41 98 62.31 98"/><path class="cls-4" d="M125,66.77c.1-.17.21-.34.3-.52l.29-.53c.19-.36.39-.72.56-1.1a22.14,22.14,0,0,0,1-2.37,12.72,12.72,0,0,0,.6-2.69,8.1,8.1,0,0,0-.25-3,6.42,6.42,0,0,0-1.65-2.73,5.14,5.14,0,0,0-3.07-1.49,4.58,4.58,0,0,0-.91,0,4.41,4.41,0,0,0-.88.17,5.57,5.57,0,0,0-1.58.79,9.88,9.88,0,0,0-2.2,2.34c-.59.84-1.1,1.7-1.62,2.51-.26.39-.53.77-.8,1.16s-.59.73-.88,1.11a23.88,23.88,0,0,1-4.32,3.86,43.73,43.73,0,0,1-10.84,5.26C94.87,70.91,90.86,72,87,73.33a45.05,45.05,0,0,0-10.93,5.19,29.43,29.43,0,0,0-7.9,8c-.51.74-.94,1.51-1.37,2.26s-.8,1.52-1.12,2.29-.63,1.53-.92,2.28l-.36,1.13c-.06.19-.12.38-.17.56l-.15.56a26.28,26.28,0,0,0-.9,8.21,8.6,8.6,0,0,0,.87,3.31,5.89,5.89,0,0,0,1.88,2.15,4.68,4.68,0,0,0,1.07.54,4.41,4.41,0,0,0,1,.22,3.23,3.23,0,0,0,1.48-.22,3.43,3.43,0,0,0,1.73-1.48,2.56,2.56,0,0,0,.11-.24,24.62,24.62,0,0,1,2.75.88,28,28,0,0,0,3.76,1.16,10.27,10.27,0,0,0,2,.23,7,7,0,0,0,1.87-.2,6.07,6.07,0,0,0,2.68-1.35,3.07,3.07,0,0,0,.9-1.31h0a33.45,33.45,0,0,0,4.28,2.25,12.44,12.44,0,0,0,6.16,1,7.84,7.84,0,0,0,4.44-2,4.88,4.88,0,0,0,1.42-2.15,4.39,4.39,0,0,0,.09-.6,1.55,1.55,0,0,0,0-.23c.62.06,1.25.11,1.89.13a19.77,19.77,0,0,0,6.74-.89,14.29,14.29,0,0,0,5.49-3.19,9,9,0,0,0,1.68-2.19,6.84,6.84,0,0,0,.76-2.16,4.9,4.9,0,0,0-.2-2.62,2.7,2.7,0,0,0-.41-.69,20.25,20.25,0,0,0,3.35-2.67c.34-.35.69-.69,1-1.06s.62-.71.89-1.09.54-.74.79-1.11.46-.76.66-1.15a7.31,7.31,0,0,0,.76-2.33,4.4,4.4,0,0,0-.2-2.06,3.66,3.66,0,0,0-.78-1.31,2.36,2.36,0,0,0-.69-.54,3.05,3.05,0,0,0-.4-.13,21.08,21.08,0,0,0,1.59-2c.14-.21.3-.41.42-.62l.39-.64a12.39,12.39,0,0,0,.69-1.29,10.45,10.45,0,0,0,1-2.63,5.17,5.17,0,0,0-.07-2.6A3.27,3.27,0,0,0,126.4,70a3.35,3.35,0,0,0-.76-.71,3.16,3.16,0,0,0-1.5-.54,2.66,2.66,0,0,0-.41,0l.65-.94C124.61,67.45,124.79,67.1,125,66.77Z"/><path class="cls-5" d="M125,78.18l.39-.64a12.39,12.39,0,0,0,.69-1.29,10.45,10.45,0,0,0,1-2.63,5.17,5.17,0,0,0-.07-2.6A3.27,3.27,0,0,0,126.4,70a3.35,3.35,0,0,0-.76-.71,3.16,3.16,0,0,0-1.5-.54,2.66,2.66,0,0,0-.41,0l.65-.94c.23-.32.41-.67.63-1,.1-.17.21-.34.3-.52l.29-.53c.19-.36.39-.72.56-1.1a22.14,22.14,0,0,0,1-2.37,12.72,12.72,0,0,0,.6-2.69,8.1,8.1,0,0,0-.25-3,6.42,6.42,0,0,0-1.65-2.73,5.16,5.16,0,0,0-3-1.48c1,2.77.18,6-.93,8.65a45.69,45.69,0,0,1-2.81,5.37q-1.66,2.81-3.54,5.48-2.13,3-4.53,5.86c-.11.12,0,.35.19.24a16.37,16.37,0,0,1,4.8-2.4,15.43,15.43,0,0,1,2.53-.56c.79-.11,1.94-.25,2.35.63a3,3,0,0,1-.32,2.36,10.7,10.7,0,0,1-1.13,1.93A15.8,15.8,0,0,1,116,83.23a44.36,44.36,0,0,1-4.47,2.84.16.16,0,0,0,.12.29,8.46,8.46,0,0,1,4.44-.57,3.05,3.05,0,0,1,2.38,2.43,2.79,2.79,0,0,1-.68,1.88,15.91,15.91,0,0,1-1.31,1.54,23.55,23.55,0,0,1-3,2.72,24.86,24.86,0,0,1-3.81,2.35.15.15,0,0,0,.12.28,1.2,1.2,0,0,1,1.38.62,1.71,1.71,0,0,1,.07,1.68,5.87,5.87,0,0,1-2.93,2.27A20.29,20.29,0,0,1,96,103.25a.16.16,0,0,0-.15.26c.79.84.12,2.16-.76,2.63a7.33,7.33,0,0,1-3.78.39,38.39,38.39,0,0,1-8.1-1.27,39.17,39.17,0,0,1-4.33-1.43.15.15,0,0,0-.19.15c.06,2.2-2.43,3.12-4.25,3.24-2.45.16-4.81-1-7.29-.63A4.4,4.4,0,0,0,64.54,108a5.77,5.77,0,0,0,1.37,1.34,4.68,4.68,0,0,0,1.07.54,4.41,4.41,0,0,0,1,.22,3.23,3.23,0,0,0,1.48-.22,3.43,3.43,0,0,0,1.73-1.48,2.56,2.56,0,0,0,.11-.24,24.62,24.62,0,0,1,2.75.88,28,28,0,0,0,3.76,1.16,10.27,10.27,0,0,0,2,.23,7,7,0,0,0,1.87-.2,6.07,6.07,0,0,0,2.68-1.35,3.07,3.07,0,0,0,.9-1.31h0a33.45,33.45,0,0,0,4.28,2.25,12.44,12.44,0,0,0,6.16,1,7.84,7.84,0,0,0,4.44-2,4.88,4.88,0,0,0,1.42-2.15,4.39,4.39,0,0,0,.09-.6,1.55,1.55,0,0,0,0-.23c.62.06,1.25.11,1.89.13a19.77,19.77,0,0,0,6.74-.89,14.29,14.29,0,0,0,5.49-3.19,9,9,0,0,0,1.68-2.19,6.84,6.84,0,0,0,.76-2.16,4.9,4.9,0,0,0-.2-2.62,2.7,2.7,0,0,0-.41-.69,20.25,20.25,0,0,0,3.35-2.67c.34-.35.69-.69,1-1.06s.62-.71.89-1.09.54-.74.79-1.11.46-.76.66-1.15a7.31,7.31,0,0,0,.76-2.33,4.4,4.4,0,0,0-.2-2.06,3.66,3.66,0,0,0-.78-1.31,2.36,2.36,0,0,0-.69-.54,3.05,3.05,0,0,0-.4-.13,21.08,21.08,0,0,0,1.59-2C124.68,78.59,124.84,78.39,125,78.18Z"/><path class="cls-3" d="M102.84,79.78a2,2,0,0,0-.33.93,12.28,12.28,0,0,1-.56,1.76,8,8,0,0,1-1.27,2,5.3,5.3,0,0,1-.94.89,5.81,5.81,0,0,1-1.12.69c-.2.1-.41.17-.61.26s-.42.14-.64.18a6.43,6.43,0,0,1-1.29.21,14.38,14.38,0,0,1-4-.45c-.42,0-.57,0-.48.27a2.69,2.69,0,0,0,1,1,6.79,6.79,0,0,0,1.81.77A7.88,7.88,0,0,1,93,92a4.4,4.4,0,0,1-.72.71,4.12,4.12,0,0,1-.88.53,4.77,4.77,0,0,1-1,.32,6.23,6.23,0,0,1-1,.11A11.47,11.47,0,0,1,86.08,93c-.36-.08-.53,0-.49.21a2,2,0,0,0,.73,1,5,5,0,0,0,2,1c.17,0,.36.08.55.12a.82.82,0,0,0-.16.31,9.09,9.09,0,0,1-.59,1.49,3.37,3.37,0,0,1-.55.75,4.49,4.49,0,0,1-.8.62c-.59.36-1.25.55-1.7.83-.23.14-.32.28-.26.44a.91.91,0,0,0,.6.45,3,3,0,0,0,1.31.13,3.86,3.86,0,0,0,1.58-.56,3.73,3.73,0,0,0,1.24-1.29A3.68,3.68,0,0,0,90,97.05a2.51,2.51,0,0,0-.32-1.58,6,6,0,0,0,1.5-.15,5.49,5.49,0,0,0,2.68-1.49,6,6,0,0,0,.87-1.16,4.8,4.8,0,0,0,.3-.6,5.51,5.51,0,0,0,.22-.6,5.41,5.41,0,0,0,.2-2.06,2.91,2.91,0,0,0-.25-.94,7.53,7.53,0,0,0,3.14-.2,7.11,7.11,0,0,0,4.1-3.06,5.91,5.91,0,0,0,.39-.68c.11-.24.22-.46.3-.68a6.68,6.68,0,0,0,.45-2.38,3.45,3.45,0,0,0-.19-1.26C103.16,79.76,103,79.66,102.84,79.78ZM100.67,91c-.29-.27-.47-.29-.6-.18a1.29,1.29,0,0,0-.21.71,9.37,9.37,0,0,1-.22,1.24A5.2,5.2,0,0,1,99,94.29a3.9,3.9,0,0,1-.52.69,3.6,3.6,0,0,1-.65.58,3.69,3.69,0,0,1-.78.43,5.27,5.27,0,0,1-.84.3,14.21,14.21,0,0,1-2.91.25c-.34,0-.48.14-.41.34a1.77,1.77,0,0,0,.82.73,4.56,4.56,0,0,0,1.92.51,5.56,5.56,0,0,0,2.47-.47,5.12,5.12,0,0,0,2.09-1.7,5.26,5.26,0,0,0,.9-2.23,4.6,4.6,0,0,0-.06-1.81A2,2,0,0,0,100.67,91ZM125,66.77c.1-.17.21-.34.3-.52l.29-.53c.19-.36.39-.72.56-1.1a22.14,22.14,0,0,0,1-2.37,12.72,12.72,0,0,0,.6-2.69,8.1,8.1,0,0,0-.25-3,6.42,6.42,0,0,0-1.65-2.73,5.14,5.14,0,0,0-3.07-1.49,4.58,4.58,0,0,0-.91,0,4.41,4.41,0,0,0-.88.17,5.57,5.57,0,0,0-1.58.79,9.88,9.88,0,0,0-2.2,2.34c-.59.84-1.1,1.7-1.62,2.51-.26.39-.53.77-.8,1.16s-.59.73-.88,1.11a23.88,23.88,0,0,1-4.32,3.86,43.73,43.73,0,0,1-10.84,5.26C94.87,70.91,90.86,72,87,73.33a45.05,45.05,0,0,0-10.93,5.19,29.43,29.43,0,0,0-7.9,8c-.51.74-.94,1.51-1.37,2.26s-.8,1.52-1.12,2.29-.63,1.53-.92,2.28l-.36,1.13c-.06.19-.12.38-.17.56l-.15.56a26.28,26.28,0,0,0-.9,8.21,8.6,8.6,0,0,0,.87,3.31,5.89,5.89,0,0,0,1.88,2.15,4.68,4.68,0,0,0,1.07.54,4.41,4.41,0,0,0,1,.22,3.23,3.23,0,0,0,1.48-.22,3.43,3.43,0,0,0,1.73-1.48,2.56,2.56,0,0,0,.11-.24,24.62,24.62,0,0,1,2.75.88,28,28,0,0,0,3.76,1.16,10.27,10.27,0,0,0,2,.23,7,7,0,0,0,1.87-.2,6.07,6.07,0,0,0,2.68-1.35,3.07,3.07,0,0,0,.9-1.31h0a33.45,33.45,0,0,0,4.28,2.25,12.44,12.44,0,0,0,6.16,1,7.84,7.84,0,0,0,4.44-2,4.88,4.88,0,0,0,1.42-2.15,4.39,4.39,0,0,0,.09-.6,1.55,1.55,0,0,0,0-.23c.62.06,1.25.11,1.89.13a19.77,19.77,0,0,0,6.74-.89,14.29,14.29,0,0,0,5.49-3.19,9,9,0,0,0,1.68-2.19,6.84,6.84,0,0,0,.76-2.16,4.9,4.9,0,0,0-.2-2.62,2.7,2.7,0,0,0-.41-.69,20.25,20.25,0,0,0,3.35-2.67c.34-.35.69-.69,1-1.06s.62-.71.89-1.09.54-.74.79-1.11.46-.76.66-1.15a7.31,7.31,0,0,0,.76-2.33,4.4,4.4,0,0,0-.2-2.06,3.66,3.66,0,0,0-.78-1.31,2.36,2.36,0,0,0-.69-.54,3.05,3.05,0,0,0-.4-.13,21.08,21.08,0,0,0,1.59-2c.14-.21.3-.41.42-.62l.39-.64a12.39,12.39,0,0,0,.69-1.29,10.45,10.45,0,0,0,1-2.63,5.17,5.17,0,0,0-.07-2.6A3.27,3.27,0,0,0,126.4,70a3.35,3.35,0,0,0-.76-.71,3.16,3.16,0,0,0-1.5-.54,2.66,2.66,0,0,0-.41,0l.65-.94C124.61,67.45,124.79,67.1,125,66.77Zm-3.19,2.16a27.2,27.2,0,0,1-5.3,5.32,30.18,30.18,0,0,1-4.63,2.9c-.64.32-1.14.58-1.52.74a5.86,5.86,0,0,0-.73.38c-.21.16.11.13.89-.06a19.72,19.72,0,0,0,3.6-1.38,25.68,25.68,0,0,0,5.35-3.53c.25-.2.48-.42.72-.64s.49-.45.73-.69c.46-.48,1-1,1.42-1.53.24-.26.46-.54.69-.83a2.08,2.08,0,0,1,1,.12,2.15,2.15,0,0,1,.54.28,2.47,2.47,0,0,1,.5.47,2.06,2.06,0,0,1,.34.61,3.69,3.69,0,0,1,.13.85,5.37,5.37,0,0,1-.45,2,8.68,8.68,0,0,1-.53,1.12c-.21.38-.42.78-.65,1.16a21,21,0,0,1-3.54,4.28A22.53,22.53,0,0,1,116,83.74a25.77,25.77,0,0,1-4.27,1.86l-.9.3-.82.24c-.5.17-.94.27-1.27.39-.68.25-.77.41-.38.53a5.93,5.93,0,0,0,.94.12,12.71,12.71,0,0,0,1.55-.06A17.68,17.68,0,0,0,115.25,86a20,20,0,0,0,5-2.82,19.82,19.82,0,0,0,2.28-2,4,4,0,0,1,.73,1,3.43,3.43,0,0,1,.37,1.3,4.09,4.09,0,0,1-.27,1.68,8.61,8.61,0,0,1-1,1.9c-.22.33-.49.65-.76,1-.13.17-.26.34-.4.5l-.44.48a21.72,21.72,0,0,1-4.11,3.5,23.36,23.36,0,0,1-4.73,2.39,27.82,27.82,0,0,1-4.36,1.21l-.91.17-.82.13c-.51.1-.93.15-1.27.23-.68.16-.79.31-.43.47a4.66,4.66,0,0,0,.88.24,4.38,4.38,0,0,0,.68.08l.82.06a18.48,18.48,0,0,0,4.39-.43,21.22,21.22,0,0,0,5.23-2c.36-.19.71-.4,1.06-.61a9.28,9.28,0,0,1,0,1.55,6.41,6.41,0,0,1-1.47,3.49,11.56,11.56,0,0,1-4.31,3.09,18,18,0,0,1-6,1.36,27.67,27.67,0,0,1-6.08-.32c-1.92-.29-3.68-.67-5.15-1a26.7,26.7,0,0,0-3.44-.58c-1.55-.1-.58.51,1.83,1.45a42.22,42.22,0,0,0,4.65,1.5,32.12,32.12,0,0,0,3.92.75,11,11,0,0,1-1,1.26A6.91,6.91,0,0,1,97,108.93a5.07,5.07,0,0,1-.56.13,5.4,5.4,0,0,1-.58.09c-.2,0-.4,0-.6,0s-.42,0-.64,0a10.89,10.89,0,0,1-2.67-.5A26.32,26.32,0,0,1,86.5,106a37.61,37.61,0,0,0-5.57-2.93,11.89,11.89,0,0,0-5.32-.86,7.51,7.51,0,0,0-2,.45,4.62,4.62,0,0,0-1.24.7c-.57.49-.53.68-.15.62a18.35,18.35,0,0,1,2.27-.38,11.1,11.1,0,0,1,4.2.56,25.61,25.61,0,0,1,5.11,2.52l.75.46-.4.33a6.37,6.37,0,0,1-.81.5,6.09,6.09,0,0,1-1.12.42,6,6,0,0,1-1.39.22,6.8,6.8,0,0,1-1.54-.09c-2.2-.31-4.67-1.56-7.1-2a8.67,8.67,0,0,0-3.27-.08,3.73,3.73,0,0,0-1.92.89c-.32.36-.28.52,0,.56s.71,0,1.35-.07a10.11,10.11,0,0,1,2.45.23,3.1,3.1,0,0,1-.71.68,2.79,2.79,0,0,1-1.79.51,3.62,3.62,0,0,1-2.17-1,4.84,4.84,0,0,1-.89-1.14,5.84,5.84,0,0,1-.57-1.47,11.88,11.88,0,0,1-.22-3.69,30.14,30.14,0,0,1,.64-4.23c.14-.73.38-1.46.58-2.21s.49-1.49.82-2.23.65-1.49,1-2.25q.3-.54.6-1.11c.19-.37.43-.72.65-1.09A28.37,28.37,0,0,1,76,80.82a31.89,31.89,0,0,1,4.9-3,75.22,75.22,0,0,1,11.3-4.16c2-.6,4-1.19,6-1.84s4-1.39,5.91-2.24a39.3,39.3,0,0,0,5.58-3,26.31,26.31,0,0,0,4.87-4c.35-.39.71-.76,1-1.16l.48-.62.24-.3a3.62,3.62,0,0,0,.22-.32c.29-.43.6-.85.85-1.27l.77-1.25a15.3,15.3,0,0,1,1.62-2.22,4.09,4.09,0,0,1,2-1.28,2.84,2.84,0,0,1,2.15.29,4.33,4.33,0,0,1,1.62,1.64,4.41,4.41,0,0,1,.45,1.08,6.38,6.38,0,0,1,.19,1.16,8.71,8.71,0,0,1-.23,2.38,19.13,19.13,0,0,1-1.7,4.4A25.53,25.53,0,0,1,121.82,68.93Zm-14.41,1.89a15.92,15.92,0,0,0-2.89,1l-5.93,2.27c-2.37.92-5.08,2-7.9,3.22-1.41.62-2.85,1.31-4.26,2.07-.71.37-1.41.78-2.11,1.18s-1.39.85-2,1.32-1.32.94-2,1.41c-.32.25-.62.51-.93.76s-.6.51-.89.78a29.76,29.76,0,0,0-3.19,3.28,23,23,0,0,0-4,6.74c-.17.53-.36,1-.48,1.5s-.21.93-.29,1.35a11.38,11.38,0,0,0-.16,2.09c0,1.1.19,1.23.4.67.12-.27.22-.73.39-1.32.1-.29.2-.62.31-1,0-.19.12-.37.19-.56l.22-.61a24.18,24.18,0,0,1,3.21-5.78c.4-.52.8-1,1.26-1.56s.93-1,1.42-1.55a36.54,36.54,0,0,1,3.31-3,47.68,47.68,0,0,1,7.83-4.9c2.73-1.4,5.46-2.6,7.9-3.69s4.61-2,6.25-2.85a35.86,35.86,0,0,0,3.23-1.73C107.48,71.15,107.77,70.81,107.41,70.82Z"/><path class="cls-4" d="M146.62,49.61l.31-.51.29-.54c.19-.36.39-.71.55-1.1a18.52,18.52,0,0,0,1-2.36,11.56,11.56,0,0,0,.6-2.7,7.91,7.91,0,0,0-.25-3,6.34,6.34,0,0,0-1.65-2.73,5.1,5.1,0,0,0-3.07-1.48,3.86,3.86,0,0,0-.9,0,5.38,5.38,0,0,0-.89.17,5.65,5.65,0,0,0-1.57.79,9.92,9.92,0,0,0-2.2,2.35c-.59.83-1.1,1.69-1.62,2.5-.26.4-.53.77-.8,1.16s-.59.74-.88,1.11a23.51,23.51,0,0,1-4.32,3.86,44.29,44.29,0,0,1-10.84,5.27c-3.87,1.34-7.88,2.41-11.77,3.75a44.89,44.89,0,0,0-10.93,5.2,29.53,29.53,0,0,0-7.89,8.05c-.51.73-.94,1.51-1.38,2.25s-.8,1.52-1.12,2.3-.62,1.53-.91,2.27L86,77.38c-.06.19-.13.37-.18.56l-.14.56a26.25,26.25,0,0,0-.91,8.2A8.65,8.65,0,0,0,85.65,90a5.68,5.68,0,0,0,1.88,2.14,5,5,0,0,0,1.07.55,4.37,4.37,0,0,0,1,.21,3.39,3.39,0,0,0,1.48-.21,3.44,3.44,0,0,0,1.72-1.48,1.34,1.34,0,0,0,.12-.24,27.47,27.47,0,0,1,2.75.87A29.36,29.36,0,0,0,99.42,93a11.13,11.13,0,0,0,2,.23,8,8,0,0,0,1.87-.2A6,6,0,0,0,106,91.7a3,3,0,0,0,.9-1.3v0a31.21,31.21,0,0,0,4.29,2.25,12.45,12.45,0,0,0,6.16,1.06,7.91,7.91,0,0,0,4.44-2,5,5,0,0,0,1.41-2.16,4.64,4.64,0,0,0,.1-.6c0-.09,0-.16,0-.23.61.07,1.24.12,1.88.14a20,20,0,0,0,6.74-.9,14.26,14.26,0,0,0,5.5-3.19A9.31,9.31,0,0,0,139,82.54a6.64,6.64,0,0,0,.75-2.16,5,5,0,0,0-.19-2.63,2.72,2.72,0,0,0-.41-.68,21.23,21.23,0,0,0,3.35-2.67c.33-.36.69-.69,1-1.06s.63-.72.9-1.1.54-.74.78-1.11a9.35,9.35,0,0,0,.66-1.14,6.89,6.89,0,0,0,.76-2.34,4.31,4.31,0,0,0-.19-2.06,3.91,3.91,0,0,0-.78-1.31,2.3,2.3,0,0,0-.7-.53,1.54,1.54,0,0,0-.4-.13,18.63,18.63,0,0,0,1.59-2,6.82,6.82,0,0,0,.43-.62l.39-.64c.26-.41.47-.86.69-1.28a10.51,10.51,0,0,0,1-2.64,5.29,5.29,0,0,0-.07-2.6,3.59,3.59,0,0,0-.54-1.07,3.88,3.88,0,0,0-.77-.71,3.35,3.35,0,0,0-1.5-.54h-.4l.65-.94C146.22,50.3,146.41,50,146.62,49.61Z"/><path class="cls-5" d="M146.58,61l.39-.64c.26-.41.47-.86.69-1.28a10.51,10.51,0,0,0,1-2.64,5.29,5.29,0,0,0-.07-2.6,3.59,3.59,0,0,0-.54-1.07,3.88,3.88,0,0,0-.77-.71,3.35,3.35,0,0,0-1.5-.54h-.4l.65-.94c.22-.31.41-.66.62-1l.31-.51.29-.54c.19-.36.39-.71.55-1.1a18.52,18.52,0,0,0,1-2.36,11.56,11.56,0,0,0,.6-2.7,7.91,7.91,0,0,0-.25-3,6.34,6.34,0,0,0-1.65-2.73,5,5,0,0,0-3-1.47c1,2.76.18,6-.94,8.64a43.51,43.51,0,0,1-2.81,5.37q-1.65,2.82-3.53,5.49c-1.42,2-2.94,4-4.53,5.85-.11.12,0,.36.18.24a16.62,16.62,0,0,1,4.8-2.4,17.08,17.08,0,0,1,2.53-.56c.8-.11,1.95-.25,2.35.64a3,3,0,0,1-.31,2.35,11,11,0,0,1-1.13,1.93,16.07,16.07,0,0,1-3.42,3.32,48.22,48.22,0,0,1-4.47,2.84.15.15,0,0,0,.12.28,8.44,8.44,0,0,1,4.43-.57,3.05,3.05,0,0,1,2.39,2.44,2.8,2.8,0,0,1-.68,1.87,17.46,17.46,0,0,1-1.31,1.54,24.41,24.41,0,0,1-3,2.73,24,24,0,0,1-3.8,2.34.16.16,0,0,0,.12.29,1.18,1.18,0,0,1,1.37.62,1.68,1.68,0,0,1,.08,1.68,6,6,0,0,1-2.94,2.27,20.38,20.38,0,0,1-7.78,2,20.68,20.68,0,0,1-4.58-.3.16.16,0,0,0-.15.26c.8.85.13,2.17-.75,2.64a7.34,7.34,0,0,1-3.78.38,38.79,38.79,0,0,1-12.43-2.69.16.16,0,0,0-.2.15c.06,2.19-2.42,3.11-4.24,3.23-2.46.17-4.82-1-7.29-.63a4.38,4.38,0,0,0-2.58,1.4,5.75,5.75,0,0,0,1.38,1.33,5,5,0,0,0,1.07.55,4.37,4.37,0,0,0,1,.21,3.39,3.39,0,0,0,1.48-.21,3.44,3.44,0,0,0,1.72-1.48,1.34,1.34,0,0,0,.12-.24,27.47,27.47,0,0,1,2.75.87A29.36,29.36,0,0,0,99.42,93a11.13,11.13,0,0,0,2,.23,8,8,0,0,0,1.87-.2A6,6,0,0,0,106,91.7a3,3,0,0,0,.9-1.3v0a31.21,31.21,0,0,0,4.29,2.25,12.45,12.45,0,0,0,6.16,1.06,7.91,7.91,0,0,0,4.44-2,5,5,0,0,0,1.41-2.16,4.64,4.64,0,0,0,.1-.6c0-.09,0-.16,0-.23.61.07,1.24.12,1.88.14a20,20,0,0,0,6.74-.9,14.26,14.26,0,0,0,5.5-3.19A9.31,9.31,0,0,0,139,82.54a6.64,6.64,0,0,0,.75-2.16,5,5,0,0,0-.19-2.63,2.72,2.72,0,0,0-.41-.68,21.23,21.23,0,0,0,3.35-2.67c.33-.36.69-.69,1-1.06s.63-.72.9-1.1.54-.74.78-1.11a9.35,9.35,0,0,0,.66-1.14,6.89,6.89,0,0,0,.76-2.34,4.31,4.31,0,0,0-.19-2.06,3.91,3.91,0,0,0-.78-1.31,2.3,2.3,0,0,0-.7-.53,1.54,1.54,0,0,0-.4-.13,18.63,18.63,0,0,0,1.59-2A6.82,6.82,0,0,0,146.58,61Z"/><path class="cls-5" d="M128.29,54.17c-3.11,1.36-6.22,2.71-9.31,4.12s-6.14,2.83-9.15,4.37a54.85,54.85,0,0,0-8.18,4.79A23,23,0,0,0,95.81,74a39.88,39.88,0,0,0-3.53,8c-.11.34-.22.68-.32,1-.06.19.24.27.3.08l0-.12a.13.13,0,0,0,.09-.07A36.47,36.47,0,0,1,104.6,70.13a66.11,66.11,0,0,1,8.88-4.41,52.66,52.66,0,0,0,8.44-4.36,20.23,20.23,0,0,0,6-6c.19-.31.37-.62.53-.94A.16.16,0,0,0,128.29,54.17Z"/><path class="cls-5" d="M124.56,66.85a.16.16,0,0,0-.27,0,7.89,7.89,0,0,1-3.56,3,7.34,7.34,0,0,1-2.25.59,2.81,2.81,0,0,0-1.07.22,1.07,1.07,0,0,0-.51.88,8.22,8.22,0,0,1-.59,2.17,7.51,7.51,0,0,1-1.21,1.84,7.12,7.12,0,0,1-1.68,1.41,6.94,6.94,0,0,1-1,.51c-.34.14-.72.22-1.05.38a1.56,1.56,0,0,0-.75,1,11.08,11.08,0,0,1-.5,1.36,8.89,8.89,0,0,1-1.64,2.4c-.13.14.09.36.22.22a6.8,6.8,0,0,0,.5-.57,2.65,2.65,0,0,0,2.27,0,7.48,7.48,0,0,0,2-1.44,5.9,5.9,0,0,1,2.2-1.38c.87-.26,1.79-.29,2.68-.47a5.13,5.13,0,0,0,3.58-2.72c.38-.76.45-1.64.86-2.38a6.28,6.28,0,0,1,.89-1,5.42,5.42,0,0,0,.66-.93A5.62,5.62,0,0,0,124.56,66.85Z"/><path class="cls-3" d="M124.45,62.62a2.14,2.14,0,0,0-.33.94,11.13,11.13,0,0,1-.56,1.76,7.69,7.69,0,0,1-1.26,2,7.22,7.22,0,0,1-.94.89,5.58,5.58,0,0,1-1.12.68,4.78,4.78,0,0,1-.62.26c-.21.06-.42.14-.63.19a7.34,7.34,0,0,1-1.29.2,14.94,14.94,0,0,1-4-.44c-.41-.06-.57,0-.47.26a2.62,2.62,0,0,0,1,1,6.23,6.23,0,0,0,1.81.77,8,8,0,0,1-1.43,3.63,4.46,4.46,0,0,1-.73.71A3.49,3.49,0,0,1,113,76a4.32,4.32,0,0,1-1,.32,5.18,5.18,0,0,1-1,.12,11,11,0,0,1-3.28-.62c-.37-.07-.53,0-.5.22a2.13,2.13,0,0,0,.73,1,5.06,5.06,0,0,0,2,1,4.88,4.88,0,0,0,.55.12,1.49,1.49,0,0,0-.16.31,9,9,0,0,1-.58,1.5,3.33,3.33,0,0,1-.56.75,3.52,3.52,0,0,1-.8.61c-.59.36-1.25.55-1.7.83-.22.15-.32.29-.26.45a1,1,0,0,0,.61.45,2.94,2.94,0,0,0,1.31.12,3.64,3.64,0,0,0,1.57-.56,3.56,3.56,0,0,0,1.24-1.29,3.48,3.48,0,0,0,.47-1.5,2.55,2.55,0,0,0-.33-1.59,5.61,5.61,0,0,0,1.51-.15,5.49,5.49,0,0,0,3.54-2.64,5.84,5.84,0,0,0,.31-.61c.07-.2.16-.4.21-.6a5,5,0,0,0,.2-2.06,2.88,2.88,0,0,0-.24-.93,7.73,7.73,0,0,0,3.14-.21,7,7,0,0,0,3-1.76,6.73,6.73,0,0,0,1-1.3c.15-.22.27-.46.39-.68s.22-.45.3-.68a6.83,6.83,0,0,0,.45-2.38,3.45,3.45,0,0,0-.19-1.26C124.78,62.6,124.59,62.5,124.45,62.62Zm-2.16,11.27c-.29-.28-.48-.3-.6-.18a1.29,1.29,0,0,0-.21.71,12.27,12.27,0,0,1-.22,1.24,5.63,5.63,0,0,1-.62,1.48,5,5,0,0,1-.52.69,4,4,0,0,1-.66.57,4.16,4.16,0,0,1-.77.44,4.49,4.49,0,0,1-.85.29,13.44,13.44,0,0,1-2.91.25c-.33,0-.47.15-.4.34a1.67,1.67,0,0,0,.82.74,4.68,4.68,0,0,0,1.92.5,5.56,5.56,0,0,0,2.47-.47,5.09,5.09,0,0,0,2.08-1.7,5.29,5.29,0,0,0,.91-2.22,4.58,4.58,0,0,0-.06-1.81A2.1,2.1,0,0,0,122.29,73.89Zm24.33-24.28.31-.51.29-.54c.19-.36.39-.71.55-1.1a18.52,18.52,0,0,0,1-2.36,11.56,11.56,0,0,0,.6-2.7,7.91,7.91,0,0,0-.25-3,6.34,6.34,0,0,0-1.65-2.73,5.1,5.1,0,0,0-3.07-1.48,3.86,3.86,0,0,0-.9,0,5.38,5.38,0,0,0-.89.17,5.65,5.65,0,0,0-1.57.79,9.92,9.92,0,0,0-2.2,2.35c-.59.83-1.1,1.69-1.62,2.5-.26.4-.53.77-.8,1.16s-.59.74-.88,1.11a23.51,23.51,0,0,1-4.32,3.86,44.29,44.29,0,0,1-10.84,5.27c-3.87,1.34-7.88,2.41-11.77,3.75a44.89,44.89,0,0,0-10.93,5.2,29.53,29.53,0,0,0-7.89,8.05c-.51.73-.94,1.51-1.38,2.25s-.8,1.52-1.12,2.3-.62,1.53-.91,2.27L86,77.38c-.06.19-.13.37-.18.56l-.14.56a26.25,26.25,0,0,0-.91,8.2A8.65,8.65,0,0,0,85.65,90a5.68,5.68,0,0,0,1.88,2.14,5,5,0,0,0,1.07.55,4.37,4.37,0,0,0,1,.21,3.39,3.39,0,0,0,1.48-.21,3.44,3.44,0,0,0,1.72-1.48,1.34,1.34,0,0,0,.12-.24,27.47,27.47,0,0,1,2.75.87A29.36,29.36,0,0,0,99.42,93a11.13,11.13,0,0,0,2,.23,8,8,0,0,0,1.87-.2A6,6,0,0,0,106,91.7a3,3,0,0,0,.9-1.3v0a31.21,31.21,0,0,0,4.29,2.25,12.45,12.45,0,0,0,6.16,1.06,7.91,7.91,0,0,0,4.44-2,5,5,0,0,0,1.41-2.16,4.64,4.64,0,0,0,.1-.6c0-.09,0-.16,0-.23.61.07,1.24.12,1.88.14a20,20,0,0,0,6.74-.9,14.26,14.26,0,0,0,5.5-3.19A9.31,9.31,0,0,0,139,82.54a6.64,6.64,0,0,0,.75-2.16,5,5,0,0,0-.19-2.63,2.72,2.72,0,0,0-.41-.68,21.23,21.23,0,0,0,3.35-2.67c.33-.36.69-.69,1-1.06s.63-.72.9-1.1.54-.74.78-1.11a9.35,9.35,0,0,0,.66-1.14,6.89,6.89,0,0,0,.76-2.34,4.31,4.31,0,0,0-.19-2.06,3.91,3.91,0,0,0-.78-1.31,2.3,2.3,0,0,0-.7-.53,1.54,1.54,0,0,0-.4-.13,18.63,18.63,0,0,0,1.59-2,6.82,6.82,0,0,0,.43-.62l.39-.64c.26-.41.47-.86.69-1.28a10.51,10.51,0,0,0,1-2.64,5.29,5.29,0,0,0-.07-2.6,3.59,3.59,0,0,0-.54-1.07,3.88,3.88,0,0,0-.77-.71,3.35,3.35,0,0,0-1.5-.54h-.4l.65-.94C146.22,50.3,146.41,50,146.62,49.61Zm-3.18,2.16a27.55,27.55,0,0,1-5.3,5.33,31.5,31.5,0,0,1-4.63,2.9c-.65.31-1.15.57-1.53.73a5.83,5.83,0,0,0-.72.39c-.21.16.1.13.89-.07a19.21,19.21,0,0,0,3.59-1.37,25.81,25.81,0,0,0,5.36-3.54c.24-.19.48-.41.72-.64s.48-.44.72-.68c.47-.49,1-1,1.42-1.53.24-.27.47-.54.69-.83a2,2,0,0,1,1,.11,2.55,2.55,0,0,1,.53.29,2.05,2.05,0,0,1,.51.47,1.81,1.81,0,0,1,.33.61,2.79,2.79,0,0,1,.13.84,5.49,5.49,0,0,1-.44,2,10.37,10.37,0,0,1-.53,1.13c-.22.38-.42.77-.66,1.15A20.46,20.46,0,0,1,142,63.39a22.41,22.41,0,0,1-4.42,3.2,25.7,25.7,0,0,1-4.26,1.86l-.91.3-.81.23c-.51.17-.94.28-1.28.4-.67.24-.76.41-.37.52a5.77,5.77,0,0,0,.93.12,14.77,14.77,0,0,0,1.55,0,18.49,18.49,0,0,0,4.42-1.08,20.17,20.17,0,0,0,5-2.82,20.81,20.81,0,0,0,2.28-2,3.42,3.42,0,0,1,.74.95,3.21,3.21,0,0,1,.36,1.3A3.86,3.86,0,0,1,145,68a9,9,0,0,1-1,1.9c-.23.33-.5.66-.76,1-.14.16-.26.33-.4.5s-.3.32-.44.48a21.84,21.84,0,0,1-4.12,3.5,23.62,23.62,0,0,1-4.73,2.39,27.12,27.12,0,0,1-4.36,1.2l-.91.18-.81.12c-.51.1-.94.15-1.28.23-.67.16-.79.32-.42.48a5.82,5.82,0,0,0,.88.23,5.93,5.93,0,0,0,.68.09l.82.06a18.42,18.42,0,0,0,4.38-.44,20.75,20.75,0,0,0,5.24-2c.35-.19.71-.39,1-.6a8.09,8.09,0,0,1,0,1.55,6.38,6.38,0,0,1-1.48,3.48,11.3,11.3,0,0,1-4.3,3.09,18,18,0,0,1-5.95,1.37,28.43,28.43,0,0,1-6.09-.32c-1.92-.29-3.68-.68-5.15-1a30.06,30.06,0,0,0-3.44-.58c-1.54-.1-.58.51,1.84,1.46a42.18,42.18,0,0,0,4.64,1.49,31,31,0,0,0,3.92.75,9.21,9.21,0,0,1-1,1.27,6.9,6.9,0,0,1-3.21,1.89c-.19,0-.37.09-.56.12a3.82,3.82,0,0,1-.59.09,5.66,5.66,0,0,1-.6,0c-.21,0-.42,0-.63,0a11.41,11.41,0,0,1-2.67-.51,26.27,26.27,0,0,1-5.48-2.66,37.66,37.66,0,0,0-5.57-2.93,11.77,11.77,0,0,0-5.32-.87,7.33,7.33,0,0,0-2,.45,4.69,4.69,0,0,0-1.25.71c-.56.49-.52.67-.14.62a17.44,17.44,0,0,1,2.27-.39,11.34,11.34,0,0,1,4.2.57,25,25,0,0,1,5.1,2.52l.76.45-.41.33a6.79,6.79,0,0,1-.81.51,6.26,6.26,0,0,1-1.12.42,7.24,7.24,0,0,1-1.38.22,6.92,6.92,0,0,1-1.55-.09c-2.19-.32-4.66-1.56-7.09-2a8.92,8.92,0,0,0-3.28-.07,3.65,3.65,0,0,0-1.91.89c-.33.35-.28.51,0,.55s.71,0,1.36-.06a10.48,10.48,0,0,1,2.44.22,3,3,0,0,1-.7.68,2.8,2.8,0,0,1-1.8.51,3.63,3.63,0,0,1-2.17-1,5,5,0,0,1-.88-1.14,6.09,6.09,0,0,1-.58-1.48,11.9,11.9,0,0,1-.21-3.69,27.34,27.34,0,0,1,.64-4.22c.14-.74.38-1.46.58-2.21s.49-1.5.81-2.24.66-1.49,1-2.24c.2-.37.39-.74.6-1.11s.43-.73.65-1.1a28.92,28.92,0,0,1,3.15-4.22,28.25,28.25,0,0,1,4.07-3.7,31,31,0,0,1,4.89-3,73.21,73.21,0,0,1,11.31-4.16c2-.6,4-1.19,6-1.85a61.4,61.4,0,0,0,5.92-2.24,40.28,40.28,0,0,0,5.58-3,26.31,26.31,0,0,0,4.87-4c.34-.39.71-.76,1-1.17l.49-.61.24-.3a3.62,3.62,0,0,1,.22-.32c.28-.43.6-.85.85-1.28l.77-1.25a14.44,14.44,0,0,1,1.61-2.21,4.18,4.18,0,0,1,2-1.29,2.84,2.84,0,0,1,2.15.29A4.35,4.35,0,0,1,147.07,39a4.73,4.73,0,0,1,.44,1.07,5.61,5.61,0,0,1,.19,1.17,8.26,8.26,0,0,1-.22,2.37,19.67,19.67,0,0,1-1.7,4.41A26.29,26.29,0,0,1,143.44,51.77ZM129,53.66a15.23,15.23,0,0,0-2.89,1l-5.93,2.27c-2.37.91-5.09,2-7.91,3.21-1.41.63-2.84,1.32-4.26,2.08-.71.37-1.41.77-2.11,1.18s-1.39.84-2.05,1.31-1.31.94-2,1.42l-.92.76c-.31.24-.61.51-.9.77a29.72,29.72,0,0,0-3.18,3.29,22.83,22.83,0,0,0-4,6.73c-.17.53-.35,1-.47,1.5s-.22.93-.3,1.35A11.41,11.41,0,0,0,92,82.6c0,1.09.18,1.22.4.67.12-.28.22-.73.39-1.32q.15-.45.3-1a4.74,4.74,0,0,1,.2-.56l.22-.6A23.53,23.53,0,0,1,96.74,74c.4-.51.79-1.05,1.25-1.56s.93-1,1.43-1.55A35.15,35.15,0,0,1,102.73,68a46.93,46.93,0,0,1,7.82-4.9c2.73-1.4,5.47-2.61,7.91-3.69s4.6-2,6.24-2.85a32.4,32.4,0,0,0,3.23-1.74C129.09,54,129.39,53.65,129,53.66Z"/><path class="cls-4" d="M89.84,109.74a3.44,3.44,0,0,1-1.72-1.48c-.05-.08-.08-.16-.12-.23a25.1,25.1,0,0,0-2.75.87,27.84,27.84,0,0,1-3.75,1.16,11.15,11.15,0,0,1-2,.24,7.5,7.5,0,0,1-1.87-.21A6,6,0,0,1,75,108.74a3,3,0,0,1-.9-1.31h0a31.74,31.74,0,0,1-4.29,2.25,12.33,12.33,0,0,1-6.16,1,7.9,7.9,0,0,1-4.44-2,5,5,0,0,1-1.41-2.16,4.39,4.39,0,0,1-.09-.6,1.62,1.62,0,0,1,0-.23c-.62.07-1.25.11-1.89.13a19.77,19.77,0,0,1-6.74-.89,14.26,14.26,0,0,1-5.5-3.19,9.52,9.52,0,0,1-1.68-2.18,6.89,6.89,0,0,1-.75-2.16,5,5,0,0,1,.19-2.63,3.06,3.06,0,0,1,.41-.68,20.23,20.23,0,0,1-3.34-2.68c-.34-.35-.7-.68-1-1.05s-.63-.72-.9-1.1-.54-.74-.78-1.11-.47-.76-.66-1.14a7.12,7.12,0,0,1-.76-2.34,4.4,4.4,0,0,1,.2-2.06,3.65,3.65,0,0,1,.77-1.31,2.1,2.1,0,0,1,1.1-.67,17.57,17.57,0,0,1-1.59-2c-.14-.21-.3-.41-.43-.62L34,77.42c-.26-.42-.47-.86-.69-1.29a10,10,0,0,1-1-2.63,5.18,5.18,0,0,1,.06-2.6,3.48,3.48,0,0,1,.54-1.07,3.6,3.6,0,0,1,.77-.71,3.23,3.23,0,0,1,1.5-.54,2.57,2.57,0,0,1,.4,0c-.21-.31-.43-.62-.64-.94s-.42-.66-.63-1L34,66.14l-.29-.54c-.19-.36-.39-.72-.55-1.1a18.08,18.08,0,0,1-1-2.37,12,12,0,0,1-.6-2.69,7.89,7.89,0,0,1,.25-3,6.38,6.38,0,0,1,1.65-2.73,5.11,5.11,0,0,1,3.07-1.49,4.62,4.62,0,0,1,.91,0,4.41,4.41,0,0,1,.88.17,5.39,5.39,0,0,1,1.57.79,9.88,9.88,0,0,1,2.2,2.34c.6.84,1.11,1.7,1.62,2.51.26.39.54.77.8,1.16l.89,1.11a23.44,23.44,0,0,0,4.31,3.86,44.18,44.18,0,0,0,10.85,5.27c3.86,1.34,7.88,2.41,11.76,3.75A45.23,45.23,0,0,1,83.26,78.4a29.57,29.57,0,0,1,7.89,8.06c.52.73.94,1.5,1.38,2.25s.8,1.52,1.12,2.29.62,1.54.91,2.28l.37,1.14c0,.18.12.37.17.56l.14.56a26.25,26.25,0,0,1,.91,8.2"/><path class="cls-5" d="M89.84,109.74a3.44,3.44,0,0,1-1.72-1.48c-.05-.08-.08-.16-.12-.23a25.1,25.1,0,0,0-2.75.87,27.84,27.84,0,0,1-3.75,1.16,11.15,11.15,0,0,1-2,.24,7.5,7.5,0,0,1-1.87-.21A6,6,0,0,1,75,108.74a3,3,0,0,1-.9-1.31h0a31.74,31.74,0,0,1-4.29,2.25,12.33,12.33,0,0,1-6.16,1,7.9,7.9,0,0,1-4.44-2,5,5,0,0,1-1.41-2.16,4.39,4.39,0,0,1-.09-.6,1.62,1.62,0,0,1,0-.23c-.62.07-1.25.11-1.89.13a19.77,19.77,0,0,1-6.74-.89,14.26,14.26,0,0,1-5.5-3.19,9.52,9.52,0,0,1-1.68-2.18,6.89,6.89,0,0,1-.75-2.16,5,5,0,0,1,.19-2.63,3.06,3.06,0,0,1,.41-.68,20.23,20.23,0,0,1-3.34-2.68c-.34-.35-.7-.68-1-1.05s-.63-.72-.9-1.1-.54-.74-.78-1.11-.47-.76-.66-1.14a7.12,7.12,0,0,1-.76-2.34,4.4,4.4,0,0,1,.2-2.06,3.65,3.65,0,0,1,.77-1.31,2.1,2.1,0,0,1,1.1-.67,17.57,17.57,0,0,1-1.59-2c-.14-.21-.3-.41-.43-.62L34,77.42c-.26-.42-.47-.86-.69-1.29a10,10,0,0,1-1-2.63,5.18,5.18,0,0,1,.06-2.6,3.48,3.48,0,0,1,.54-1.07,3.6,3.6,0,0,1,.77-.71,3.23,3.23,0,0,1,1.5-.54,2.57,2.57,0,0,1,.4,0c-.21-.31-.43-.62-.64-.94s-.42-.66-.63-1L34,66.14l-.29-.54c-.19-.36-.39-.72-.55-1.1a18.08,18.08,0,0,1-1-2.37,12,12,0,0,1-.6-2.69,7.89,7.89,0,0,1,.25-3,6.38,6.38,0,0,1,1.65-2.73,5.16,5.16,0,0,1,3-1.48c-1,2.77-.19,6,.93,8.65a45.69,45.69,0,0,0,2.81,5.37c1.1,1.87,2.28,3.71,3.53,5.49,1.42,2,2.94,4,4.54,5.85.1.12,0,.35-.19.24a16.62,16.62,0,0,0-4.8-2.4,16.8,16.8,0,0,0-2.53-.56c-.79-.11-1.94-.25-2.35.64a3,3,0,0,0,.31,2.35,11,11,0,0,0,1.13,1.93,16.07,16.07,0,0,0,3.42,3.32A48.37,48.37,0,0,0,47.76,86a.15.15,0,0,1-.12.28,8.47,8.47,0,0,0-4.44-.57,3.05,3.05,0,0,0-2.39,2.44A2.8,2.8,0,0,0,41.49,90a17.46,17.46,0,0,0,1.31,1.54,24.33,24.33,0,0,0,3,2.72,24,24,0,0,0,3.8,2.35.15.15,0,0,1-.12.28,1.2,1.2,0,0,0-1.37.62,1.66,1.66,0,0,0-.07,1.68A5.83,5.83,0,0,0,51,101.44a20.29,20.29,0,0,0,12.36,1.69.16.16,0,0,1,.15.26c-.8.85-.13,2.16.75,2.64a7.45,7.45,0,0,0,3.78.38,38.82,38.82,0,0,0,8.1-1.26,40.68,40.68,0,0,0,4.33-1.44.16.16,0,0,1,.2.15c-.06,2.2,2.42,3.12,4.25,3.24,2.45.17,4.81-1,7.28-.63"/><path class="cls-3" d="M55.9,80.09a3.45,3.45,0,0,0-.19,1.26,6.87,6.87,0,0,0,.46,2.38,6.61,6.61,0,0,0,.29.68c.13.22.24.46.39.68a7.48,7.48,0,0,0,1,1.3A7.14,7.14,0,0,0,61,88.15a7.73,7.73,0,0,0,3.14.21,3.08,3.08,0,0,0-.24.93,5,5,0,0,0,.2,2.06c0,.2.14.39.21.6a4.87,4.87,0,0,0,.31.6,5.25,5.25,0,0,0,.87,1.16,5.44,5.44,0,0,0,2.68,1.49,5.92,5.92,0,0,0,1.5.15,2.52,2.52,0,0,0-.33,1.58,3.66,3.66,0,0,0,.47,1.51A3.56,3.56,0,0,0,71,99.73a3.77,3.77,0,0,0,1.57.56,2.85,2.85,0,0,0,1.32-.13,1,1,0,0,0,.6-.45c.06-.15,0-.3-.26-.44-.45-.28-1.11-.47-1.7-.83a3.84,3.84,0,0,1-.8-.61,3.33,3.33,0,0,1-.56-.75,10.41,10.41,0,0,1-.58-1.5,1.49,1.49,0,0,0-.16-.31,4.88,4.88,0,0,0,.55-.12,5.19,5.19,0,0,0,2-1,2.14,2.14,0,0,0,.73-1c0-.22-.13-.29-.5-.21a11.06,11.06,0,0,1-3.28.61,4.6,4.6,0,0,1-1-.11,5.06,5.06,0,0,1-1-.32,4,4,0,0,1-.87-.53,4.46,4.46,0,0,1-.73-.71,8,8,0,0,1-1.43-3.63,6.52,6.52,0,0,0,1.81-.77,2.61,2.61,0,0,0,1-1c.1-.23-.06-.32-.47-.27a14.41,14.41,0,0,1-4,.45,6.33,6.33,0,0,1-1.28-.21c-.22,0-.43-.12-.64-.18s-.42-.16-.61-.26a5.11,5.11,0,0,1-1.12-.69,5.73,5.73,0,0,1-1-.89,7.54,7.54,0,0,1-1.26-2,10.82,10.82,0,0,1-.56-1.76,2.13,2.13,0,0,0-.33-.93C56.33,79.54,56.14,79.64,55.9,80.09ZM58.25,91.8a4.78,4.78,0,0,0-.06,1.81,5.29,5.29,0,0,0,.91,2.22,5.09,5.09,0,0,0,2.08,1.7,5.58,5.58,0,0,0,2.47.47,4.68,4.68,0,0,0,1.92-.5,1.72,1.72,0,0,0,.82-.74c.07-.2-.07-.31-.4-.34a14.16,14.16,0,0,1-2.91-.25,5.33,5.33,0,0,1-.85-.29,4.51,4.51,0,0,1-.77-.44,3.66,3.66,0,0,1-.66-.58,4.16,4.16,0,0,1-.51-.68,5.49,5.49,0,0,1-.63-1.48,11.93,11.93,0,0,1-.22-1.25,1.24,1.24,0,0,0-.21-.71c-.12-.11-.31-.09-.6.18A2.24,2.24,0,0,0,58.25,91.8Zm37.9,11.94a26.25,26.25,0,0,0-.91-8.2L95.1,95c0-.19-.12-.38-.17-.56l-.37-1.14c-.29-.74-.55-1.52-.91-2.28s-.73-1.52-1.12-2.29-.86-1.52-1.38-2.25a29.57,29.57,0,0,0-7.89-8.06,45.23,45.23,0,0,0-10.93-5.19c-3.88-1.34-7.9-2.41-11.76-3.75a44.18,44.18,0,0,1-10.85-5.27,23.44,23.44,0,0,1-4.31-3.86l-.89-1.11c-.26-.39-.54-.77-.8-1.16-.51-.81-1-1.67-1.62-2.51a9.88,9.88,0,0,0-2.2-2.34,5.39,5.39,0,0,0-1.57-.79,4.41,4.41,0,0,0-.88-.17,4.62,4.62,0,0,0-.91,0,5.11,5.11,0,0,0-3.07,1.49,6.38,6.38,0,0,0-1.65,2.73,7.89,7.89,0,0,0-.25,3,12,12,0,0,0,.6,2.69,18.08,18.08,0,0,0,1,2.37c.16.38.36.74.55,1.1l.29.54.31.51c.21.34.4.68.63,1s.43.63.64.94a2.57,2.57,0,0,0-.4,0,3.23,3.23,0,0,0-1.5.54,3.6,3.6,0,0,0-.77.71,3.48,3.48,0,0,0-.54,1.07,5.18,5.18,0,0,0-.06,2.6,10,10,0,0,0,1,2.63c.22.43.43.87.69,1.29l.39.64c.13.21.29.41.43.62a17.57,17.57,0,0,0,1.59,2,2.1,2.1,0,0,0-1.1.67,3.65,3.65,0,0,0-.77,1.31,4.4,4.4,0,0,0-.2,2.06A7.12,7.12,0,0,0,35.05,87c.19.38.42.76.66,1.14s.52.73.78,1.11.6.72.9,1.1.66.7,1,1.05a20.23,20.23,0,0,0,3.34,2.68,3.06,3.06,0,0,0-.41.68,5,5,0,0,0-.19,2.63,6.89,6.89,0,0,0,.75,2.16,9.52,9.52,0,0,0,1.68,2.18,14.26,14.26,0,0,0,5.5,3.19,19.77,19.77,0,0,0,6.74.89c.64,0,1.27-.06,1.89-.13a1.62,1.62,0,0,0,0,.23,4.39,4.39,0,0,0,.09.6,5,5,0,0,0,1.41,2.16,7.9,7.9,0,0,0,4.44,2,12.33,12.33,0,0,0,6.16-1,31.74,31.74,0,0,0,4.29-2.25h0a3,3,0,0,0,.9,1.31,6,6,0,0,0,2.68,1.35,7.5,7.5,0,0,0,1.87.21,11.15,11.15,0,0,0,2-.24,27.84,27.84,0,0,0,3.75-1.16A25.1,25.1,0,0,1,88,108c0,.07.07.15.12.23a3.44,3.44,0,0,0,1.72,1.48M35.14,65.08a19.86,19.86,0,0,1-1.7-4.41,8.32,8.32,0,0,1-.22-2.38,6.38,6.38,0,0,1,.19-1.16,4.19,4.19,0,0,1,.45-1.07,4.26,4.26,0,0,1,1.61-1.65,2.85,2.85,0,0,1,2.15-.29,4.14,4.14,0,0,1,2,1.29,14,14,0,0,1,1.61,2.21c.26.41.51.83.77,1.25s.57.85.85,1.27c.08.11.15.22.23.32l.24.31.48.61c.32.41.69.77,1,1.17a26.72,26.72,0,0,0,4.86,4,40.39,40.39,0,0,0,5.59,3c1.93.85,3.91,1.58,5.91,2.24s4,1.25,6,1.85a72.84,72.84,0,0,1,11.31,4.16,31,31,0,0,1,4.89,3,28.84,28.84,0,0,1,4.07,3.7,29.82,29.82,0,0,1,3.16,4.23c.21.37.46.72.65,1.1s.4.74.59,1.11c.36.75.73,1.48,1,2.24s.55,1.5.81,2.23.44,1.48.59,2.21a28.88,28.88,0,0,1,.63,4.23,11.9,11.9,0,0,1-.21,3.69,6.25,6.25,0,0,1-.57,1.47,5.12,5.12,0,0,1-.89,1.14,3.65,3.65,0,0,1-2.17,1,2.82,2.82,0,0,1-1.8-.51,3,3,0,0,1-.7-.68,10.07,10.07,0,0,1,2.45-.23c.64,0,1.1.1,1.35.07s.29-.2,0-.55a3.65,3.65,0,0,0-1.92-.89,8.71,8.71,0,0,0-3.28.07c-2.43.47-4.9,1.71-7.09,2a7.53,7.53,0,0,1-1.55.08,6,6,0,0,1-2.5-.64,6.37,6.37,0,0,1-.81-.5l-.41-.33.76-.46A25.61,25.61,0,0,1,80.6,104a11.44,11.44,0,0,1,4.19-.56,15.82,15.82,0,0,1,2.27.39c.39,0,.42-.13-.14-.63a4.7,4.7,0,0,0-1.25-.7,7.33,7.33,0,0,0-2-.45,11.89,11.89,0,0,0-5.32.86,37.73,37.73,0,0,0-5.57,2.94,26.53,26.53,0,0,1-5.48,2.66,10.89,10.89,0,0,1-2.67.5c-.21,0-.42,0-.63,0s-.41,0-.6,0a5.58,5.58,0,0,1-.59-.09,5.66,5.66,0,0,1-.56-.13,6.81,6.81,0,0,1-3.21-1.88,9.87,9.87,0,0,1-1-1.27,31,31,0,0,0,3.92-.75,44.45,44.45,0,0,0,4.64-1.49c2.42-1,3.38-1.56,1.84-1.46a28,28,0,0,0-3.44.58c-1.47.31-3.23.7-5.15,1a28.39,28.39,0,0,1-6.09.32,17.86,17.86,0,0,1-5.94-1.37,11.37,11.37,0,0,1-4.31-3.09,6.31,6.31,0,0,1-1.47-3.48,8.39,8.39,0,0,1,0-1.56c.34.21.7.42,1,.61a21.44,21.44,0,0,0,5.24,2,17.89,17.89,0,0,0,4.38.43l.82,0a5.93,5.93,0,0,0,.68-.09,4.66,4.66,0,0,0,.88-.24c.37-.15.26-.31-.42-.47-.34-.08-.77-.13-1.28-.23l-.81-.12L51.76,96a28.2,28.2,0,0,1-4.36-1.2,23.68,23.68,0,0,1-4.73-2.4,21.48,21.48,0,0,1-4.12-3.5l-.43-.48c-.15-.16-.27-.33-.41-.5-.26-.33-.53-.65-.75-1A8.65,8.65,0,0,1,35.91,85a3.88,3.88,0,0,1-.26-1.68A3.49,3.49,0,0,1,36,82a3.76,3.76,0,0,1,.74-1,20.91,20.91,0,0,0,2.28,2,19.81,19.81,0,0,0,5,2.81A17.68,17.68,0,0,0,48.48,87a12.71,12.71,0,0,0,1.55.06,5.77,5.77,0,0,0,.93-.12c.4-.11.3-.28-.37-.52-.34-.13-.77-.23-1.28-.4l-.81-.23-.91-.3a26.69,26.69,0,0,1-4.26-1.87,22.24,22.24,0,0,1-4.42-3.19,20.46,20.46,0,0,1-3.54-4.28c-.24-.38-.44-.78-.66-1.15a10.37,10.37,0,0,1-.53-1.13,5.49,5.49,0,0,1-.44-2.05,2.91,2.91,0,0,1,.13-.85,1.86,1.86,0,0,1,.33-.6,2.24,2.24,0,0,1,.51-.47,2.38,2.38,0,0,1,.54-.29,2,2,0,0,1,1-.11c.22.28.45.56.69.82.46.56.95,1.05,1.42,1.54.24.24.49.46.72.68s.48.44.72.64a25.72,25.72,0,0,0,5.36,3.53,19.69,19.69,0,0,0,3.59,1.38c.79.2,1.1.22.89.06a5.48,5.48,0,0,0-.72-.38c-.38-.16-.88-.42-1.52-.74a29.54,29.54,0,0,1-4.63-2.89,27.58,27.58,0,0,1-5.31-5.33A27.22,27.22,0,0,1,35.14,65.08ZM53,71.82a35.86,35.86,0,0,0,3.23,1.73c1.64.81,3.8,1.78,6.24,2.86s5.18,2.28,7.91,3.69A46.52,46.52,0,0,1,78.19,85a35.3,35.3,0,0,1,3.32,2.94c.49.52,1,1,1.42,1.55s.85,1.05,1.25,1.56a23.36,23.36,0,0,1,3.21,5.79l.22.6a4.74,4.74,0,0,1,.2.56c.1.36.21.69.3,1,.17.59.27,1,.39,1.33.22.55.36.42.41-.67a11.48,11.48,0,0,0-.16-2.1c-.08-.42-.19-.87-.3-1.35s-.3-1-.47-1.5A22.83,22.83,0,0,0,84,88a29.72,29.72,0,0,0-3.18-3.29c-.29-.27-.58-.53-.9-.78L79,83.14c-.64-.48-1.28-1-2-1.42S75.68,80.83,75,80.4s-1.4-.81-2.11-1.18c-1.42-.76-2.85-1.44-4.26-2.07-2.82-1.26-5.54-2.3-7.91-3.22l-5.92-2.27a15.92,15.92,0,0,0-2.9-1C51.53,70.69,51.83,71,53,71.82Z"/><path class="cls-4" d="M12.68,49.49c-.1-.17-.21-.33-.3-.51l-.29-.53c-.19-.36-.39-.72-.56-1.1a22.14,22.14,0,0,1-1-2.37,12.67,12.67,0,0,1-.6-2.7,8.11,8.11,0,0,1,.25-3,6.54,6.54,0,0,1,1.65-2.73,5.13,5.13,0,0,1,3.07-1.48,4.59,4.59,0,0,1,.91,0,5.26,5.26,0,0,1,.88.17,6.15,6.15,0,0,1,1.58.79,9.92,9.92,0,0,1,2.2,2.35c.59.83,1.1,1.69,1.62,2.5.26.4.53.77.8,1.16s.58.74.88,1.11A23.15,23.15,0,0,0,28.11,47,43.76,43.76,0,0,0,39,52.3c3.87,1.34,7.88,2.41,11.76,3.75a44.71,44.71,0,0,1,10.93,5.2,29.43,29.43,0,0,1,7.9,8c.51.74.94,1.51,1.37,2.26s.8,1.52,1.12,2.29.63,1.53.92,2.28l.36,1.13c.06.19.12.37.17.56l.15.56a26.25,26.25,0,0,1,.9,8.2,8.65,8.65,0,0,1-.87,3.32A5.77,5.77,0,0,1,71.78,92a5.18,5.18,0,0,1-1.07.55,5,5,0,0,1-1,.22,3.52,3.52,0,0,1-1.48-.22,3.47,3.47,0,0,1-1.73-1.48,2.56,2.56,0,0,1-.11-.24,26.68,26.68,0,0,0-2.75.87,28,28,0,0,1-3.76,1.17,11.13,11.13,0,0,1-2,.23,7.4,7.4,0,0,1-1.87-.2,6,6,0,0,1-2.68-1.36,2.91,2.91,0,0,1-.9-1.3v0a31.79,31.79,0,0,1-4.29,2.26,12.49,12.49,0,0,1-6.15,1,7.84,7.84,0,0,1-4.44-2,4.88,4.88,0,0,1-1.42-2.15,4.5,4.5,0,0,1-.09-.61,1.62,1.62,0,0,1,0-.23c-.62.07-1.25.12-1.89.14a20,20,0,0,1-6.74-.9A14,14,0,0,1,22,84.6a8.8,8.8,0,0,1-1.68-2.18,6.93,6.93,0,0,1-.76-2.16,4.9,4.9,0,0,1,.2-2.62,2.38,2.38,0,0,1,.41-.69,20.25,20.25,0,0,1-3.35-2.67c-.34-.36-.69-.69-1-1.06s-.62-.72-.89-1.1-.54-.73-.79-1.11a13,13,0,0,1-.66-1.14,7.39,7.39,0,0,1-.76-2.33,4.46,4.46,0,0,1,.2-2.07,3.61,3.61,0,0,1,.78-1.3,2.19,2.19,0,0,1,.69-.54,2,2,0,0,1,.4-.13,21.08,21.08,0,0,1-1.59-2c-.14-.21-.3-.41-.42-.63l-.39-.64A11.32,11.32,0,0,1,11.65,59a10.51,10.51,0,0,1-1-2.64,5.18,5.18,0,0,1,.07-2.6,3.37,3.37,0,0,1,.54-1.07,3.59,3.59,0,0,1,.76-.71,3.24,3.24,0,0,1,1.5-.53H14l-.65-.94C13.08,50.18,12.9,49.83,12.68,49.49Z"/><path class="cls-5" d="M12.73,60.9l-.39-.64A11.32,11.32,0,0,1,11.65,59a10.51,10.51,0,0,1-1-2.64,5.18,5.18,0,0,1,.07-2.6,3.37,3.37,0,0,1,.54-1.07,3.59,3.59,0,0,1,.76-.71,3.24,3.24,0,0,1,1.5-.53H14l-.65-.94c-.23-.31-.41-.66-.63-1-.1-.17-.21-.33-.3-.51l-.29-.53c-.19-.36-.39-.72-.56-1.1a22.14,22.14,0,0,1-1-2.37,12.67,12.67,0,0,1-.6-2.7,8.11,8.11,0,0,1,.25-3,6.54,6.54,0,0,1,1.65-2.73,5.15,5.15,0,0,1,3-1.47c-1,2.76-.18,6,.93,8.65A44.78,44.78,0,0,0,18.6,49.1q1.66,2.82,3.54,5.49,2.13,3,4.53,5.85c.11.13,0,.36-.19.25a16.13,16.13,0,0,0-4.8-2.4,15.45,15.45,0,0,0-2.53-.57c-.79-.11-1.94-.25-2.35.64a3,3,0,0,0,.32,2.35,10.37,10.37,0,0,0,1.13,1.93A15.84,15.84,0,0,0,21.67,66a46.21,46.21,0,0,0,4.47,2.84c.15.09.05.34-.12.28a8.46,8.46,0,0,0-4.44-.57A3.07,3.07,0,0,0,19.2,71a2.75,2.75,0,0,0,.68,1.88,15.8,15.8,0,0,0,1.31,1.53,22.9,22.9,0,0,0,3,2.73A24,24,0,0,0,28,79.43a.16.16,0,0,1-.12.29,1.19,1.19,0,0,0-1.38.62A1.71,1.71,0,0,0,26.44,82a5.92,5.92,0,0,0,2.93,2.27,20.42,20.42,0,0,0,7.78,2,20.64,20.64,0,0,0,4.58-.3.16.16,0,0,1,.15.26c-.79.85-.13,2.17.76,2.64a7.33,7.33,0,0,0,3.78.39,39.08,39.08,0,0,0,12.43-2.7.15.15,0,0,1,.19.15C59,88.9,61.47,89.82,63.29,90c2.45.16,4.81-1,7.28-.63a4.4,4.4,0,0,1,2.58,1.39A5.71,5.71,0,0,1,71.78,92a5.18,5.18,0,0,1-1.07.55,5,5,0,0,1-1,.22,3.52,3.52,0,0,1-1.48-.22,3.47,3.47,0,0,1-1.73-1.48,2.56,2.56,0,0,1-.11-.24,26.68,26.68,0,0,0-2.75.87,28,28,0,0,1-3.76,1.17,11.13,11.13,0,0,1-2,.23,7.4,7.4,0,0,1-1.87-.2,6,6,0,0,1-2.68-1.36,2.91,2.91,0,0,1-.9-1.3v0a31.79,31.79,0,0,1-4.29,2.26,12.49,12.49,0,0,1-6.15,1,7.84,7.84,0,0,1-4.44-2,4.88,4.88,0,0,1-1.42-2.15,4.5,4.5,0,0,1-.09-.61,1.62,1.62,0,0,1,0-.23c-.62.07-1.25.12-1.89.14a20,20,0,0,1-6.74-.9A14,14,0,0,1,22,84.6a8.8,8.8,0,0,1-1.68-2.18,6.93,6.93,0,0,1-.76-2.16,4.9,4.9,0,0,1,.2-2.62,2.38,2.38,0,0,1,.41-.69,20.25,20.25,0,0,1-3.35-2.67c-.34-.36-.69-.69-1-1.06s-.62-.72-.89-1.1-.54-.73-.79-1.11a13,13,0,0,1-.66-1.14,7.39,7.39,0,0,1-.76-2.33,4.46,4.46,0,0,1,.2-2.07,3.61,3.61,0,0,1,.78-1.3,2.19,2.19,0,0,1,.69-.54,2,2,0,0,1,.4-.13,21.08,21.08,0,0,1-1.59-2C13,61.32,12.85,61.12,12.73,60.9Z"/><path class="cls-5" d="M30.8,54.27c.17.32.34.63.53.94a20.26,20.26,0,0,0,6.06,6,52.14,52.14,0,0,0,8.43,4.36A66.82,66.82,0,0,1,54.71,70,36.69,36.69,0,0,1,66.93,82.76a.13.13,0,0,0,.08.07s0,.08,0,.12.36.11.3-.08l-.33-1a38.62,38.62,0,0,0-3.53-8,23,23,0,0,0-5.84-6.55,54.35,54.35,0,0,0-8.18-4.79c-3-1.53-6.07-3-9.14-4.37s-6.2-2.76-9.32-4.11C30.87,54,30.72,54.12,30.8,54.27Z"/><path class="cls-5" d="M35,71.72a5.48,5.48,0,0,0,.67.93,6.22,6.22,0,0,1,.88,1c.42.74.49,1.62.86,2.38A5.12,5.12,0,0,0,41,78.79c.89.19,1.81.21,2.68.47a5.76,5.76,0,0,1,2.19,1.39,7.49,7.49,0,0,0,2,1.43,2.6,2.6,0,0,0,2.26,0c.16.2.33.39.5.57s.36-.07.22-.22A9.13,9.13,0,0,1,49.2,80a12.84,12.84,0,0,1-.5-1.35,1.49,1.49,0,0,0-.75-1c-.33-.16-.7-.24-1.05-.38a7.3,7.3,0,0,1-1-.5,7.68,7.68,0,0,1-1.69-1.42,7.14,7.14,0,0,1-1.79-4,1.08,1.08,0,0,0-.52-.88,2.72,2.72,0,0,0-1.06-.22,7.68,7.68,0,0,1-2.26-.58,8,8,0,0,1-3.55-3c-.06-.08-.22-.11-.27,0A5.62,5.62,0,0,0,35,71.72Z"/><path class="cls-3" d="M34.29,62.94a3.33,3.33,0,0,0-.19,1.25,6.61,6.61,0,0,0,.45,2.38c.08.23.19.45.29.68a6.85,6.85,0,0,0,.4.69,7.39,7.39,0,0,0,1,1.3A7.18,7.18,0,0,0,39.34,71a7.7,7.7,0,0,0,3.14.2,2.83,2.83,0,0,0-.25.93,5.39,5.39,0,0,0,.2,2.06,5.65,5.65,0,0,0,.22.61c.09.19.18.4.3.6a5.9,5.9,0,0,0,.87,1.15,5.43,5.43,0,0,0,2.68,1.5,5.52,5.52,0,0,0,1.5.14,2.56,2.56,0,0,0-.32,1.59,3.68,3.68,0,0,0,.46,1.51,3.82,3.82,0,0,0,1.24,1.29,3.86,3.86,0,0,0,1.58.56A3,3,0,0,0,52.27,83a.94.94,0,0,0,.6-.45c.06-.16,0-.3-.26-.44-.45-.28-1.11-.48-1.7-.84a4,4,0,0,1-.8-.61,3.61,3.61,0,0,1-.55-.75,9.15,9.15,0,0,1-.59-1.5,1,1,0,0,0-.16-.31l.55-.11a5.12,5.12,0,0,0,2-1,2,2,0,0,0,.73-1c0-.23-.13-.29-.49-.22a11.08,11.08,0,0,1-3.29.62,5.35,5.35,0,0,1-1-.12,3.82,3.82,0,0,1-1-.32,4.32,4.32,0,0,1-1.6-1.24A7.8,7.8,0,0,1,43.26,71a6.48,6.48,0,0,0,1.81-.77,2.61,2.61,0,0,0,1-1C46.18,69,46,69,45.61,69a15.2,15.2,0,0,1-4,.45,8.25,8.25,0,0,1-1.29-.21c-.22,0-.43-.12-.64-.19A6.92,6.92,0,0,1,38,68.12a6.13,6.13,0,0,1-.94-.89,8,8,0,0,1-1.27-2,12.28,12.28,0,0,1-.56-1.76,2.19,2.19,0,0,0-.33-.94C34.71,62.38,34.53,62.48,34.29,62.94Zm2.35,11.7a4.59,4.59,0,0,0-.06,1.81,5.22,5.22,0,0,0,.9,2.22,5.12,5.12,0,0,0,2.09,1.7,5.29,5.29,0,0,0,2.47.47,4.72,4.72,0,0,0,1.92-.5,1.72,1.72,0,0,0,.82-.74c.07-.19-.07-.3-.41-.34A13.53,13.53,0,0,1,41.46,79a4.4,4.4,0,0,1-.84-.29,3.73,3.73,0,0,1-.78-.44,3.21,3.21,0,0,1-.65-.57,3.9,3.9,0,0,1-.52-.69,5.32,5.32,0,0,1-.62-1.48,9.66,9.66,0,0,1-.22-1.24,1.38,1.38,0,0,0-.21-.71c-.13-.12-.31-.1-.6.18A2,2,0,0,0,36.64,74.64ZM13.31,50.49l.65.94h-.41a3.24,3.24,0,0,0-1.5.53,3.59,3.59,0,0,0-.76.71,3.37,3.37,0,0,0-.54,1.07,5.18,5.18,0,0,0-.07,2.6,10.51,10.51,0,0,0,1,2.64,11.32,11.32,0,0,0,.69,1.28l.39.64c.12.22.28.42.42.63a21.08,21.08,0,0,0,1.59,2,2,2,0,0,0-.4.13,2.19,2.19,0,0,0-.69.54,3.61,3.61,0,0,0-.78,1.3,4.46,4.46,0,0,0-.2,2.07,7.39,7.39,0,0,0,.76,2.33A13,13,0,0,0,14.09,71c.25.38.52.74.79,1.11s.59.73.89,1.1.66.7,1,1.06A20.25,20.25,0,0,0,20.12,77a2.38,2.38,0,0,0-.41.69,4.9,4.9,0,0,0-.2,2.62,6.93,6.93,0,0,0,.76,2.16A8.8,8.8,0,0,0,22,84.6a14,14,0,0,0,5.49,3.19,20,20,0,0,0,6.74.9c.64,0,1.27-.07,1.89-.14a1.62,1.62,0,0,0,0,.23,4.5,4.5,0,0,0,.09.61,4.88,4.88,0,0,0,1.42,2.15,7.84,7.84,0,0,0,4.44,2,12.49,12.49,0,0,0,6.15-1,31.79,31.79,0,0,0,4.29-2.26v0a2.91,2.91,0,0,0,.9,1.3A6,6,0,0,0,56,92.94a7.4,7.4,0,0,0,1.87.2,11.13,11.13,0,0,0,2-.23,28,28,0,0,0,3.76-1.17,26.68,26.68,0,0,1,2.75-.87,2.56,2.56,0,0,0,.11.24,3.47,3.47,0,0,0,1.73,1.48,3.52,3.52,0,0,0,1.48.22,5,5,0,0,0,1-.22A5.18,5.18,0,0,0,71.78,92a5.77,5.77,0,0,0,1.88-2.14,8.65,8.65,0,0,0,.87-3.32,26.25,26.25,0,0,0-.9-8.2l-.15-.56c0-.19-.11-.37-.17-.56L73,76.13c-.29-.75-.56-1.53-.92-2.28s-.72-1.52-1.12-2.29S70.05,70,69.54,69.3a29.43,29.43,0,0,0-7.9-8,44.71,44.71,0,0,0-10.93-5.2C46.83,54.71,42.82,53.64,39,52.3A43.76,43.76,0,0,1,28.11,47a23.15,23.15,0,0,1-4.32-3.86c-.3-.37-.6-.73-.88-1.11s-.54-.76-.8-1.16c-.52-.81-1-1.67-1.62-2.5a9.92,9.92,0,0,0-2.2-2.35,6.15,6.15,0,0,0-1.58-.79,5.26,5.26,0,0,0-.88-.17,4.59,4.59,0,0,0-.91,0,5.13,5.13,0,0,0-3.07,1.48,6.54,6.54,0,0,0-1.65,2.73,8.11,8.11,0,0,0-.25,3,12.67,12.67,0,0,0,.6,2.7,22.14,22.14,0,0,0,1,2.37c.17.38.37.74.56,1.1l.29.53c.09.18.2.34.3.51C12.9,49.83,13.08,50.18,13.31,50.49Zm.22-2.57a19.2,19.2,0,0,1-1.7-4.41,8.63,8.63,0,0,1-.23-2.37A6.49,6.49,0,0,1,11.79,40a4.35,4.35,0,0,1,.45-1.07,4.26,4.26,0,0,1,1.62-1.64A2.84,2.84,0,0,1,16,37a4.11,4.11,0,0,1,2,1.29,14.77,14.77,0,0,1,1.62,2.22l.77,1.24c.25.43.56.85.85,1.28l.22.32.24.3.48.61c.33.41.69.78,1,1.17a26.31,26.31,0,0,0,4.87,4,40.34,40.34,0,0,0,5.58,3c1.93.85,3.92,1.58,5.91,2.24s4,1.24,6,1.84a75.22,75.22,0,0,1,11.3,4.16,31.11,31.11,0,0,1,4.9,3,29.32,29.32,0,0,1,4.06,3.7A29,29,0,0,1,69,71.47c.22.37.46.72.65,1.1l.6,1.11c.35.76.72,1.49,1,2.24s.56,1.5.82,2.24.44,1.47.58,2.21a30.14,30.14,0,0,1,.64,4.23A11.82,11.82,0,0,1,73,88.28a5.77,5.77,0,0,1-.57,1.48,4.84,4.84,0,0,1-.89,1.14,3.55,3.55,0,0,1-2.17,1,2.79,2.79,0,0,1-1.79-.51,3.1,3.1,0,0,1-.71-.68,10.55,10.55,0,0,1,2.45-.22,11.1,11.1,0,0,0,1.35.06c.25,0,.29-.2,0-.55a3.73,3.73,0,0,0-1.92-.89,8.87,8.87,0,0,0-3.27.07c-2.43.47-4.9,1.71-7.1,2a6.86,6.86,0,0,1-1.55.09,7.24,7.24,0,0,1-1.38-.22,6.09,6.09,0,0,1-1.12-.42,5.41,5.41,0,0,1-.81-.51,5,5,0,0,1-.4-.33l.75-.45A25.08,25.08,0,0,1,59,86.89a11.1,11.1,0,0,1,4.2-.56,18.35,18.35,0,0,1,2.27.38c.38.05.42-.13-.15-.62a4.61,4.61,0,0,0-1.24-.71,7.53,7.53,0,0,0-2-.44,11.62,11.62,0,0,0-5.32.86,36.69,36.69,0,0,0-5.57,2.93,25.78,25.78,0,0,1-5.48,2.66A10.47,10.47,0,0,1,43,91.9c-.22,0-.43,0-.64,0s-.4,0-.6,0a5.4,5.4,0,0,1-.58-.08c-.19,0-.38-.09-.56-.13a7,7,0,0,1-3.22-1.89,11,11,0,0,1-.95-1.26,32.07,32.07,0,0,0,3.92-.76,40.38,40.38,0,0,0,4.65-1.49c2.41-1,3.38-1.56,1.83-1.46a29.07,29.07,0,0,0-3.44.59c-1.47.3-3.23.69-5.15,1a28.3,28.3,0,0,1-6.08.32,18,18,0,0,1-5.95-1.36A11.47,11.47,0,0,1,22,82.23a6.36,6.36,0,0,1-1.47-3.48,9.25,9.25,0,0,1,0-1.55c.35.21.7.41,1.06.6a20.83,20.83,0,0,0,5.23,2,18.55,18.55,0,0,0,4.39.44l.82-.06a4.32,4.32,0,0,0,.68-.09,4.82,4.82,0,0,0,.88-.23c.36-.16.25-.32-.43-.47-.34-.08-.76-.13-1.27-.23-.25,0-.53-.09-.82-.13l-.91-.18a27.69,27.69,0,0,1-4.36-1.2,23.36,23.36,0,0,1-4.73-2.39,22.1,22.1,0,0,1-4.11-3.5l-.44-.48c-.14-.16-.27-.34-.4-.5-.27-.33-.54-.66-.76-1a8.19,8.19,0,0,1-1-1.9A4,4,0,0,1,14,66.17a3.38,3.38,0,0,1,.37-1.3,3.81,3.81,0,0,1,.73-1,20.81,20.81,0,0,0,2.28,2,20.35,20.35,0,0,0,5,2.82,18.61,18.61,0,0,0,4.42,1.08,12.46,12.46,0,0,0,1.55.05,4.23,4.23,0,0,0,.94-.12c.39-.11.29-.28-.38-.52-.33-.12-.77-.23-1.27-.39l-.82-.24-.9-.3a25.77,25.77,0,0,1-4.27-1.86,23,23,0,0,1-4.42-3.19A21,21,0,0,1,13.75,59c-.23-.39-.44-.78-.66-1.16a11.05,11.05,0,0,1-.52-1.12,5.38,5.38,0,0,1-.45-2.06,3.61,3.61,0,0,1,.13-.84,1.84,1.84,0,0,1,.34-.61,2,2,0,0,1,.5-.47,2.61,2.61,0,0,1,.54-.29,2.06,2.06,0,0,1,1-.11c.23.29.45.57.69.83.46.55,1,1,1.42,1.53.24.24.49.46.73.69s.47.44.72.64a25.83,25.83,0,0,0,5.35,3.53,18.79,18.79,0,0,0,3.6,1.37c.78.2,1.1.23.89.07a4.71,4.71,0,0,0-.73-.38c-.38-.17-.88-.43-1.52-.74A31,31,0,0,1,21.17,57a27.76,27.76,0,0,1-5.3-5.32A26.08,26.08,0,0,1,13.53,47.92Zm17.84,6.75A35.86,35.86,0,0,0,34.6,56.4c1.64.8,3.8,1.77,6.25,2.85s5.17,2.29,7.9,3.69a47.68,47.68,0,0,1,7.83,4.9,36.54,36.54,0,0,1,3.31,3c.49.52,1,1,1.42,1.55s.86,1,1.26,1.55a24.41,24.41,0,0,1,3.21,5.79l.22.6c.07.2.14.38.19.56l.3,1c.18.59.28,1,.4,1.32.21.56.36.43.4-.67a11.54,11.54,0,0,0-.16-2.1c-.08-.41-.18-.86-.29-1.34s-.31-1-.48-1.5a22.82,22.82,0,0,0-4-6.74,30.74,30.74,0,0,0-3.19-3.29c-.29-.26-.58-.52-.89-.77s-.61-.51-.93-.76c-.64-.48-1.28-1-2-1.42s-1.36-.88-2.05-1.31-1.4-.81-2.11-1.18C49.84,61.31,48.41,60.62,47,60c-2.82-1.27-5.53-2.31-7.9-3.22l-5.93-2.27a15.47,15.47,0,0,0-2.89-1C29.91,53.53,30.21,53.88,31.37,54.67Z"/><path class="cls-3" d="M79.86,117.41a3,3,0,0,1-1.69-.54C66.52,109.24,58.68,102.18,52.75,94c-3.09-4.27-6.42-9.5-7.73-15.84-2-9.61,2-21.27,13.55-24.94a17.36,17.36,0,0,1,5.29-.82,18.8,18.8,0,0,1,16,8.92c3.34-5.66,8.67-8.64,15.91-8.86h.51c7.85,0,14.93,5.37,17.61,13.37,2.22,6.64,1.52,13.32-2.16,20.45A68.54,68.54,0,0,1,93.68,108c-2.65,2.16-5.46,4.16-8.18,6.1q-1.8,1.28-3.59,2.58A3.45,3.45,0,0,1,79.86,117.41Z"/><path class="cls-6" d="M79.89,65.39c2.91-7.49,8.43-10.94,16-11.17,7.3-.22,13.93,4.85,16.37,12.14,2.24,6.66,1.12,12.93-2,19.06a67,67,0,0,1-17.62,21.14c-3.74,3.06-7.79,5.77-11.7,8.63-.52.38-1,.66-1.7.19-9.47-6.2-18.25-13.18-25-22.45-3.33-4.62-6.26-9.5-7.43-15.16C45,69,48.7,58.21,59.11,54.89a16.9,16.9,0,0,1,20.09,9Z"/><path class="cls-7" d="M71.46,37.68a.34.34,0,0,0,0,.67A.34.34,0,0,0,71.46,37.68Z"/><path class="cls-7" d="M85.47,37.68a.34.34,0,0,0,0,.67A.34.34,0,0,0,85.47,37.68Z"/><path class="cls-2" d="M80,40.67c-12.47,0-22.57,2-22.57,4.57S67.56,49.82,80,49.82s22.56-2,22.56-4.58S92.49,40.67,80,40.67Zm0,7.65c-10.83,0-19.61-1.44-19.61-3.22S69.2,41.87,80,41.87s19.6,1.45,19.6,3.23S90.85,48.32,80,48.32Z"/><path class="cls-2" d="M80,39.79c-12.47,0-22.57,2-22.57,4.57S67.56,48.93,80,48.93s22.56-2,22.56-4.57S92.49,39.79,80,39.79Zm0,7.64c-10.83,0-19.61-1.44-19.61-3.22S69.2,41,80,41s19.6,1.44,19.6,3.22S90.85,47.43,80,47.43Z"/><g class="cls-8"><path class="cls-2" d="M63.22,42.55q-1.89,0-3.66-.12a4.21,4.21,0,0,0-1.93,1.37c.93.07,1.88.12,2.85.17C60.72,43.45,61.68,43,63.22,42.55Z"/><path class="cls-2" d="M81.94,41c1.46,0,2.87.08,4.22.15a3.39,3.39,0,0,0,1.36-1.1c-1-.07-2-.13-3-.17A6.42,6.42,0,0,1,81.94,41Z"/></g><g class="cls-8"><path class="cls-2" d="M99.63,44.21s0,0,0,.06c1,0,1.95,0,2.95,0a1.87,1.87,0,0,0-.94-1.19c-1.08,0-2.13,0-3.17.07C99.22,43.46,99.63,43.83,99.63,44.21Z"/><path class="cls-2" d="M83.13,47.45s0,0,0-.06c-1,0-1.94,0-3,0a1.11,1.11,0,0,0,0,.17c0,.46.34.91,1,1.32,1.32,0,2.6,0,3.84-.1C83.79,48.4,83.13,47.94,83.13,47.45Z"/></g><path class="cls-9" d="M80,41c-10.83,0-19.61,1.44-19.61,3.22a.69.69,0,0,0,.19.44c1.31-1.57,9.5-2.78,19.42-2.78s18.1,1.21,19.41,2.78a.69.69,0,0,0,.19-.44C99.63,42.43,90.85,41,80,41Z"/><path class="cls-9" d="M80,48.93c-11.73,0-21.36-1.81-22.46-4.13a1,1,0,0,0-.11.44c0,2.53,10.1,4.58,22.57,4.58s22.56-2,22.56-4.58a1,1,0,0,0-.11-.44C101.38,47.12,91.75,48.93,80,48.93Z"/><path class="cls-10" d="M70.13,40.74a33.45,33.45,0,0,0-5.28.58c-.21,0-.12.36.09.32a32.32,32.32,0,0,1,5.19-.57C70.34,41.06,70.34,40.73,70.13,40.74Z"/><path class="cls-11" d="M76.32,47.91l-6.78-.31c-.21,0-.21.32,0,.33l6.78.32C76.53,48.26,76.53,47.92,76.32,47.91Z"/><path class="cls-11" d="M77.13,47.81a.17.17,0,0,0,0,.33A.17.17,0,0,0,77.13,47.81Z"/><path class="cls-11" d="M78.61,47.91s0,0,0-.06l0,0a.11.11,0,0,0-.08,0h0a.2.2,0,0,0-.08,0l-.07.08a.1.1,0,0,0,0,0,.15.15,0,0,0,0,.07.13.13,0,0,0,0,.06.1.1,0,0,0,0,0l0,0,.09,0h0a.18.18,0,0,0,.07-.05l.08-.07s0,0,0-.05a.19.19,0,0,0,0-.07A.14.14,0,0,0,78.61,47.91Z"/><path class="cls-11" d="M96.85,46.71l-4.13.65c-.21,0-.12.35.09.32L96.94,47C97.15,47,97.06,46.68,96.85,46.71Z"/><path class="cls-11" d="M98.06,42a39.41,39.41,0,0,0-4.15-.92c-.21,0-.3.28-.09.32a38.86,38.86,0,0,1,4.15.92A.17.17,0,0,0,98.06,42Z"/><path class="cls-7" d="M69.24,38.7a.5.5,0,0,0,0,1A.5.5,0,0,0,69.24,38.7Z"/><path class="cls-7" d="M67.77,39a.34.34,0,0,0,0,.67A.34.34,0,0,0,67.77,39Z"/><path class="cls-7" d="M60.54,48.71a.33.33,0,0,0,0,.66A.33.33,0,0,0,60.54,48.71Z"/><path class="cls-7" d="M65,44.91a.34.34,0,0,0,0,.67A.34.34,0,0,0,65,44.91Z"/><path class="cls-7" d="M59.07,48.89a.34.34,0,0,0,0,.67A.34.34,0,0,0,59.07,48.89Z"/><path class="cls-7" d="M58.06,42.5a.31.31,0,0,0-.08-.15l-.07-.05a.33.33,0,0,0-.17,0h-.15a.17.17,0,0,0-.12,0,.3.3,0,0,0-.11.07.26.26,0,0,0-.07.11.28.28,0,0,0,0,.13v.09a.42.42,0,0,0,.09.14l.07.06a.29.29,0,0,0,.16,0h.15a.28.28,0,0,0,.13,0,.19.19,0,0,0,.11-.07.36.36,0,0,0,.07-.1.2.2,0,0,0,0-.13Z"/><path class="cls-7" d="M54.94,44.87a.34.34,0,0,0,0,.67A.34.34,0,0,0,54.94,44.87Z"/><path class="cls-7" d="M92.84,49.92a.34.34,0,0,0,0,.67A.34.34,0,0,0,92.84,49.92Z"/><path class="cls-7" d="M102.87,46.83a.33.33,0,0,0,0,.66A.33.33,0,0,0,102.87,46.83Z"/><path class="cls-7" d="M104.78,44.91a.34.34,0,0,0,0,.67A.34.34,0,0,0,104.78,44.91Z"/><path class="cls-7" d="M103.58,43.62v.09a.17.17,0,0,0,.34,0v-.09A.17.17,0,0,0,103.58,43.62Z"/><path class="cls-7" d="M101.83,41.21a.5.5,0,0,0,0,1A.5.5,0,0,0,101.83,41.21Z"/><path class="cls-7" d="M97.12,44.34a.17.17,0,0,0,0,.33A.17.17,0,0,0,97.12,44.34Z"/><path class="cls-7" d="M96.38,38.86a.34.34,0,0,0,0,.67A.34.34,0,0,0,96.38,38.86Z"/><path class="cls-7" d="M91.07,38.72a.33.33,0,0,0,0,.66A.33.33,0,0,0,91.07,38.72Z"/><path class="cls-7" d="M83.11,51.1a.34.34,0,0,0,0,.67A.34.34,0,0,0,83.11,51.1Z"/><path class="cls-7" d="M74.7,51.55a.33.33,0,0,0,0,.66A.33.33,0,0,0,74.7,51.55Z"/><path class="cls-7" d="M92.69,51h-.08a.34.34,0,0,0,0,.67h.08A.34.34,0,0,0,92.69,51Z"/><path class="cls-3" d="M82.69,64s4-8.24,11.17-8.31A25.83,25.83,0,0,0,82.69,64Z"/><path class="cls-3" d="M79.86,119.34s-.17,6.39-4.91,6.39c4.74,0,4.91,6.38,4.91,6.38s.17-6.38,4.91-6.38C80,125.73,79.86,119.34,79.86,119.34Z"/><path class="cls-3" d="M103.58,108.77s-.11,4.35-3.35,4.35c3.24,0,3.35,4.36,3.35,4.36s.12-4.36,3.36-4.36C103.7,113.12,103.58,108.77,103.58,108.77Z"/><path class="cls-3" d="M56.53,108.68S56.42,113,53.18,113c3.24,0,3.35,4.35,3.35,4.35s.11-4.35,3.35-4.35C56.64,113,56.53,108.68,56.53,108.68Z"/></g></g></svg>