<svg id="Calque_1" data-name="Calque 1" xmlns="http://www.w3.org/2000/svg" xmlns:xlink="http://www.w3.org/1999/xlink" viewBox="0 0 156.85 163.56"><defs><style>.cls-1{fill:#cda981;}.cls-2{fill:#f9df5a;}.cls-3{fill:url(#Dégradé_sans_nom_162);}</style><linearGradient id="Dégradé_sans_nom_162" x1="43.74" y1="81.87" x2="110.85" y2="81.87" gradientUnits="userSpaceOnUse"><stop offset="0" stop-color="#c08a81"/><stop offset="1" stop-color="#d4958d"/></linearGradient></defs><path class="cls-1" d="M73.65,109.48c.77.06,1.55.1,2.32.14h.11a23.29,23.29,0,0,0,2.44-1.06,49.34,49.34,0,0,0,6.62-4.75,27.67,27.67,0,0,1,4.2-4.7,2.44,2.44,0,0,0-1.17-.22,4.8,4.8,0,0,0-1.79.51,9.91,9.91,0,0,0-3.15,3.1,33.47,33.47,0,0,1-2.18,2.62,15.75,15.75,0,0,1-5.15,3.41c-.72.33-1.49.64-2.3.94Z"/><path class="cls-1" d="M79,109.52l-.39.2h1.58l.89,0,.3,0c.21,0,.42,0,.63-.06l.37,0,.6-.09.41-.08.54-.1c2-1.35,6-4.79,7.42-6l1.06-.94a23.4,23.4,0,0,1,5.23-3.91,4.24,4.24,0,0,0-3.88-.13c-1.45.55-2.31,1.3-6.13,4.78A57.17,57.17,0,0,1,79,109.52Z"/><path class="cls-2" d="M92.07,104.08s-2.91,2.53-5.36,4.47l.28-.09.17-.06c.46-.15.92-.31,1.35-.48l.1,0,.57-.22.11,0,.58-.24,0,0,1.22-.52,0,0,.52-.23,0,0,1.43-.68,0,0,.35-.17,0,0,.33-.16a19.62,19.62,0,0,0,3.27-2.39,30.82,30.82,0,0,1,4.82-3.5,3.14,3.14,0,0,0-2.4-.75c-2.19.4-4.47,2.44-6.48,4.25C92.77,103.46,92.42,103.78,92.07,104.08Z"/><path class="cls-2" d="M104.06,100a2,2,0,0,0-.82.21A27.76,27.76,0,0,0,97.88,104a19.4,19.4,0,0,1-3.48,2.53,45,45,0,0,1-10.12,3.84c-.39.08-.79.16-1.17.22a19.82,19.82,0,0,1-2.31.25h-.59c-1.15,0-2.56,0-4.07-.09-1.72-.09-3.52-.22-5.18-.38h-.07c-7-.69-7.66-1.57-7.89-1.86a.87.87,0,0,1-.17-.94c.24-.52,1-.61,1.61-.65a18.17,18.17,0,0,1,2,.08c1,.1,1.86.23,1.92.24h.06a15.39,15.39,0,0,0,4.07.45,6.79,6.79,0,0,0,2.67-.6,5.09,5.09,0,0,0,.5-.3c.61-.44,1.31-1.1,1.11-1.81a1.32,1.32,0,0,0-.9-.87c-.36,0-1.53-.25-3.55-.63-2.24-.41-5-.94-6.81-1.19-.57-.08-1.19-.19-1.85-.3-1.12-.19-2.33-.41-3.6-.53a21.56,21.56,0,0,0-3.34-.13,16,16,0,0,0-3.32.48l-.67.17c-3.92,1-8.18,1.59-10.58,6.07-2.22,4.14-8.71,13.22-6.8,17.51.2.45,1,.28,1.53.22.4,0,.81-.1,1.25-.17,11.82-2,14.17-5.54,24.14-6,1,0,2,0,3-.08,7.73-.33,26.67-2.14,35.74-11.68,1.62-1.71,4.69-5.43,5.68-6.63A4.27,4.27,0,0,0,104.06,100Z"/><path class="cls-3" d="M107.63,84.21A62.48,62.48,0,0,1,97.54,98.36c-.07.07-.13.15-.21.22h0A80.06,80.06,0,0,1,90,105.37c-2.22,1.81-4.55,3.5-6.89,5.17a19.82,19.82,0,0,1-2.31.25h-.59c-1.15,0-2.56,0-4.07-.09-1.72-.09-3.52-.22-5.18-.38-1.52-1.09-3-2.21-4.47-3.38,1,.1,1.86.23,1.92.24h.06a15.39,15.39,0,0,0,4.07.45,6.79,6.79,0,0,0,2.67-.6,5.09,5.09,0,0,0,.5-.3c.61-.44,1.31-1.1,1.11-1.81a1.32,1.32,0,0,0-.9-.87c-.36,0-1.53-.25-3.55-.63-2.24-.41-5-.94-6.81-1.19-.57-.08-1.19-.19-1.85-.3-1.12-.19-2.33-.41-3.6-.53a71.6,71.6,0,0,1-8.49-9.69c-3.33-4.63-6.27-9.51-7.43-15.17C42.36,67.75,46.11,57,56.53,53.66c7.75-2.47,16.85,1.54,20.1,9,.2.45.4.9.7,1.55,2.91-7.49,8.43-11,16-11.18,7.3-.23,13.93,4.85,16.38,12.15C111.92,71.81,110.8,78.08,107.63,84.21Z"/></svg>