<svg xmlns="http://www.w3.org/2000/svg" xmlns:xlink="http://www.w3.org/1999/xlink" viewBox="0 0 156.85 163.56"><defs><style>.cls-1{isolation:isolate;}.cls-10,.cls-2{fill:#f9df5a;}.cls-3{fill:#d2978d;}.cls-4{fill:#c08a81;}.cls-5{fill:#fff;}.cls-6{fill:url(#Dégradé_sans_nom_162);}.cls-11,.cls-7{fill:#fff3c2;}.cls-10,.cls-11,.cls-8{mix-blend-mode:screen;}.cls-9{fill:#eac733;}</style><linearGradient id="Dégradé_sans_nom_162" x1="45.49" y1="85.6" x2="113.85" y2="85.6" gradientUnits="userSpaceOnUse"><stop offset="0" stop-color="#c08a81"/><stop offset="1" stop-color="#d4958d"/></linearGradient></defs><g class="cls-1"><g id="Calque_1" data-name="Calque 1"><polygon class="cls-2" points="61.77 92.92 61.77 126.32 79.62 132.49 97.56 126.32 97.56 92.92 61.77 92.92"/><path class="cls-3" d="M125.68,67.13c.11-.18.22-.35.32-.53l.29-.54c.19-.37.4-.73.57-1.12a21.09,21.09,0,0,0,1-2.42,12.46,12.46,0,0,0,.62-2.74,8.21,8.21,0,0,0-.26-3.05A6.45,6.45,0,0,0,126.53,54a5.2,5.2,0,0,0-3.13-1.52,4.8,4.8,0,0,0-.93,0,4.75,4.75,0,0,0-.9.17,5.61,5.61,0,0,0-1.6.81,9.88,9.88,0,0,0-2.24,2.39c-.61.85-1.13,1.72-1.65,2.55-.27.4-.55.79-.82,1.18s-.6.75-.9,1.13a24.09,24.09,0,0,1-4.4,3.94,44.92,44.92,0,0,1-11,5.37c-3.94,1.36-8,2.46-12,3.82a45.89,45.89,0,0,0-11.14,5.3,30.11,30.11,0,0,0-8,8.2c-.52.75-1,1.54-1.4,2.3s-.81,1.55-1.14,2.34-.64,1.56-.94,2.32l-.36,1.16c-.06.19-.13.38-.18.57l-.15.57a26.69,26.69,0,0,0-.92,8.36,8.91,8.91,0,0,0,.89,3.38,5.94,5.94,0,0,0,1.92,2.19,5.07,5.07,0,0,0,1.09.55,4.07,4.07,0,0,0,1,.22,3.37,3.37,0,0,0,1.51-.22,3.48,3.48,0,0,0,1.75-1.51,1.34,1.34,0,0,0,.12-.24,25.41,25.41,0,0,1,2.8.89,29,29,0,0,0,3.83,1.19,10.69,10.69,0,0,0,2,.23,7.29,7.29,0,0,0,1.9-.2A6.14,6.14,0,0,0,84.22,110a3.07,3.07,0,0,0,.92-1.33v0a32.37,32.37,0,0,0,4.37,2.3,12.63,12.63,0,0,0,6.27,1.07,8,8,0,0,0,4.53-2.07,5.05,5.05,0,0,0,1.44-2.19,4.61,4.61,0,0,0,.09-.62,1.62,1.62,0,0,0,0-.23c.63.07,1.27.12,1.93.14a20.33,20.33,0,0,0,6.87-.92,14.52,14.52,0,0,0,5.6-3.25,9.31,9.31,0,0,0,1.71-2.22,7,7,0,0,0,.77-2.2,5,5,0,0,0-.2-2.68,2.92,2.92,0,0,0-.41-.7,21,21,0,0,0,3.41-2.72c.34-.36.7-.7,1-1.08s.64-.73.91-1.12.56-.75.81-1.13.47-.77.67-1.16a7.19,7.19,0,0,0,.77-2.38,4.36,4.36,0,0,0-.2-2.11,3.77,3.77,0,0,0-.79-1.33,2.08,2.08,0,0,0-1.12-.68,19.25,19.25,0,0,0,1.62-2c.15-.21.31-.41.44-.63l.39-.66a11.89,11.89,0,0,0,.71-1.31,10.43,10.43,0,0,0,1-2.68,5.25,5.25,0,0,0-.07-2.65,3.11,3.11,0,0,0-.55-1.09,3.53,3.53,0,0,0-.78-.73,3.22,3.22,0,0,0-1.53-.54h-.41q.33-.46.66-1C125.27,67.82,125.47,67.47,125.68,67.13Z"/><path class="cls-4" d="M125.64,78.76l.39-.66a11.89,11.89,0,0,0,.71-1.31,10.43,10.43,0,0,0,1-2.68,5.25,5.25,0,0,0-.07-2.65,3.11,3.11,0,0,0-.55-1.09,3.53,3.53,0,0,0-.78-.73,3.22,3.22,0,0,0-1.53-.54h-.41q.33-.46.66-1c.23-.32.43-.67.64-1,.11-.18.22-.35.32-.53l.29-.54c.19-.37.4-.73.57-1.12a21.09,21.09,0,0,0,1-2.42,12.46,12.46,0,0,0,.62-2.74,8.21,8.21,0,0,0-.26-3.05A6.45,6.45,0,0,0,126.53,54a5.19,5.19,0,0,0-3.07-1.51c1,2.82.19,6.1-.95,8.82a45.12,45.12,0,0,1-2.86,5.47c-1.13,1.91-2.33,3.78-3.61,5.59-1.44,2.06-3,4.05-4.61,6-.11.12,0,.36.19.24a16.72,16.72,0,0,1,4.89-2.44,17.21,17.21,0,0,1,2.58-.58c.81-.11,2-.25,2.39.65a3,3,0,0,1-.32,2.4,10.79,10.79,0,0,1-1.15,2,16.41,16.41,0,0,1-3.48,3.38A49.32,49.32,0,0,1,112,86.8a.16.16,0,0,0,.12.29,8.57,8.57,0,0,1,4.52-.58A3.12,3.12,0,0,1,119,89a2.83,2.83,0,0,1-.69,1.91A20,20,0,0,1,117,92.48a24.15,24.15,0,0,1-7,5.16.16.16,0,0,0,.12.29,1.24,1.24,0,0,1,1.41.63,1.73,1.73,0,0,1,.07,1.72,6,6,0,0,1-3,2.31,20.61,20.61,0,0,1-7.93,2,20.31,20.31,0,0,1-4.67-.3.16.16,0,0,0-.15.26c.81.87.13,2.21-.77,2.69a7.51,7.51,0,0,1-3.85.4,39.52,39.52,0,0,1-12.67-2.75.15.15,0,0,0-.2.15c.06,2.24-2.47,3.17-4.33,3.3-2.5.17-4.91-1-7.43-.64a4.43,4.43,0,0,0-2.62,1.42,6,6,0,0,0,1.4,1.36,5.07,5.07,0,0,0,1.09.55,4.07,4.07,0,0,0,1,.22,3.37,3.37,0,0,0,1.51-.22,3.48,3.48,0,0,0,1.75-1.51,1.34,1.34,0,0,0,.12-.24,25.41,25.41,0,0,1,2.8.89,29,29,0,0,0,3.83,1.19,10.69,10.69,0,0,0,2,.23,7.29,7.29,0,0,0,1.9-.2A6.14,6.14,0,0,0,84.22,110a3.07,3.07,0,0,0,.92-1.33v0a32.37,32.37,0,0,0,4.37,2.3,12.63,12.63,0,0,0,6.27,1.07,8,8,0,0,0,4.53-2.07,5.05,5.05,0,0,0,1.44-2.19,4.61,4.61,0,0,0,.09-.62,1.62,1.62,0,0,0,0-.23c.63.07,1.27.12,1.93.14a20.33,20.33,0,0,0,6.87-.92,14.52,14.52,0,0,0,5.6-3.25,9.31,9.31,0,0,0,1.71-2.22,7,7,0,0,0,.77-2.2,5,5,0,0,0-.2-2.68,2.92,2.92,0,0,0-.41-.7,21,21,0,0,0,3.41-2.72c.34-.36.7-.7,1-1.08s.64-.73.91-1.12.56-.75.81-1.13.47-.77.67-1.16a7.19,7.19,0,0,0,.77-2.38,4.36,4.36,0,0,0-.2-2.11,3.77,3.77,0,0,0-.79-1.33,2.08,2.08,0,0,0-1.12-.68,19.25,19.25,0,0,0,1.62-2C125.35,79.18,125.51,79,125.64,78.76Z"/><path class="cls-5" d="M103.09,80.39a2,2,0,0,0-.34,1,12.72,12.72,0,0,1-.57,1.79,7.86,7.86,0,0,1-1.29,2.07,6.38,6.38,0,0,1-1,.91,5.54,5.54,0,0,1-1.14.7c-.2.1-.42.18-.63.26a4.84,4.84,0,0,1-.65.19,6.62,6.62,0,0,1-1.31.21A14.89,14.89,0,0,1,92.12,87c-.43-.06-.58,0-.49.27a2.84,2.84,0,0,0,1.05,1,6.44,6.44,0,0,0,1.84.78,8,8,0,0,1-1.46,3.7,3.89,3.89,0,0,1-.74.72,3.85,3.85,0,0,1-.89.54,4.5,4.5,0,0,1-1,.33,5.47,5.47,0,0,1-1.06.12A11.36,11.36,0,0,1,86,93.87c-.37-.08-.54,0-.51.22a2.05,2.05,0,0,0,.75,1,5.28,5.28,0,0,0,2,1.06c.18,0,.37.08.57.12a1.14,1.14,0,0,0-.17.31,9.35,9.35,0,0,1-.59,1.53,3.78,3.78,0,0,1-.57.76,3.72,3.72,0,0,1-.82.63c-.6.36-1.27.56-1.73.85-.23.14-.32.29-.26.45a1,1,0,0,0,.61.46,3.09,3.09,0,0,0,1.34.13,4,4,0,0,0,1.61-.57,3.88,3.88,0,0,0,1.26-1.32A3.64,3.64,0,0,0,90,98a2.6,2.6,0,0,0-.33-1.61,6.16,6.16,0,0,0,1.53-.15,5.65,5.65,0,0,0,2.73-1.52,5.72,5.72,0,0,0,.89-1.18c.12-.2.21-.41.31-.61a5.79,5.79,0,0,0,.22-.62,5.22,5.22,0,0,0,.2-2.1,2.91,2.91,0,0,0-.25-1A7.71,7.71,0,0,0,98.52,89a7.11,7.11,0,0,0,3.1-1.79,6.94,6.94,0,0,0,1.07-1.33,5.36,5.36,0,0,0,.4-.69,5.26,5.26,0,0,0,.3-.7,6.66,6.66,0,0,0,.46-2.42,3.54,3.54,0,0,0-.19-1.28C103.42,80.36,103.23,80.27,103.09,80.39Zm-2.21,11.48c-.3-.28-.49-.3-.61-.18a1.29,1.29,0,0,0-.22.72,10.32,10.32,0,0,1-.22,1.27,5.21,5.21,0,0,1-.64,1.5,3.92,3.92,0,0,1-.52.71,3.72,3.72,0,0,1-.67.58,3.84,3.84,0,0,1-.79.45,5.48,5.48,0,0,1-.86.3,14.74,14.74,0,0,1-3,.25c-.34,0-.48.15-.41.35a1.81,1.81,0,0,0,.83.75,4.92,4.92,0,0,0,2,.51,5.64,5.64,0,0,0,2.52-.48,5.13,5.13,0,0,0,2.12-1.73,5.35,5.35,0,0,0,.93-2.27,4.74,4.74,0,0,0-.06-1.84A2.27,2.27,0,0,0,100.88,91.87Zm24.8-24.74c.11-.18.22-.35.32-.53l.29-.54c.19-.37.4-.73.57-1.12a21.09,21.09,0,0,0,1-2.42,12.46,12.46,0,0,0,.62-2.74,8.21,8.21,0,0,0-.26-3.05A6.45,6.45,0,0,0,126.53,54a5.2,5.2,0,0,0-3.13-1.52,4.8,4.8,0,0,0-.93,0,4.75,4.75,0,0,0-.9.17,5.61,5.61,0,0,0-1.6.81,9.88,9.88,0,0,0-2.24,2.39c-.61.85-1.13,1.72-1.65,2.55-.27.4-.55.79-.82,1.18s-.6.75-.9,1.13a24.09,24.09,0,0,1-4.4,3.94,44.92,44.92,0,0,1-11,5.37c-3.94,1.36-8,2.46-12,3.82a45.89,45.89,0,0,0-11.14,5.3,30.11,30.11,0,0,0-8,8.2c-.52.75-1,1.54-1.4,2.3s-.81,1.55-1.14,2.34-.64,1.56-.94,2.32l-.36,1.16c-.06.19-.13.38-.18.57l-.15.57a26.69,26.69,0,0,0-.92,8.36,8.91,8.91,0,0,0,.89,3.38,5.94,5.94,0,0,0,1.92,2.19,5.07,5.07,0,0,0,1.09.55,4.07,4.07,0,0,0,1,.22,3.37,3.37,0,0,0,1.51-.22,3.48,3.48,0,0,0,1.75-1.51,1.34,1.34,0,0,0,.12-.24,25.41,25.41,0,0,1,2.8.89,29,29,0,0,0,3.83,1.19,10.69,10.69,0,0,0,2,.23,7.29,7.29,0,0,0,1.9-.2A6.14,6.14,0,0,0,84.22,110a3.07,3.07,0,0,0,.92-1.33v0a32.37,32.37,0,0,0,4.37,2.3,12.63,12.63,0,0,0,6.27,1.07,8,8,0,0,0,4.53-2.07,5.05,5.05,0,0,0,1.44-2.19,4.61,4.61,0,0,0,.09-.62,1.62,1.62,0,0,0,0-.23c.63.07,1.27.12,1.93.14a20.33,20.33,0,0,0,6.87-.92,14.52,14.52,0,0,0,5.6-3.25,9.31,9.31,0,0,0,1.71-2.22,7,7,0,0,0,.77-2.2,5,5,0,0,0-.2-2.68,2.92,2.92,0,0,0-.41-.7,21,21,0,0,0,3.41-2.72c.34-.36.7-.7,1-1.08s.64-.73.91-1.12.56-.75.81-1.13.47-.77.67-1.16a7.19,7.19,0,0,0,.77-2.38,4.36,4.36,0,0,0-.2-2.11,3.77,3.77,0,0,0-.79-1.33,2.08,2.08,0,0,0-1.12-.68,19.25,19.25,0,0,0,1.62-2c.15-.21.31-.41.44-.63l.39-.66a11.89,11.89,0,0,0,.71-1.31,10.43,10.43,0,0,0,1-2.68,5.25,5.25,0,0,0-.07-2.65,3.11,3.11,0,0,0-.55-1.09,3.53,3.53,0,0,0-.78-.73,3.22,3.22,0,0,0-1.53-.54h-.41q.33-.46.66-1C125.27,67.82,125.47,67.47,125.68,67.13Zm-3.24,2.2A28.33,28.33,0,0,1,117,74.76a31.77,31.77,0,0,1-4.72,2.95c-.65.32-1.16.59-1.55.75a5.83,5.83,0,0,0-.74.39c-.21.17.11.14.91-.06a19.85,19.85,0,0,0,3.66-1.4,26.41,26.41,0,0,0,5.46-3.61c.25-.2.49-.42.73-.65s.5-.45.74-.7c.48-.49,1-1,1.45-1.56.24-.27.48-.55.7-.84a2.06,2.06,0,0,1,1,.11,2.52,2.52,0,0,1,.55.3,2.24,2.24,0,0,1,.51.47,1.8,1.8,0,0,1,.34.62,3,3,0,0,1,.13.87,5.55,5.55,0,0,1-.45,2.09,10.62,10.62,0,0,1-.54,1.14c-.22.39-.43.79-.67,1.18a21.2,21.2,0,0,1-3.6,4.36,23.07,23.07,0,0,1-4.51,3.26,26.81,26.81,0,0,1-4.35,1.9l-.92.3-.83.24c-.52.17-1,.28-1.3.4-.69.25-.78.42-.38.53a4.89,4.89,0,0,0,1,.13,13.18,13.18,0,0,0,1.58-.06,18.44,18.44,0,0,0,4.5-1.1,20.31,20.31,0,0,0,5.13-2.87,20.66,20.66,0,0,0,2.33-2.07,3.58,3.58,0,0,1,.74,1,3.36,3.36,0,0,1,.38,1.32,4.22,4.22,0,0,1-.27,1.71A8.81,8.81,0,0,1,123,87.77c-.22.33-.5.66-.77,1-.14.17-.26.34-.41.51l-.45.49a22.27,22.27,0,0,1-4.19,3.57,24.55,24.55,0,0,1-4.82,2.44A29.86,29.86,0,0,1,107.89,97l-.93.18c-.3,0-.58.08-.83.13-.52.1-1,.15-1.3.23-.69.16-.81.32-.44.48a5,5,0,0,0,.9.24,4.62,4.62,0,0,0,.69.09l.84.06a18.69,18.69,0,0,0,4.47-.44,21.31,21.31,0,0,0,5.34-2c.36-.19.72-.4,1.07-.62a7.88,7.88,0,0,1,0,1.59,6.57,6.57,0,0,1-1.49,3.55,11.84,11.84,0,0,1-4.4,3.15,18.32,18.32,0,0,1-6.06,1.39,28.14,28.14,0,0,1-6.2-.33c-2-.29-3.75-.69-5.25-1a27.75,27.75,0,0,0-3.51-.59c-1.57-.11-.59.52,1.87,1.48a41.29,41.29,0,0,0,4.74,1.52,31.74,31.74,0,0,0,4,.77,8.64,8.64,0,0,1-1,1.29,7,7,0,0,1-3.27,1.92c-.19.05-.38.1-.57.13a4.14,4.14,0,0,1-.6.09,6,6,0,0,1-.61,0c-.21,0-.43,0-.65,0a11,11,0,0,1-2.72-.52,26.49,26.49,0,0,1-5.58-2.71,38.21,38.21,0,0,0-5.68-3,12.1,12.1,0,0,0-5.42-.88,7.25,7.25,0,0,0-2,.46,4.43,4.43,0,0,0-1.27.72c-.58.5-.54.68-.15.63a18.13,18.13,0,0,1,2.31-.39,11.3,11.3,0,0,1,4.28.57,25.8,25.8,0,0,1,5.21,2.57l.77.46a4.1,4.1,0,0,1-.42.34,5.06,5.06,0,0,1-.82.51,5.42,5.42,0,0,1-1.14.43,6.81,6.81,0,0,1-1.41.23,7.19,7.19,0,0,1-1.58-.09c-2.23-.32-4.75-1.59-7.23-2.07a8.82,8.82,0,0,0-3.34-.07,3.76,3.76,0,0,0-2,.9c-.33.36-.29.53,0,.57s.73,0,1.38-.07a10.49,10.49,0,0,1,2.5.23,3,3,0,0,1-.72.69,2.77,2.77,0,0,1-1.83.52,3.71,3.71,0,0,1-2.21-1.06,5.25,5.25,0,0,1-.91-1.16,6,6,0,0,1-.58-1.51,12,12,0,0,1-.22-3.75,29.82,29.82,0,0,1,.65-4.31c.14-.75.39-1.49.6-2.26s.49-1.52.82-2.27.67-1.52,1-2.29l.61-1.13c.19-.39.44-.74.66-1.12a28.93,28.93,0,0,1,3.22-4.31,29.88,29.88,0,0,1,4.14-3.77,32.24,32.24,0,0,1,5-3A74.52,74.52,0,0,1,92.19,74.2c2-.61,4-1.22,6.08-1.88s4.06-1.42,6-2.29A40.25,40.25,0,0,0,110,67a26.26,26.26,0,0,0,5-4.06c.35-.4.73-.77,1.06-1.19l.49-.62.25-.31.22-.33c.29-.43.61-.86.87-1.3l.78-1.27a15.2,15.2,0,0,1,1.65-2.25,4.21,4.21,0,0,1,2-1.32,2.92,2.92,0,0,1,2.2.3,4.76,4.76,0,0,1,2.1,2.77,5.91,5.91,0,0,1,.19,1.19,8.6,8.6,0,0,1-.22,2.42,19.74,19.74,0,0,1-1.74,4.49A26.81,26.81,0,0,1,122.44,69.33Zm-14.69,1.92a15.85,15.85,0,0,0-3,1l-6,2.31c-2.42.93-5.19,2-8.06,3.28-1.44.64-2.9,1.34-4.34,2.11-.73.38-1.44.8-2.15,1.21s-1.42.86-2.09,1.34-1.34,1-2,1.44c-.32.25-.63.52-.94.77s-.62.52-.92.79A31.77,31.77,0,0,0,75,88.84a23.41,23.41,0,0,0-4,6.87c-.18.54-.37,1-.49,1.53s-.22,1-.3,1.37a12,12,0,0,0-.16,2.14c0,1.11.19,1.25.41.68a14,14,0,0,0,.4-1.35c.1-.3.2-.63.31-1a4.3,4.3,0,0,1,.2-.57l.23-.62A23.9,23.9,0,0,1,74.84,92c.4-.53.81-1.07,1.28-1.59s.94-1,1.45-1.58a33.92,33.92,0,0,1,3.37-3,47.78,47.78,0,0,1,8-5c2.78-1.43,5.56-2.66,8.06-3.76s4.69-2.08,6.36-2.91a35.71,35.71,0,0,0,3.29-1.76C107.81,71.59,108.12,71.24,107.75,71.25Z"/><path class="cls-3" d="M147.71,49.64c.11-.17.22-.34.32-.52l.29-.55c.19-.37.4-.73.57-1.12a20.24,20.24,0,0,0,1-2.41,13.14,13.14,0,0,0,.61-2.75,8,8,0,0,0-.26-3,6.51,6.51,0,0,0-1.68-2.78A5.19,5.19,0,0,0,145.43,35a4,4,0,0,0-.92,0,4.49,4.49,0,0,0-.9.18,5.77,5.77,0,0,0-1.61.8,10.06,10.06,0,0,0-2.24,2.39c-.6.85-1.12,1.73-1.65,2.55-.27.41-.54.79-.82,1.19s-.6.75-.9,1.13a23.68,23.68,0,0,1-4.4,3.93,44.57,44.57,0,0,1-11.05,5.37c-3.94,1.37-8,2.46-12,3.83a45.67,45.67,0,0,0-11.14,5.29,30.14,30.14,0,0,0-8,8.21c-.52.75-1,1.53-1.4,2.3s-.81,1.55-1.14,2.33-.63,1.57-.93,2.33l-.37,1.15c-.06.19-.13.38-.18.57l-.14.57a26.75,26.75,0,0,0-.93,8.36,8.91,8.91,0,0,0,.89,3.38A6,6,0,0,0,87.48,93a5.13,5.13,0,0,0,1.09.56,5.21,5.21,0,0,0,1,.22,3.51,3.51,0,0,0,1.51-.22,3.6,3.6,0,0,0,1.76-1.51,2.68,2.68,0,0,1,.12-.24,26.63,26.63,0,0,1,2.8.88,28.58,28.58,0,0,0,3.83,1.19,10.61,10.61,0,0,0,2,.24,7.82,7.82,0,0,0,1.91-.21,6.19,6.19,0,0,0,2.73-1.38,3.15,3.15,0,0,0,.92-1.33h0a32.92,32.92,0,0,0,4.37,2.29,12.67,12.67,0,0,0,6.27,1.07,8,8,0,0,0,4.53-2.06,4,4,0,0,0,1.54-2.81c0-.09,0-.17,0-.24.63.07,1.27.12,1.92.14a20.29,20.29,0,0,0,6.87-.91,14.5,14.5,0,0,0,5.6-3.25A9.16,9.16,0,0,0,140,83.2a6.68,6.68,0,0,0,.77-2.2,4.92,4.92,0,0,0-.2-2.68,2.82,2.82,0,0,0-.41-.69,21,21,0,0,0,3.41-2.73c.34-.36.7-.7,1-1.08s.63-.73.91-1.11.55-.76.8-1.14a12.39,12.39,0,0,0,.67-1.16,7.38,7.38,0,0,0,.78-2.38,4.44,4.44,0,0,0-.21-2.1,3.55,3.55,0,0,0-.79-1.33,2.06,2.06,0,0,0-1.11-.69,20.64,20.64,0,0,0,1.62-2c.14-.21.3-.41.43-.63l.4-.65c.27-.43.48-.88.7-1.31a10.53,10.53,0,0,0,1-2.69,5.37,5.37,0,0,0-.07-2.65,3.61,3.61,0,0,0-.55-1.09,4,4,0,0,0-.78-.72,3.28,3.28,0,0,0-1.53-.55,2.66,2.66,0,0,0-.41,0q.32-.48.66-1C147.31,50.34,147.5,50,147.71,49.64Z"/><path class="cls-4" d="M147.67,61.27l.4-.65c.27-.43.48-.88.7-1.31a10.53,10.53,0,0,0,1-2.69,5.37,5.37,0,0,0-.07-2.65,3.61,3.61,0,0,0-.55-1.09,4,4,0,0,0-.78-.72,3.28,3.28,0,0,0-1.53-.55,2.66,2.66,0,0,0-.41,0q.32-.48.66-1c.23-.32.42-.68.63-1,.11-.17.22-.34.32-.52l.29-.55c.19-.37.4-.73.57-1.12a20.24,20.24,0,0,0,1-2.41,13.14,13.14,0,0,0,.61-2.75,8,8,0,0,0-.26-3,6.51,6.51,0,0,0-1.68-2.78A5.18,5.18,0,0,0,145.5,35c1,2.81.18,6.09-1,8.81a45.12,45.12,0,0,1-2.86,5.47c-1.12,1.91-2.33,3.78-3.6,5.59q-2.18,3.09-4.62,6c-.11.13,0,.36.19.25a16.75,16.75,0,0,1,4.89-2.45,16.28,16.28,0,0,1,2.58-.57c.81-.11,2-.26,2.4.65a3,3,0,0,1-.33,2.4A10.71,10.71,0,0,1,142,63a16.17,16.17,0,0,1-3.48,3.38,46.19,46.19,0,0,1-4.56,2.9.16.16,0,0,0,.12.29,8.57,8.57,0,0,1,4.52-.58,3.09,3.09,0,0,1,2.43,2.48,2.76,2.76,0,0,1-.69,1.91A16.48,16.48,0,0,1,139.05,75,25.35,25.35,0,0,1,136,77.77a24.8,24.8,0,0,1-3.88,2.39c-.16.08,0,.34.13.29a1.21,1.21,0,0,1,1.4.63,1.71,1.71,0,0,1,.07,1.71c-.56,1.15-1.89,1.78-3,2.32a20.6,20.6,0,0,1-7.93,2,20.19,20.19,0,0,1-4.66-.3.16.16,0,0,0-.16.27c.81.86.13,2.21-.77,2.69a7.6,7.6,0,0,1-3.85.39,39.61,39.61,0,0,1-8.25-1.29,40.11,40.11,0,0,1-4.42-1.46c-.09,0-.2.06-.2.15.06,2.24-2.47,3.18-4.33,3.3-2.5.17-4.9-1.05-7.42-.64a4.43,4.43,0,0,0-2.63,1.42A5.79,5.79,0,0,0,87.48,93a5.13,5.13,0,0,0,1.09.56,5.21,5.21,0,0,0,1,.22,3.51,3.51,0,0,0,1.51-.22,3.6,3.6,0,0,0,1.76-1.51,2.68,2.68,0,0,1,.12-.24,26.63,26.63,0,0,1,2.8.88,28.58,28.58,0,0,0,3.83,1.19,10.61,10.61,0,0,0,2,.24,7.82,7.82,0,0,0,1.91-.21,6.19,6.19,0,0,0,2.73-1.38,3.15,3.15,0,0,0,.92-1.33h0a32.92,32.92,0,0,0,4.37,2.29,12.67,12.67,0,0,0,6.27,1.07,8,8,0,0,0,4.53-2.06,4,4,0,0,0,1.54-2.81c0-.09,0-.17,0-.24.63.07,1.27.12,1.92.14a20.29,20.29,0,0,0,6.87-.91,14.5,14.5,0,0,0,5.6-3.25A9.16,9.16,0,0,0,140,83.2a6.68,6.68,0,0,0,.77-2.2,4.92,4.92,0,0,0-.2-2.68,2.82,2.82,0,0,0-.41-.69,21,21,0,0,0,3.41-2.73c.34-.36.7-.7,1-1.08s.63-.73.91-1.11.55-.76.8-1.14a12.39,12.39,0,0,0,.67-1.16,7.38,7.38,0,0,0,.78-2.38,4.44,4.44,0,0,0-.21-2.1,3.55,3.55,0,0,0-.79-1.33,2.06,2.06,0,0,0-1.11-.69,20.64,20.64,0,0,0,1.62-2C147.38,61.69,147.54,61.49,147.67,61.27Z"/><path class="cls-4" d="M129,54.29c-3.17,1.38-6.34,2.76-9.49,4.19s-6.26,2.89-9.33,4.46a55.51,55.51,0,0,0-8.33,4.88,23.31,23.31,0,0,0-5.95,6.68,39.31,39.31,0,0,0-3.6,8.12c-.12.34-.23.69-.34,1-.06.19.25.28.31.08l0-.12a.18.18,0,0,0,.09-.07,37.38,37.38,0,0,1,12.45-13,69.25,69.25,0,0,1,9.05-4.49,53,53,0,0,0,8.6-4.45,20.59,20.59,0,0,0,6.18-6.15c.19-.31.37-.63.54-1A.16.16,0,0,0,129,54.29Z"/><path class="cls-4" d="M125.22,67.21a.16.16,0,0,0-.27,0,8.12,8.12,0,0,1-3.62,3,7.66,7.66,0,0,1-2.3.6,2.87,2.87,0,0,0-1.09.22,1.12,1.12,0,0,0-.52.9,7.73,7.73,0,0,1-.61,2.21,7.49,7.49,0,0,1-1.22,1.88,7.66,7.66,0,0,1-1.72,1.44,7.76,7.76,0,0,1-1,.52c-.35.14-.73.22-1.07.38a1.58,1.58,0,0,0-.76,1,10.83,10.83,0,0,1-.51,1.38,8.94,8.94,0,0,1-1.67,2.45c-.14.15.08.37.22.23s.35-.38.51-.58a2.71,2.71,0,0,0,2.31,0,7.85,7.85,0,0,0,2-1.47A6.21,6.21,0,0,1,116.15,80c.89-.27,1.83-.29,2.73-.47a5.3,5.3,0,0,0,3.66-2.78c.38-.78.45-1.67.88-2.42a6.08,6.08,0,0,1,.9-1.07,5.31,5.31,0,0,0,.68-.95A5.68,5.68,0,0,0,125.22,67.21Z"/><path class="cls-5" d="M125.12,62.9a2,2,0,0,0-.34,1,11.6,11.6,0,0,1-.57,1.8,8,8,0,0,1-1.29,2.07,6.31,6.31,0,0,1-1,.9,5.54,5.54,0,0,1-1.14.7c-.2.11-.42.18-.63.27s-.42.14-.65.19a8.31,8.31,0,0,1-1.31.21,14.92,14.92,0,0,1-4.08-.46c-.42-.06-.58,0-.49.27a2.7,2.7,0,0,0,1,1,6.73,6.73,0,0,0,1.84.79,8.05,8.05,0,0,1-1.46,3.7,4.21,4.21,0,0,1-.74.72,3.65,3.65,0,0,1-.89.54,4,4,0,0,1-1,.32,4.79,4.79,0,0,1-1.06.12,11.42,11.42,0,0,1-3.35-.62c-.37-.08-.54,0-.5.21a2,2,0,0,0,.74,1,5.19,5.19,0,0,0,2,1,5.05,5.05,0,0,0,.56.12,1,1,0,0,0-.16.32,9.81,9.81,0,0,1-.6,1.52,3.27,3.27,0,0,1-.57.77,4.23,4.23,0,0,1-.81.62c-.6.37-1.28.57-1.74.85-.22.15-.32.29-.26.45a1,1,0,0,0,.61.46,3.1,3.1,0,0,0,1.34.13,3.86,3.86,0,0,0,1.61-.57,3.76,3.76,0,0,0,1.26-1.31,3.86,3.86,0,0,0,.48-1.54,2.64,2.64,0,0,0-.33-1.62,5.8,5.8,0,0,0,1.53-.15,5.59,5.59,0,0,0,3.61-2.7,5,5,0,0,0,.31-.61,5.65,5.65,0,0,0,.22-.61,5.44,5.44,0,0,0,.21-2.1,3.37,3.37,0,0,0-.25-1,7.83,7.83,0,0,0,3.2-.2,7.23,7.23,0,0,0,3.1-1.8,7.35,7.35,0,0,0,1.08-1.32c.15-.23.27-.47.4-.7s.22-.46.3-.69a7.17,7.17,0,0,0,.46-2.43,3.47,3.47,0,0,0-.2-1.28C125.45,62.88,125.26,62.78,125.12,62.9Zm-2.21,11.48c-.29-.28-.49-.3-.61-.18a1.33,1.33,0,0,0-.21.72,10.26,10.26,0,0,1-.23,1.27,5.52,5.52,0,0,1-.63,1.51,4.44,4.44,0,0,1-.53.7A3.72,3.72,0,0,1,120,79a3.84,3.84,0,0,1-.79.45,5.48,5.48,0,0,1-.86.3,13.4,13.4,0,0,1-3,.25c-.34,0-.48.15-.41.35a1.7,1.7,0,0,0,.84.75,4.67,4.67,0,0,0,2,.51,5.63,5.63,0,0,0,2.52-.47,5.25,5.25,0,0,0,2.13-1.74,5.47,5.47,0,0,0,.92-2.26,4.79,4.79,0,0,0-.06-1.85A2.13,2.13,0,0,0,122.91,74.38Zm24.8-24.74c.11-.17.22-.34.32-.52l.29-.55c.19-.37.4-.73.57-1.12a20.24,20.24,0,0,0,1-2.41,13.14,13.14,0,0,0,.61-2.75,8,8,0,0,0-.26-3,6.51,6.51,0,0,0-1.68-2.78A5.19,5.19,0,0,0,145.43,35a4,4,0,0,0-.92,0,4.49,4.49,0,0,0-.9.18,5.77,5.77,0,0,0-1.61.8,10.06,10.06,0,0,0-2.24,2.39c-.6.85-1.12,1.73-1.65,2.55-.27.41-.54.79-.82,1.19s-.6.75-.9,1.13a23.68,23.68,0,0,1-4.4,3.93,44.57,44.57,0,0,1-11.05,5.37c-3.94,1.37-8,2.46-12,3.83a45.67,45.67,0,0,0-11.14,5.29,30.14,30.14,0,0,0-8,8.21c-.52.75-1,1.53-1.4,2.3s-.81,1.55-1.14,2.33-.63,1.57-.93,2.33l-.37,1.15c-.06.19-.13.38-.18.57l-.14.57a26.75,26.75,0,0,0-.93,8.36,8.91,8.91,0,0,0,.89,3.38A6,6,0,0,0,87.48,93a5.13,5.13,0,0,0,1.09.56,5.21,5.21,0,0,0,1,.22,3.51,3.51,0,0,0,1.51-.22,3.6,3.6,0,0,0,1.76-1.51,2.68,2.68,0,0,1,.12-.24,26.63,26.63,0,0,1,2.8.88,28.58,28.58,0,0,0,3.83,1.19,10.61,10.61,0,0,0,2,.24,7.82,7.82,0,0,0,1.91-.21,6.19,6.19,0,0,0,2.73-1.38,3.15,3.15,0,0,0,.92-1.33h0a32.92,32.92,0,0,0,4.37,2.29,12.67,12.67,0,0,0,6.27,1.07,8,8,0,0,0,4.53-2.06,4,4,0,0,0,1.54-2.81c0-.09,0-.17,0-.24.63.07,1.27.12,1.92.14a20.29,20.29,0,0,0,6.87-.91,14.5,14.5,0,0,0,5.6-3.25A9.16,9.16,0,0,0,140,83.2a6.68,6.68,0,0,0,.77-2.2,4.92,4.92,0,0,0-.2-2.68,2.82,2.82,0,0,0-.41-.69,21,21,0,0,0,3.41-2.73c.34-.36.7-.7,1-1.08s.63-.73.91-1.11.55-.76.8-1.14a12.39,12.39,0,0,0,.67-1.16,7.38,7.38,0,0,0,.78-2.38,4.44,4.44,0,0,0-.21-2.1,3.55,3.55,0,0,0-.79-1.33,2.06,2.06,0,0,0-1.11-.69,20.64,20.64,0,0,0,1.62-2c.14-.21.3-.41.43-.63l.4-.65c.27-.43.48-.88.7-1.31a10.53,10.53,0,0,0,1-2.69,5.37,5.37,0,0,0-.07-2.65,3.61,3.61,0,0,0-.55-1.09,4,4,0,0,0-.78-.72,3.28,3.28,0,0,0-1.53-.55,2.66,2.66,0,0,0-.41,0q.32-.48.66-1C147.31,50.34,147.5,50,147.71,49.64Zm-3.24,2.2a27.77,27.77,0,0,1-5.41,5.43,31.09,31.09,0,0,1-4.71,3c-.66.32-1.17.58-1.56.75a5.47,5.47,0,0,0-.73.39c-.22.16.1.13.9-.07a20.15,20.15,0,0,0,3.67-1.4,26.28,26.28,0,0,0,5.45-3.6c.25-.2.49-.43.74-.66l.74-.69c.47-.5,1-1,1.44-1.56.25-.27.48-.56.71-.85a2.05,2.05,0,0,1,1,.12,2.44,2.44,0,0,1,.55.29,2.3,2.3,0,0,1,.51.48,1.8,1.8,0,0,1,.34.62,2.93,2.93,0,0,1,.13.86,5.37,5.37,0,0,1-.45,2.09,9.11,9.11,0,0,1-.54,1.15c-.22.38-.42.79-.67,1.17a21,21,0,0,1-3.6,4.37,23.12,23.12,0,0,1-4.51,3.25,26.25,26.25,0,0,1-4.34,1.9c-.33.1-.64.21-.93.31l-.83.24c-.52.17-1,.27-1.3.4-.68.24-.78.42-.38.53a5.07,5.07,0,0,0,1,.12,15.32,15.32,0,0,0,1.58,0,18.87,18.87,0,0,0,4.51-1.1,21.06,21.06,0,0,0,7.45-5,4,4,0,0,1,.75,1,3.54,3.54,0,0,1,.37,1.33,3.86,3.86,0,0,1-.27,1.7A9.17,9.17,0,0,1,145,70.28c-.23.34-.51.67-.78,1a6.54,6.54,0,0,1-.41.51l-.44.49a22,22,0,0,1-4.2,3.57,23.5,23.5,0,0,1-4.82,2.44,28.52,28.52,0,0,1-4.44,1.23l-.93.17-.83.13c-.52.11-1,.15-1.3.24-.69.16-.8.32-.43.48a4.74,4.74,0,0,0,.9.24,5.83,5.83,0,0,0,.69.09l.83,0a18.15,18.15,0,0,0,4.47-.44,21.31,21.31,0,0,0,5.34-2c.36-.19.72-.4,1.08-.61a9.6,9.6,0,0,1,0,1.58,6.54,6.54,0,0,1-1.5,3.55,11.69,11.69,0,0,1-4.39,3.15,18.14,18.14,0,0,1-6.06,1.39,28.83,28.83,0,0,1-6.21-.32c-2-.3-3.75-.69-5.25-1a29.63,29.63,0,0,0-3.5-.59c-1.58-.1-.6.52,1.87,1.49a44.61,44.61,0,0,0,4.73,1.52,31.6,31.6,0,0,0,4,.76,10.34,10.34,0,0,1-1,1.29,7.06,7.06,0,0,1-3.28,1.93c-.19,0-.37.1-.57.13s-.39.06-.59.09-.41,0-.62,0-.43,0-.65,0a10.91,10.91,0,0,1-2.72-.51,26.79,26.79,0,0,1-5.58-2.72,38.66,38.66,0,0,0-5.68-3,12.08,12.08,0,0,0-5.42-.88,8.14,8.14,0,0,0-2,.46,4.85,4.85,0,0,0-1.27.72c-.57.5-.54.69-.15.63a18.39,18.39,0,0,1,2.32-.39,11.58,11.58,0,0,1,4.28.58,25.94,25.94,0,0,1,5.2,2.56l.77.47-.41.33a6,6,0,0,1-.83.52,6.8,6.8,0,0,1-1.14.43,6.72,6.72,0,0,1-1.41.22,7.19,7.19,0,0,1-1.58-.09c-2.23-.32-4.75-1.59-7.23-2.06a9,9,0,0,0-3.34-.08,3.72,3.72,0,0,0-2,.91c-.33.36-.29.52,0,.56A12.31,12.31,0,0,0,90,91.46a10.46,10.46,0,0,1,2.49.23,3.21,3.21,0,0,1-.72.7,2.83,2.83,0,0,1-1.83.52,3.67,3.67,0,0,1-2.21-1.07,4.79,4.79,0,0,1-.9-1.16,6.09,6.09,0,0,1-.59-1.5A12.34,12.34,0,0,1,86,85.42a29.82,29.82,0,0,1,.65-4.31c.15-.75.39-1.49.6-2.25s.5-1.52.82-2.28.67-1.52,1-2.29l.61-1.13c.19-.38.44-.74.66-1.12a30.11,30.11,0,0,1,3.22-4.3A28.76,28.76,0,0,1,97.72,64a31,31,0,0,1,5-3,75.3,75.3,0,0,1,11.53-4.24c2-.61,4-1.21,6.08-1.88s4-1.41,6-2.28a42,42,0,0,0,5.7-3A26.91,26.91,0,0,0,137,45.46c.36-.4.73-.78,1.06-1.19l.49-.63.25-.31A3.62,3.62,0,0,0,139,43c.3-.44.62-.87.87-1.3l.79-1.27a14.58,14.58,0,0,1,1.64-2.26,4.21,4.21,0,0,1,2-1.31,2.86,2.86,0,0,1,2.19.3,4.41,4.41,0,0,1,1.65,1.67,4.65,4.65,0,0,1,.45,1.09,6,6,0,0,1,.19,1.19,8.57,8.57,0,0,1-.22,2.42,20,20,0,0,1-1.74,4.5A27.27,27.27,0,0,1,144.47,51.84Zm-14.69,1.93a16.31,16.31,0,0,0-3,1l-6,2.32c-2.41.93-5.18,2-8.06,3.27-1.43.64-2.89,1.34-4.34,2.12-.72.37-1.44.79-2.15,1.2s-1.41.86-2.09,1.34-1.34,1-2,1.45c-.33.25-.64.51-1,.77s-.62.52-.91.79a30.06,30.06,0,0,0-3.25,3.35,23.24,23.24,0,0,0-4,6.86c-.17.54-.36,1-.48,1.53s-.22,1-.31,1.37a11.86,11.86,0,0,0-.15,2.14c0,1.12.19,1.25.41.69.12-.29.22-.75.4-1.35.09-.3.2-.64.3-1,0-.18.13-.37.2-.57l.23-.61a24.09,24.09,0,0,1,3.27-5.9c.4-.52.81-1.07,1.28-1.59s.95-1,1.45-1.58a37.84,37.84,0,0,1,3.37-3,47.73,47.73,0,0,1,8-5c2.78-1.43,5.57-2.66,8.06-3.77s4.69-2.08,6.36-2.9a35.57,35.57,0,0,0,3.3-1.77C129.85,54.11,130.15,53.76,129.78,53.77Z"/><path class="cls-3" d="M89.84,110.93a3.55,3.55,0,0,1-1.76-1.51l-.12-.24a26.84,26.84,0,0,0-2.8.89,28.58,28.58,0,0,1-3.83,1.19,11.47,11.47,0,0,1-2,.23,7.37,7.37,0,0,1-1.91-.2,6.19,6.19,0,0,1-2.73-1.38,3.27,3.27,0,0,1-.92-1.33v0a33,33,0,0,1-4.37,2.3,12.67,12.67,0,0,1-6.27,1.07,8,8,0,0,1-4.53-2.07,5.05,5.05,0,0,1-1.44-2.19,4.87,4.87,0,0,1-.1-.62c0-.09,0-.16,0-.23-.63.07-1.27.12-1.92.14a20.29,20.29,0,0,1-6.87-.92,14.38,14.38,0,0,1-5.6-3.25A9.31,9.31,0,0,1,41,100.57a6.76,6.76,0,0,1-.77-2.2,4.92,4.92,0,0,1,.2-2.68,2.92,2.92,0,0,1,.41-.7,21,21,0,0,1-3.41-2.72c-.34-.37-.7-.7-1-1.08s-.63-.73-.91-1.12-.55-.75-.8-1.13A12.39,12.39,0,0,1,34,87.78a7.46,7.46,0,0,1-.78-2.38,4.48,4.48,0,0,1,.21-2.11A3.63,3.63,0,0,1,34.21,82a2.22,2.22,0,0,1,.71-.54,2.14,2.14,0,0,1,.4-.14,20.64,20.64,0,0,1-1.62-2c-.14-.21-.3-.41-.43-.63l-.4-.66a13.75,13.75,0,0,1-.7-1.31,10.46,10.46,0,0,1-1-2.68,5.37,5.37,0,0,1,.07-2.65,3.49,3.49,0,0,1,.55-1.09,3.77,3.77,0,0,1,.78-.73A3.25,3.25,0,0,1,34.11,69a2.79,2.79,0,0,1,.41,0l-.66-1c-.23-.32-.42-.67-.63-1-.11-.18-.22-.35-.32-.53l-.29-.54c-.19-.37-.4-.73-.57-1.12a21.12,21.12,0,0,1-1-2.42,13,13,0,0,1-.61-2.74,8,8,0,0,1,.26-3,6.45,6.45,0,0,1,1.68-2.78,5.2,5.2,0,0,1,3.13-1.52,4.7,4.7,0,0,1,.92,0,4.61,4.61,0,0,1,.9.17,5.8,5.8,0,0,1,1.61.81,10,10,0,0,1,2.24,2.38c.6.86,1.12,1.73,1.65,2.56l.81,1.18.91,1.13A24.09,24.09,0,0,0,49,64.5a45.28,45.28,0,0,0,11,5.37c3.94,1.36,8,2.45,12,3.82A46.06,46.06,0,0,1,83.13,79a30.11,30.11,0,0,1,8.05,8.2c.52.75.95,1.54,1.4,2.3s.81,1.55,1.14,2.34.63,1.56.93,2.32L95,95.31c.06.19.13.38.18.57l.14.57a26.71,26.71,0,0,1,.93,8.36"/><path class="cls-4" d="M89.84,110.93a3.55,3.55,0,0,1-1.76-1.51l-.12-.24a26.84,26.84,0,0,0-2.8.89,28.58,28.58,0,0,1-3.83,1.19,11.47,11.47,0,0,1-2,.23,7.37,7.37,0,0,1-1.91-.2,6.19,6.19,0,0,1-2.73-1.38,3.27,3.27,0,0,1-.92-1.33v0a33,33,0,0,1-4.37,2.3,12.67,12.67,0,0,1-6.27,1.07,8,8,0,0,1-4.53-2.07,5.05,5.05,0,0,1-1.44-2.19,4.87,4.87,0,0,1-.1-.62c0-.09,0-.16,0-.23-.63.07-1.27.12-1.92.14a20.29,20.29,0,0,1-6.87-.92,14.38,14.38,0,0,1-5.6-3.25A9.31,9.31,0,0,1,41,100.57a6.76,6.76,0,0,1-.77-2.2,4.92,4.92,0,0,1,.2-2.68,2.92,2.92,0,0,1,.41-.7,21,21,0,0,1-3.41-2.72c-.34-.37-.7-.7-1-1.08s-.63-.73-.91-1.12-.55-.75-.8-1.13A12.39,12.39,0,0,1,34,87.78a7.46,7.46,0,0,1-.78-2.38,4.48,4.48,0,0,1,.21-2.11A3.63,3.63,0,0,1,34.21,82a2.22,2.22,0,0,1,.71-.54,2.14,2.14,0,0,1,.4-.14,20.64,20.64,0,0,1-1.62-2c-.14-.21-.3-.41-.43-.63l-.4-.66a13.75,13.75,0,0,1-.7-1.31,10.46,10.46,0,0,1-1-2.68,5.37,5.37,0,0,1,.07-2.65,3.49,3.49,0,0,1,.55-1.09,3.77,3.77,0,0,1,.78-.73A3.25,3.25,0,0,1,34.11,69a2.79,2.79,0,0,1,.41,0l-.66-1c-.23-.32-.42-.67-.63-1-.11-.18-.22-.35-.32-.53l-.29-.54c-.19-.37-.4-.73-.57-1.12a21.12,21.12,0,0,1-1-2.42,13,13,0,0,1-.61-2.74,8,8,0,0,1,.26-3,6.45,6.45,0,0,1,1.68-2.78,5.19,5.19,0,0,1,3.06-1.51c-1,2.82-.18,6.1,1,8.82a45.88,45.88,0,0,0,2.86,5.47c1.12,1.91,2.33,3.78,3.6,5.59q2.18,3.09,4.62,6c.11.12,0,.36-.19.24A17,17,0,0,0,42.4,76a17.5,17.5,0,0,0-2.58-.58c-.81-.11-2-.25-2.4.65a3,3,0,0,0,.33,2.4,10.79,10.79,0,0,0,1.15,2,16.18,16.18,0,0,0,3.48,3.38,48,48,0,0,0,4.56,2.89c.15.09.05.35-.12.29a8.57,8.57,0,0,0-4.52-.58,3.1,3.1,0,0,0-2.43,2.49,2.78,2.78,0,0,0,.69,1.91,16.48,16.48,0,0,0,1.33,1.57A23.8,23.8,0,0,0,45,95.13a23.38,23.38,0,0,0,3.88,2.39c.16.08,0,.35-.13.29a1.22,1.22,0,0,0-1.4.63,1.73,1.73,0,0,0-.07,1.72,6,6,0,0,0,3,2.31,20.61,20.61,0,0,0,7.93,2,20.19,20.19,0,0,0,4.66-.3.16.16,0,0,1,.16.26c-.81.87-.13,2.21.77,2.69a7.39,7.39,0,0,0,3.85.39,39.59,39.59,0,0,0,8.25-1.28,40.11,40.11,0,0,0,4.42-1.46.16.16,0,0,1,.2.15c-.06,2.24,2.47,3.17,4.33,3.3,2.5.17,4.9-1,7.42-.64"/><path class="cls-5" d="M55.25,80.71a3.47,3.47,0,0,0-.2,1.28,7.11,7.11,0,0,0,.46,2.42c.08.24.2.46.3.7s.25.47.4.69a7.41,7.41,0,0,0,1.08,1.33,7.11,7.11,0,0,0,3.1,1.79,7.67,7.67,0,0,0,3.2.21,3.19,3.19,0,0,0-.25,1,5.44,5.44,0,0,0,.21,2.1,5.2,5.2,0,0,0,.53,1.23A5.72,5.72,0,0,0,65,94.59a5.57,5.57,0,0,0,2.72,1.52,6.25,6.25,0,0,0,1.53.15,2.6,2.6,0,0,0-.33,1.61,3.77,3.77,0,0,0,1.74,2.86,4,4,0,0,0,1.61.57,3.1,3.1,0,0,0,1.34-.13,1,1,0,0,0,.61-.46c.06-.16,0-.31-.26-.45-.46-.29-1.14-.49-1.74-.85a3.9,3.9,0,0,1-.81-.63,3.43,3.43,0,0,1-.57-.76,9.5,9.5,0,0,1-.6-1.53.91.91,0,0,0-.16-.31c.19,0,.38-.07.56-.12a5.32,5.32,0,0,0,2-1.06,2,2,0,0,0,.74-1c0-.23-.13-.3-.5-.22a11.37,11.37,0,0,1-3.35.63,5.47,5.47,0,0,1-1.06-.12,4.42,4.42,0,0,1-1-.33,3.65,3.65,0,0,1-.89-.54,3.89,3.89,0,0,1-.74-.72A8,8,0,0,1,64.39,89a6.44,6.44,0,0,0,1.84-.78,2.84,2.84,0,0,0,1-1c.09-.24-.07-.33-.49-.27a15,15,0,0,1-4.08.45,6.72,6.72,0,0,1-1.32-.21,5.31,5.31,0,0,1-.65-.19c-.2-.09-.42-.16-.62-.26A5.54,5.54,0,0,1,59,86a5.93,5.93,0,0,1-1-.91A7.86,7.86,0,0,1,56.73,83a11.52,11.52,0,0,1-.57-1.79,2,2,0,0,0-.34-1C55.68,80.15,55.49,80.24,55.25,80.71Zm2.39,11.93a4.74,4.74,0,0,0-.06,1.84,5.45,5.45,0,0,0,.92,2.27,5.22,5.22,0,0,0,2.13,1.73,5.64,5.64,0,0,0,2.52.48,4.82,4.82,0,0,0,1.95-.51,1.8,1.8,0,0,0,.84-.75c.07-.2-.07-.31-.41-.35a14.74,14.74,0,0,1-3-.25,6.74,6.74,0,0,1-.86-.3,4.37,4.37,0,0,1-.79-.45,3.78,3.78,0,0,1-.67-.59,4,4,0,0,1-.53-.7,5.4,5.4,0,0,1-.63-1.51,10.14,10.14,0,0,1-.23-1.26,1.3,1.3,0,0,0-.21-.72c-.13-.12-.32-.1-.61.18A2,2,0,0,0,57.64,92.64Zm38.63,12.17a26.71,26.71,0,0,0-.93-8.36l-.14-.57c0-.19-.12-.38-.18-.57l-.37-1.16c-.3-.76-.56-1.55-.93-2.32s-.74-1.55-1.14-2.34-.88-1.55-1.4-2.3A30.11,30.11,0,0,0,83.13,79,46.06,46.06,0,0,0,72,73.69c-4-1.37-8-2.46-12-3.82A45.28,45.28,0,0,1,49,64.5a24.09,24.09,0,0,1-4.4-3.94l-.91-1.13-.81-1.18c-.53-.83-1-1.7-1.65-2.56a10,10,0,0,0-2.24-2.38,5.8,5.8,0,0,0-1.61-.81,4.61,4.61,0,0,0-.9-.17,4.7,4.7,0,0,0-.92,0,5.2,5.2,0,0,0-3.13,1.52,6.45,6.45,0,0,0-1.68,2.78,8,8,0,0,0-.26,3,13,13,0,0,0,.61,2.74,21.12,21.12,0,0,0,1,2.42c.17.39.38.75.57,1.12l.29.54c.1.18.21.35.32.53.21.34.4.69.63,1l.66,1a2.79,2.79,0,0,0-.41,0,3.25,3.25,0,0,0-1.53.54,3.77,3.77,0,0,0-.78.73,3.49,3.49,0,0,0-.55,1.09A5.37,5.37,0,0,0,31.18,74a10.46,10.46,0,0,0,1,2.68,13.75,13.75,0,0,0,.7,1.31l.4.66c.13.22.29.42.43.63a20.64,20.64,0,0,0,1.62,2,2.14,2.14,0,0,0-.4.14,2.22,2.22,0,0,0-.71.54,3.63,3.63,0,0,0-.79,1.33,4.48,4.48,0,0,0-.21,2.11A7.46,7.46,0,0,0,34,87.78a12.39,12.39,0,0,0,.67,1.16c.25.38.53.75.8,1.13s.61.74.91,1.12.68.71,1,1.08A21,21,0,0,0,40.8,95a2.92,2.92,0,0,0-.41.7,4.92,4.92,0,0,0-.2,2.68,6.76,6.76,0,0,0,.77,2.2,9.31,9.31,0,0,0,1.71,2.22,14.38,14.38,0,0,0,5.6,3.25,20.29,20.29,0,0,0,6.87.92c.65,0,1.29-.07,1.92-.14,0,.07,0,.14,0,.23a4.87,4.87,0,0,0,.1.62,5.05,5.05,0,0,0,1.44,2.19,8,8,0,0,0,4.53,2.07,12.67,12.67,0,0,0,6.27-1.07,33,33,0,0,0,4.37-2.3v0a3.27,3.27,0,0,0,.92,1.33,6.19,6.19,0,0,0,2.73,1.38,7.37,7.37,0,0,0,1.91.2,11.47,11.47,0,0,0,2-.23,28.58,28.58,0,0,0,3.83-1.19,26.84,26.84,0,0,1,2.8-.89l.12.24a3.55,3.55,0,0,0,1.76,1.51M34.09,65.4a19.93,19.93,0,0,1-1.74-4.49,9,9,0,0,1-.23-2.42,5.92,5.92,0,0,1,.2-1.19,4.32,4.32,0,0,1,.45-1.09,4.44,4.44,0,0,1,1.65-1.68,2.9,2.9,0,0,1,2.19-.3,4.16,4.16,0,0,1,2,1.32,14.48,14.48,0,0,1,1.64,2.25c.26.42.52.85.79,1.27s.57.87.86,1.3l.23.33.25.31.49.62c.33.42.7.79,1.05,1.19a26.91,26.91,0,0,0,5,4.06,40.92,40.92,0,0,0,5.7,3c2,.87,4,1.62,6,2.29s4.07,1.27,6.08,1.88a74.26,74.26,0,0,1,11.53,4.24,31.68,31.68,0,0,1,5,3,30,30,0,0,1,4.15,3.77,29.64,29.64,0,0,1,3.22,4.31c.22.38.47.73.66,1.12l.61,1.13c.36.77.73,1.52,1,2.29s.57,1.52.83,2.27.45,1.51.6,2.26a29.82,29.82,0,0,1,.65,4.31,12.25,12.25,0,0,1-.22,3.75,6,6,0,0,1-.59,1.51,5.21,5.21,0,0,1-.9,1.16A3.71,3.71,0,0,1,91,110.27a2.77,2.77,0,0,1-1.83-.52,3,3,0,0,1-.72-.69,10.46,10.46,0,0,1,2.49-.23c.66,0,1.13.1,1.38.07s.3-.21,0-.57a3.8,3.8,0,0,0-2-.9,8.82,8.82,0,0,0-3.34.07c-2.48.48-5,1.75-7.23,2.07a7.19,7.19,0,0,1-1.58.09,6.7,6.7,0,0,1-1.41-.23,5.42,5.42,0,0,1-1.14-.43,6,6,0,0,1-.83-.51,5.29,5.29,0,0,1-.41-.34l.77-.46a25.48,25.48,0,0,1,5.2-2.57,11.34,11.34,0,0,1,4.28-.57,18.39,18.39,0,0,1,2.32.39c.39,0,.42-.13-.15-.63a4.58,4.58,0,0,0-1.27-.72,7.34,7.34,0,0,0-2-.46,12.08,12.08,0,0,0-5.42.88,37.72,37.72,0,0,0-5.68,3,26.73,26.73,0,0,1-5.58,2.71,11.42,11.42,0,0,1-2.72.52c-.22,0-.44,0-.65,0s-.41,0-.62,0a3.82,3.82,0,0,1-.59-.09,5.25,5.25,0,0,1-.57-.13,7.06,7.06,0,0,1-3.28-1.92,10.34,10.34,0,0,1-1-1.29,31.56,31.56,0,0,0,4-.77,40.42,40.42,0,0,0,4.73-1.52c2.47-1,3.45-1.59,1.87-1.48a27.66,27.66,0,0,0-3.5.59c-1.5.31-3.29.71-5.25,1a28.2,28.2,0,0,1-6.21.33,18.38,18.38,0,0,1-6.06-1.39,11.8,11.8,0,0,1-4.39-3.15,6.6,6.6,0,0,1-1.5-3.55,9.73,9.73,0,0,1,0-1.59c.36.22.72.43,1.08.62a21.31,21.31,0,0,0,5.34,2,18.65,18.65,0,0,0,4.47.44l.83-.06a4.29,4.29,0,0,0,.69-.09,4.74,4.74,0,0,0,.9-.24c.37-.16.26-.32-.43-.48-.35-.08-.78-.13-1.3-.23L52,97.06,51,96.88a29.54,29.54,0,0,1-4.44-1.22,24.55,24.55,0,0,1-4.82-2.44,22,22,0,0,1-4.2-3.57l-.44-.49c-.15-.17-.28-.34-.41-.51-.27-.34-.55-.67-.78-1a9.17,9.17,0,0,1-1.06-1.94A3.9,3.9,0,0,1,34.6,84,3.48,3.48,0,0,1,35,82.68a3.78,3.78,0,0,1,.75-1,20.66,20.66,0,0,0,2.33,2.07,20.43,20.43,0,0,0,5.12,2.87,18.4,18.4,0,0,0,4.51,1.1,13.18,13.18,0,0,0,1.58.06,4.89,4.89,0,0,0,1-.13c.4-.11.3-.28-.38-.53-.34-.12-.78-.23-1.3-.4l-.83-.24-.93-.3a27.12,27.12,0,0,1-4.34-1.9,22.77,22.77,0,0,1-4.51-3.26,21.2,21.2,0,0,1-3.6-4.36c-.25-.39-.45-.79-.68-1.18a10.5,10.5,0,0,1-.53-1.14,5.37,5.37,0,0,1-.45-2.09,3,3,0,0,1,.13-.87,1.8,1.8,0,0,1,.34-.62,2.24,2.24,0,0,1,.51-.47,2.14,2.14,0,0,1,.55-.3,2,2,0,0,1,1-.11c.23.29.46.57.71.84.46.57,1,1.07,1.44,1.56.25.25.5.47.74.7s.49.45.74.65a25.88,25.88,0,0,0,5.45,3.6A19.62,19.62,0,0,0,48,78.67c.8.2,1.12.23.9.06a5.47,5.47,0,0,0-.73-.39c-.39-.16-.9-.43-1.56-.75a32.29,32.29,0,0,1-4.72-3,28.31,28.31,0,0,1-5.4-5.43A26.81,26.81,0,0,1,34.09,65.4Zm18.18,6.88A36.39,36.39,0,0,0,55.57,74c1.67.82,3.87,1.81,6.36,2.91s5.28,2.33,8.06,3.76a47.78,47.78,0,0,1,8,5,36.33,36.33,0,0,1,3.37,3c.5.53,1,1,1.45,1.58s.87,1.06,1.28,1.59a24.23,24.23,0,0,1,3.27,5.89l.23.62c.07.19.15.38.2.57.1.37.21.7.3,1,.18.61.28,1.07.4,1.35.22.57.37.43.41-.68a11.81,11.81,0,0,0-.15-2.14c-.09-.42-.19-.88-.31-1.37s-.31-1-.48-1.53a23.41,23.41,0,0,0-4-6.87,31.89,31.89,0,0,0-3.25-3.35c-.29-.27-.59-.54-.91-.79s-.62-.52-1-.77c-.65-.49-1.3-1-2-1.45S75.4,81.46,74.7,81s-1.43-.83-2.15-1.21c-1.45-.77-2.91-1.47-4.34-2.11-2.88-1.29-5.65-2.35-8.06-3.28l-6-2.31a15.85,15.85,0,0,0-3-1C50.79,71.12,51.09,71.47,52.27,72.28Z"/><path class="cls-3" d="M11.19,49.52,10.88,49l-.29-.55c-.2-.37-.4-.73-.57-1.12a20.24,20.24,0,0,1-1-2.41,12,12,0,0,1-.61-2.75,8.22,8.22,0,0,1,.25-3.05,6.53,6.53,0,0,1,1.69-2.78,5.16,5.16,0,0,1,3.13-1.51,4,4,0,0,1,.92,0,4.63,4.63,0,0,1,.9.18,5.58,5.58,0,0,1,1.6.8,10.32,10.32,0,0,1,2.25,2.39c.6.85,1.12,1.73,1.65,2.55.26.41.54.79.81,1.19s.6.75.9,1.13A24,24,0,0,0,26.91,47,44.82,44.82,0,0,0,38,52.38c3.94,1.37,8,2.46,12,3.82A46.06,46.06,0,0,1,61.1,61.5a30.24,30.24,0,0,1,8,8.21c.53.75,1,1.53,1.41,2.3s.81,1.55,1.14,2.33.63,1.57.93,2.33L73,77.82c.06.19.12.38.17.57l.15.57a26.72,26.72,0,0,1,.92,8.36,8.56,8.56,0,0,1-.89,3.38,5.85,5.85,0,0,1-1.92,2.19,4.54,4.54,0,0,1-2.1.78,3.35,3.35,0,0,1-1.51-.23,3.49,3.49,0,0,1-1.76-1.5l-.12-.24a26.63,26.63,0,0,0-2.8.88,29,29,0,0,1-3.83,1.19,10.61,10.61,0,0,1-2,.24,7.77,7.77,0,0,1-1.91-.21,6.14,6.14,0,0,1-2.73-1.38,3.15,3.15,0,0,1-.92-1.33h0a33.55,33.55,0,0,1-4.37,2.29,12.69,12.69,0,0,1-6.28,1.07,8.09,8.09,0,0,1-4.53-2.06,5.21,5.21,0,0,1-1.44-2.2,4.74,4.74,0,0,1-.09-.61,1.77,1.77,0,0,1,0-.24c-.63.07-1.27.12-1.92.14a20.25,20.25,0,0,1-6.87-.91,14.62,14.62,0,0,1-5.61-3.25,9.42,9.42,0,0,1-1.71-2.23,7.17,7.17,0,0,1-.77-2.2,5.13,5.13,0,0,1,.2-2.68,2.79,2.79,0,0,1,.42-.69,21,21,0,0,1-3.41-2.73c-.34-.36-.71-.7-1-1.08s-.64-.73-.91-1.11-.55-.76-.8-1.14A12.51,12.51,0,0,1,12,70.29a7.61,7.61,0,0,1-.77-2.38,4.57,4.57,0,0,1,.2-2.1,4,4,0,0,1,.79-1.34,2.46,2.46,0,0,1,.71-.54,2.5,2.5,0,0,1,.41-.14,20.64,20.64,0,0,1-1.62-2c-.14-.21-.3-.41-.43-.63l-.4-.65c-.27-.43-.48-.88-.71-1.31a10.89,10.89,0,0,1-1-2.69,5.25,5.25,0,0,1,.07-2.65,3.39,3.39,0,0,1,.55-1.09,4,4,0,0,1,.78-.72,3.28,3.28,0,0,1,1.53-.55,2.7,2.7,0,0,1,.41,0l-.66-1C11.6,50.22,11.41,49.86,11.19,49.52Z"/><path class="cls-4" d="M11.24,61.15l-.4-.65c-.27-.43-.48-.88-.71-1.31a10.89,10.89,0,0,1-1-2.69,5.25,5.25,0,0,1,.07-2.65,3.39,3.39,0,0,1,.55-1.09,4,4,0,0,1,.78-.72,3.28,3.28,0,0,1,1.53-.55,2.7,2.7,0,0,1,.41,0l-.66-1c-.23-.32-.42-.68-.64-1L10.88,49l-.29-.55c-.2-.37-.4-.73-.57-1.12a20.24,20.24,0,0,1-1-2.41,12,12,0,0,1-.61-2.75,8.22,8.22,0,0,1,.25-3.05,6.53,6.53,0,0,1,1.69-2.78,5.18,5.18,0,0,1,3.06-1.5c-1,2.81-.18,6.09.95,8.81a45.19,45.19,0,0,0,2.87,5.47c1.12,1.91,2.32,3.78,3.6,5.59q2.18,3.09,4.62,6c.11.13,0,.36-.19.25a16.68,16.68,0,0,0-4.9-2.45,16.16,16.16,0,0,0-2.57-.57c-.81-.11-2-.26-2.4.65A3.05,3.05,0,0,0,15.71,61a11,11,0,0,0,1.15,2,16.22,16.22,0,0,0,3.49,3.38,46.19,46.19,0,0,0,4.56,2.9.16.16,0,0,1-.12.29,8.68,8.68,0,0,0-4.52-.59,3.14,3.14,0,0,0-2.44,2.49,2.86,2.86,0,0,0,.69,1.91,18.2,18.2,0,0,0,1.34,1.57,23.94,23.94,0,0,0,3.08,2.78A25.17,25.17,0,0,0,26.81,80a.16.16,0,0,1-.12.29,1.21,1.21,0,0,0-1.4.63,1.71,1.71,0,0,0-.08,1.71,6.11,6.11,0,0,0,3,2.32,20.6,20.6,0,0,0,7.94,2,20.23,20.23,0,0,0,4.66-.3A.16.16,0,0,1,41,87c-.82.86-.14,2.21.76,2.68a7.54,7.54,0,0,0,3.86.4,39.81,39.81,0,0,0,8.25-1.29,40.82,40.82,0,0,0,4.42-1.46c.09,0,.2.06.2.15-.07,2.24,2.47,3.18,4.32,3.3,2.51.17,4.91-1,7.43-.64a4.49,4.49,0,0,1,2.63,1.42,5.82,5.82,0,0,1-1.41,1.36,4.54,4.54,0,0,1-2.1.78,3.35,3.35,0,0,1-1.51-.23,3.49,3.49,0,0,1-1.76-1.5l-.12-.24a26.63,26.63,0,0,0-2.8.88,29,29,0,0,1-3.83,1.19,10.61,10.61,0,0,1-2,.24,7.77,7.77,0,0,1-1.91-.21,6.14,6.14,0,0,1-2.73-1.38,3.15,3.15,0,0,1-.92-1.33h0a33.55,33.55,0,0,1-4.37,2.29,12.69,12.69,0,0,1-6.28,1.07,8.09,8.09,0,0,1-4.53-2.06,5.21,5.21,0,0,1-1.44-2.2,4.74,4.74,0,0,1-.09-.61,1.77,1.77,0,0,1,0-.24c-.63.07-1.27.12-1.92.14a20.25,20.25,0,0,1-6.87-.91,14.62,14.62,0,0,1-5.61-3.25,9.42,9.42,0,0,1-1.71-2.23,7.17,7.17,0,0,1-.77-2.2,5.13,5.13,0,0,1,.2-2.68,2.79,2.79,0,0,1,.42-.69,21,21,0,0,1-3.41-2.73c-.34-.36-.71-.7-1-1.08s-.64-.73-.91-1.11-.55-.76-.8-1.14A12.51,12.51,0,0,1,12,70.29a7.61,7.61,0,0,1-.77-2.38,4.57,4.57,0,0,1,.2-2.1,4,4,0,0,1,.79-1.34,2.46,2.46,0,0,1,.71-.54,2.5,2.5,0,0,1,.41-.14,20.64,20.64,0,0,1-1.62-2C11.53,61.57,11.37,61.37,11.24,61.15Z"/><path class="cls-4" d="M29.66,54.39c.17.32.35.64.54,1a20.56,20.56,0,0,0,6.17,6.15A54.71,54.71,0,0,0,45,65.94,67.54,67.54,0,0,1,54,70.43a36.74,36.74,0,0,1,7,5.73,37.18,37.18,0,0,1,5.44,7.27.13.13,0,0,0,.09.07.56.56,0,0,0,0,.12.16.16,0,0,0,.3-.08l-.33-1A40.18,40.18,0,0,0,63,74.37,23.71,23.71,0,0,0,57,67.7a55.11,55.11,0,0,0-8.34-4.88c-3.07-1.57-6.18-3-9.32-4.46s-6.32-2.81-9.49-4.19C29.73,54.11,29.58,54.24,29.66,54.39Z"/><path class="cls-4" d="M33.91,72.17a5.31,5.31,0,0,0,.68,1,6.55,6.55,0,0,1,.9,1.07c.42.75.49,1.64.88,2.42A5.22,5.22,0,0,0,40,79.38c.9.19,1.84.21,2.73.48A6.09,6.09,0,0,1,45,81.27a8.07,8.07,0,0,0,2.06,1.47,2.71,2.71,0,0,0,2.31,0c.16.2.33.39.5.58s.37-.08.23-.23a9,9,0,0,1-1.68-2.45,13.35,13.35,0,0,1-.5-1.38,1.56,1.56,0,0,0-.77-1c-.34-.16-.71-.24-1.07-.38a7.64,7.64,0,0,1-1-.52,7.44,7.44,0,0,1-1.72-1.44,7.82,7.82,0,0,1-1.23-1.88,8,8,0,0,1-.6-2.21A1.12,1.12,0,0,0,41,71a3,3,0,0,0-1.09-.22,7.66,7.66,0,0,1-2.3-.6,8.12,8.12,0,0,1-3.62-3,.16.16,0,0,0-.27,0A5.68,5.68,0,0,0,33.91,72.17Z"/><path class="cls-5" d="M33.21,63.22A3.54,3.54,0,0,0,33,64.5a6.93,6.93,0,0,0,.46,2.43c.08.23.2.45.3.69s.24.47.4.7a7.74,7.74,0,0,0,1.07,1.32,7.27,7.27,0,0,0,3.11,1.8,7.83,7.83,0,0,0,3.2.2,3.06,3.06,0,0,0-.25,1,5.08,5.08,0,0,0,.21,2.1c0,.2.14.4.21.61a6,6,0,0,0,.32.61,5.41,5.41,0,0,0,.88,1.18,5.49,5.49,0,0,0,2.73,1.52,5.76,5.76,0,0,0,1.53.15,2.62,2.62,0,0,0-.33,1.62,3.7,3.7,0,0,0,.48,1.54,3.83,3.83,0,0,0,2.87,1.88,3,3,0,0,0,1.33-.13,1,1,0,0,0,.62-.46c.06-.16,0-.3-.27-.45-.46-.28-1.13-.48-1.73-.85a4.3,4.3,0,0,1-.82-.62,3.23,3.23,0,0,1-.56-.77,9.81,9.81,0,0,1-.6-1.52,1.2,1.2,0,0,0-.16-.32,5.05,5.05,0,0,0,.56-.12,5.19,5.19,0,0,0,2.05-1,2.07,2.07,0,0,0,.74-1c0-.23-.13-.29-.5-.21a11.48,11.48,0,0,1-3.35.62,5.47,5.47,0,0,1-1.06-.12,3.84,3.84,0,0,1-1-.32,3.71,3.71,0,0,1-.9-.54,4.2,4.2,0,0,1-.73-.73,8.15,8.15,0,0,1-1.47-3.69,6.67,6.67,0,0,0,1.85-.79,2.58,2.58,0,0,0,1-1q.15-.36-.48-.27a15,15,0,0,1-4.09.46,8.7,8.7,0,0,1-1.31-.21c-.22,0-.43-.13-.65-.19s-.42-.16-.62-.27A5.54,5.54,0,0,1,37,68.5a5.88,5.88,0,0,1-1-.9,7.92,7.92,0,0,1-1.29-2.07,11.6,11.6,0,0,1-.57-1.8,2.17,2.17,0,0,0-.34-.95C33.64,62.66,33.46,62.76,33.21,63.22Zm2.4,11.93A4.6,4.6,0,0,0,35.55,77a5.34,5.34,0,0,0,.92,2.26A5.12,5.12,0,0,0,38.59,81a5.53,5.53,0,0,0,2.52.48,4.72,4.72,0,0,0,2-.51,1.67,1.67,0,0,0,.83-.75c.08-.2-.06-.31-.41-.35a13.36,13.36,0,0,1-3-.25,5.15,5.15,0,0,1-.86-.3,4.2,4.2,0,0,1-.8-.45,4,4,0,0,1-.66-.58,4.44,4.44,0,0,1-.53-.7,5.52,5.52,0,0,1-.63-1.51,10.26,10.26,0,0,1-.23-1.27,1.33,1.33,0,0,0-.21-.72c-.13-.12-.32-.1-.62.18A2.31,2.31,0,0,0,35.61,75.15ZM11.83,50.54l.66,1a2.7,2.7,0,0,0-.41,0,3.28,3.28,0,0,0-1.53.55,4,4,0,0,0-.78.72,3.39,3.39,0,0,0-.55,1.09,5.25,5.25,0,0,0-.07,2.65,10.89,10.89,0,0,0,1,2.69c.23.43.44.88.71,1.31l.4.65c.13.22.29.42.43.63a20.64,20.64,0,0,0,1.62,2,2.5,2.5,0,0,0-.41.14,2.46,2.46,0,0,0-.71.54,4,4,0,0,0-.79,1.34,4.57,4.57,0,0,0-.2,2.1A7.61,7.61,0,0,0,12,70.29a12.51,12.51,0,0,0,.68,1.16c.25.38.53.75.8,1.14s.6.73.91,1.11.68.72,1,1.08a21,21,0,0,0,3.41,2.73,2.79,2.79,0,0,0-.42.69,5.13,5.13,0,0,0-.2,2.68,7.17,7.17,0,0,0,.77,2.2,9.42,9.42,0,0,0,1.71,2.23,14.62,14.62,0,0,0,5.61,3.25,20.25,20.25,0,0,0,6.87.91c.65,0,1.29-.07,1.92-.14a1.77,1.77,0,0,0,0,.24,4.74,4.74,0,0,0,.09.61,5.21,5.21,0,0,0,1.44,2.2,8.09,8.09,0,0,0,4.53,2.06,12.69,12.69,0,0,0,6.28-1.07,33.55,33.55,0,0,0,4.37-2.29h0a3.15,3.15,0,0,0,.92,1.33,6.14,6.14,0,0,0,2.73,1.38,7.77,7.77,0,0,0,1.91.21,10.61,10.61,0,0,0,2-.24,29,29,0,0,0,3.83-1.19,26.63,26.63,0,0,1,2.8-.88l.12.24a3.49,3.49,0,0,0,1.76,1.5,3.35,3.35,0,0,0,1.51.23,4.54,4.54,0,0,0,2.1-.78,5.85,5.85,0,0,0,1.92-2.19,8.56,8.56,0,0,0,.89-3.38A26.72,26.72,0,0,0,73.31,79l-.15-.57c0-.19-.11-.38-.17-.57l-.37-1.15c-.3-.76-.57-1.56-.93-2.33S71,72.79,70.55,72s-.88-1.55-1.41-2.3a30.24,30.24,0,0,0-8-8.21A46.06,46.06,0,0,0,50,56.2c-4-1.36-8.05-2.45-12-3.82A44.82,44.82,0,0,1,26.91,47a24,24,0,0,1-4.4-3.93c-.3-.38-.61-.75-.9-1.13s-.55-.78-.81-1.19c-.53-.82-1.05-1.7-1.65-2.55a10.32,10.32,0,0,0-2.25-2.39,5.58,5.58,0,0,0-1.6-.8,4.63,4.63,0,0,0-.9-.18,4,4,0,0,0-.92,0,5.16,5.16,0,0,0-3.13,1.51,6.53,6.53,0,0,0-1.69,2.78,8.22,8.22,0,0,0-.25,3.05A12,12,0,0,0,9,44.92a20.24,20.24,0,0,0,1,2.41c.17.39.37.75.57,1.12l.29.55.31.52C11.41,49.86,11.6,50.22,11.83,50.54Zm.22-2.62a20,20,0,0,1-1.73-4.5A9,9,0,0,1,10.09,41a6,6,0,0,1,.2-1.19,4.65,4.65,0,0,1,.45-1.09,4.41,4.41,0,0,1,1.65-1.67,2.85,2.85,0,0,1,2.19-.3,4.19,4.19,0,0,1,2,1.31,15.31,15.31,0,0,1,1.65,2.26L19,41.59c.26.43.58.86.87,1.3.08.11.15.22.23.32l.24.31.5.63c.32.41.7.79,1.05,1.19a26.85,26.85,0,0,0,5,4,41.44,41.44,0,0,0,5.69,3c2,.87,4,1.61,6,2.28s4.07,1.27,6.08,1.88a76.08,76.08,0,0,1,11.53,4.24,31.43,31.43,0,0,1,5,3,28.76,28.76,0,0,1,4.15,3.77,30,30,0,0,1,3.21,4.3c.22.38.47.74.67,1.12s.4.76.61,1.13c.36.77.73,1.52,1,2.29s.57,1.53.83,2.28.45,1.5.59,2.25a27.29,27.29,0,0,1,.65,4.31,12,12,0,0,1-.21,3.76,6.09,6.09,0,0,1-.59,1.5,4.79,4.79,0,0,1-.9,1.16A3.72,3.72,0,0,1,69,92.79a2.93,2.93,0,0,1-2.55-1.22A10.41,10.41,0,0,1,69,91.34a12.31,12.31,0,0,0,1.38.07c.25,0,.3-.2,0-.56a3.72,3.72,0,0,0-2-.91A9.1,9.1,0,0,0,65,90c-2.47.47-5,1.74-7.23,2.06a7.07,7.07,0,0,1-1.57.09A6.61,6.61,0,0,1,54.79,92a6.48,6.48,0,0,1-1.14-.43,6,6,0,0,1-.83-.52c-.16-.12-.3-.23-.41-.33l.77-.47a25.41,25.41,0,0,1,5.2-2.56,11.58,11.58,0,0,1,4.28-.58,18.13,18.13,0,0,1,2.31.39c.39.06.43-.13-.14-.63a4.85,4.85,0,0,0-1.27-.72,8.14,8.14,0,0,0-2-.46,12.06,12.06,0,0,0-5.42.88,38.66,38.66,0,0,0-5.68,3,26.86,26.86,0,0,1-5.59,2.72,10.75,10.75,0,0,1-2.72.51c-.22,0-.43,0-.65,0s-.41,0-.61,0-.4,0-.59-.09-.39-.09-.57-.13a7.06,7.06,0,0,1-3.28-1.93,10.34,10.34,0,0,1-1-1.29,32,32,0,0,0,4-.76A45.38,45.38,0,0,0,44.19,87c2.46-1,3.45-1.59,1.87-1.49a29.63,29.63,0,0,0-3.5.59c-1.5.32-3.3.71-5.26,1a28.74,28.74,0,0,1-6.2.32A18.08,18.08,0,0,1,25,86a11.61,11.61,0,0,1-4.39-3.15,6.46,6.46,0,0,1-1.5-3.55,9.6,9.6,0,0,1,0-1.58c.36.21.71.42,1.08.61a21.17,21.17,0,0,0,5.34,2,18.07,18.07,0,0,0,4.46.44l.84,0a5.83,5.83,0,0,0,.69-.09,4.74,4.74,0,0,0,.9-.24c.37-.16.26-.32-.43-.48-.35-.09-.79-.13-1.3-.24l-.83-.13L29,79.39a27.33,27.33,0,0,1-4.44-1.22,23.57,23.57,0,0,1-4.83-2.44,22.27,22.27,0,0,1-4.19-3.57l-.45-.49c-.14-.16-.27-.34-.41-.51-.27-.33-.54-.66-.77-1a8.74,8.74,0,0,1-1.06-1.94,3.86,3.86,0,0,1-.27-1.7,3.36,3.36,0,0,1,.37-1.33,3.74,3.74,0,0,1,.75-1,20.78,20.78,0,0,0,7.45,5,18.91,18.91,0,0,0,4.5,1.1,15.58,15.58,0,0,0,1.59,0,5.07,5.07,0,0,0,.95-.12c.4-.11.3-.29-.38-.53-.35-.13-.79-.23-1.3-.4L25.67,69c-.29-.1-.6-.21-.93-.31a26.32,26.32,0,0,1-4.35-1.9,23.06,23.06,0,0,1-4.5-3.25,21,21,0,0,1-3.61-4.37c-.24-.38-.44-.79-.67-1.17a10.75,10.75,0,0,1-.54-1.15,5.75,5.75,0,0,1-.45-2.09,3.3,3.3,0,0,1,.13-.86,2,2,0,0,1,.35-.62,1.93,1.93,0,0,1,.51-.48,2.44,2.44,0,0,1,.55-.29,2.05,2.05,0,0,1,1-.12c.23.29.46.58.7.85.47.56,1,1.06,1.45,1.56.24.24.5.47.74.69s.48.46.73.66a26.58,26.58,0,0,0,5.46,3.6A19.88,19.88,0,0,0,26,61.18c.8.2,1.12.23.9.07a5.47,5.47,0,0,0-.73-.39c-.39-.17-.9-.43-1.56-.76a30.65,30.65,0,0,1-4.72-3,28,28,0,0,1-5.4-5.43A26.41,26.41,0,0,1,12.05,47.92Zm18.19,6.87a35.57,35.57,0,0,0,3.3,1.77c1.67.82,3.86,1.8,6.36,2.9s5.27,2.33,8.06,3.76a48.35,48.35,0,0,1,8,5,36.64,36.64,0,0,1,3.38,3c.5.53,1,1,1.45,1.58s.87,1.07,1.28,1.59a24.43,24.43,0,0,1,3.27,5.9l.23.61c.07.2.14.39.19.57.11.37.21.71.31,1,.18.6.28,1.06.4,1.35.22.56.37.43.41-.69A11.14,11.14,0,0,0,66.69,81c-.08-.42-.19-.88-.3-1.37s-.31-1-.48-1.53a23.24,23.24,0,0,0-4-6.86,30.06,30.06,0,0,0-3.25-3.35c-.29-.27-.6-.54-.91-.79l-1-.77c-.65-.49-1.3-1-2-1.45s-1.39-.9-2.09-1.34-1.43-.83-2.16-1.2c-1.44-.78-2.9-1.48-4.34-2.12-2.87-1.28-5.64-2.34-8.06-3.27l-6-2.32a16.05,16.05,0,0,0-2.95-1C28.76,53.64,29.06,54,30.24,54.79Z"/><path class="cls-5" d="M79.67,118.75a3.18,3.18,0,0,1-1.73-.55c-11.87-7.78-19.87-15-25.91-23.34-3.14-4.36-6.54-9.69-7.88-16.15C42.13,68.91,46.22,57,58,53.28a17.77,17.77,0,0,1,5.4-.83,19.15,19.15,0,0,1,16.33,9.09c3.41-5.77,8.85-8.8,16.22-9h.53c8,0,15.21,5.47,17.94,13.62,2.27,6.76,1.55,13.58-2.2,20.84A69.91,69.91,0,0,1,93.76,109.1c-2.7,2.2-5.57,4.25-8.35,6.22-1.22.87-2.45,1.74-3.66,2.63A3.46,3.46,0,0,1,79.67,118.75Z"/><path class="cls-6" d="M79.69,65.72c3-7.63,8.6-11.15,16.28-11.39,7.44-.22,14.19,5,16.68,12.38,2.28,6.79,1.14,13.18-2.09,19.42a68.25,68.25,0,0,1-18,21.56c-3.82,3.12-7.94,5.87-11.92,8.79-.54.39-1,.67-1.74.19-9.65-6.32-18.61-13.43-25.43-22.88-3.4-4.7-6.38-9.68-7.57-15.45-1.86-9,2-19.93,12.58-23.32C66.4,52.5,75.67,56.59,79,64.14Z"/><path class="cls-7" d="M71.1,37.48a.34.34,0,0,0,0,.68A.34.34,0,0,0,71.1,37.48Z"/><path class="cls-7" d="M85.38,37.48a.34.34,0,0,0,0,.68A.34.34,0,0,0,85.38,37.48Z"/><path class="cls-2" d="M79.83,40.53c-12.7,0-23,2.08-23,4.66s10.29,4.66,23,4.66,23-2.09,23-4.66S92.53,40.53,79.83,40.53Zm0,7.79c-11,0-20-1.47-20-3.28s8.95-3.29,20-3.29,20,1.47,20,3.29S90.87,48.32,79.83,48.32Z"/><path class="cls-2" d="M79.83,39.63c-12.7,0-23,2.08-23,4.66s10.29,4.65,23,4.65,23-2.08,23-4.65S92.53,39.63,79.83,39.63Zm0,7.79c-11,0-20-1.47-20-3.29s8.95-3.28,20-3.28,20,1.47,20,3.28S90.87,47.42,79.83,47.42Z"/><g class="cls-8"><path class="cls-2" d="M62.7,42.44c-1.28,0-2.53-.06-3.73-.12a4.29,4.29,0,0,0-2,1.4c.94.07,1.91.12,2.9.17C60.15,43.36,61.14,42.87,62.7,42.44Z"/><path class="cls-2" d="M81.79,40.87c1.48,0,2.92.07,4.29.14a3.43,3.43,0,0,0,1.4-1.12c-1-.07-2-.13-3.12-.17A6.46,6.46,0,0,1,81.79,40.87Z"/></g><g class="cls-8"><path class="cls-2" d="M99.82,44.13s0,0,0,.07c1,0,2,0,3,0a1.87,1.87,0,0,0-1-1.22c-1.1,0-2.17,0-3.22.08C99.4,43.37,99.82,43.74,99.82,44.13Z"/><path class="cls-2" d="M83,47.44s0,0,0-.06c-1,0-2,0-3,0a.51.51,0,0,0,0,.17c0,.47.35.92,1,1.35,1.34,0,2.65,0,3.92-.11C83.67,48.41,83,47.94,83,47.44Z"/></g><path class="cls-9" d="M79.83,40.85c-11,0-20,1.47-20,3.28a.74.74,0,0,0,.19.46c1.34-1.61,9.69-2.84,19.79-2.84S98.29,43,99.62,44.59a.7.7,0,0,0,.2-.46C99.82,42.32,90.87,40.85,79.83,40.85Z"/><path class="cls-9" d="M79.83,48.94c-12,0-21.77-1.84-22.88-4.2a.91.91,0,0,0-.11.45c0,2.57,10.29,4.66,23,4.66s23-2.09,23-4.66a1,1,0,0,0-.11-.45C101.6,47.1,91.78,48.94,79.83,48.94Z"/><path class="cls-10" d="M69.75,40.59a36.13,36.13,0,0,0-5.39.59c-.21,0-.12.37.09.33a34.93,34.93,0,0,1,5.3-.58A.17.17,0,0,0,69.75,40.59Z"/><path class="cls-11" d="M76.06,47.91l-6.91-.32c-.22,0-.22.33,0,.34l6.91.32C76.28,48.26,76.28,47.92,76.06,47.91Z"/><path class="cls-11" d="M76.89,47.8a.17.17,0,0,0,0,.34A.17.17,0,0,0,76.89,47.8Z"/><path class="cls-11" d="M78.39,47.9a.09.09,0,0,0,0,0l0,0-.08,0h0a.18.18,0,0,0-.07.05l-.08.07L78,48A.14.14,0,0,0,78,48a.14.14,0,0,0,0,.07l0,0,0,0,.08,0h0a.18.18,0,0,0,.07-.05l.08-.07s0,0,0-.06a.14.14,0,0,0,0-.06A.14.14,0,0,0,78.39,47.9Z"/><path class="cls-11" d="M97,46.69l-4.21.65c-.21,0-.12.36.09.33L97.07,47C97.29,47,97.2,46.65,97,46.69Z"/><path class="cls-11" d="M98.22,41.87c-1.4-.38-2.81-.7-4.24-.94-.21,0-.3.29-.09.33a41.14,41.14,0,0,1,4.24.94A.17.17,0,0,0,98.22,41.87Z"/><path class="cls-7" d="M68.84,38.52a.51.51,0,0,0,0,1A.51.51,0,0,0,68.84,38.52Z"/><path class="cls-7" d="M67.34,38.84a.34.34,0,0,0,0,.67A.34.34,0,0,0,67.34,38.84Z"/><path class="cls-7" d="M60,48.72a.34.34,0,0,0,0,.68A.34.34,0,0,0,60,48.72Z"/><path class="cls-7" d="M64.49,44.85a.34.34,0,0,0,0,.68A.34.34,0,0,0,64.49,44.85Z"/><path class="cls-7" d="M58.47,48.91a.34.34,0,0,0,0,.67A.34.34,0,0,0,58.47,48.91Z"/><path class="cls-7" d="M57.45,42.39a.38.38,0,0,0-.09-.15l-.07-.05a.34.34,0,0,0-.17,0H57a.28.28,0,0,0-.13,0,.41.41,0,0,0-.11.07.26.26,0,0,0-.07.11.28.28,0,0,0,0,.13v.09a.38.38,0,0,0,.09.15l.07.05a.26.26,0,0,0,.17,0h.15a.28.28,0,0,0,.13,0,.3.3,0,0,0,.18-.18.28.28,0,0,0,0-.13Z"/><path class="cls-7" d="M54.26,44.81a.34.34,0,0,0,0,.68A.34.34,0,0,0,54.26,44.81Z"/><path class="cls-7" d="M92.89,50a.34.34,0,0,0,0,.68A.34.34,0,0,0,92.89,50Z"/><path class="cls-7" d="M103.11,46.8a.34.34,0,0,0,0,.68A.34.34,0,0,0,103.11,46.8Z"/><path class="cls-7" d="M105.07,44.85a.34.34,0,0,0,0,.68A.34.34,0,0,0,105.07,44.85Z"/><path class="cls-7" d="M103.85,43.53v.09a.17.17,0,0,0,.34,0v-.09A.17.17,0,0,0,103.85,43.53Z"/><path class="cls-7" d="M102.06,41.07a.51.51,0,0,0,0,1A.51.51,0,0,0,102.06,41.07Z"/><path class="cls-7" d="M97.25,44.27a.17.17,0,0,0,0,.34A.17.17,0,0,0,97.25,44.27Z"/><path class="cls-7" d="M96.5,38.69a.34.34,0,0,0,0,.67A.34.34,0,0,0,96.5,38.69Z"/><path class="cls-7" d="M91.09,38.53a.34.34,0,0,0,0,.68A.34.34,0,0,0,91.09,38.53Z"/><path class="cls-7" d="M83,51.16a.34.34,0,0,0,0,.68A.34.34,0,0,0,83,51.16Z"/><path class="cls-7" d="M74.41,51.61a.34.34,0,0,0,0,.68A.34.34,0,0,0,74.41,51.61Z"/><path class="cls-7" d="M92.74,51.05h-.08a.34.34,0,0,0,0,.68h.08A.34.34,0,0,0,92.74,51.05Z"/><path class="cls-5" d="M82.55,64.29s4.1-8.4,11.39-8.48A26.39,26.39,0,0,0,82.55,64.29Z"/></g></g></svg>