<svg id="Calque_1" data-name="Calque 1" xmlns="http://www.w3.org/2000/svg" xmlns:xlink="http://www.w3.org/1999/xlink" viewBox="0 0 156.85 163.56"><defs><style>.cls-1{fill:url(#Dégradé_sans_nom_162);}.cls-2{fill:#fff;}.cls-3{fill:#f9df5a;}</style><linearGradient id="Dégradé_sans_nom_162" x1="43.49" y1="84.47" x2="113.36" y2="84.47" gradientUnits="userSpaceOnUse"><stop offset="0" stop-color="#c08a81"/><stop offset="1" stop-color="#d4958d"/></linearGradient></defs><path class="cls-1" d="M78.46,64.15c3-7.79,8.78-11.4,16.63-11.63,7.6-.24,14.51,5,17,12.64,2.33,7,1.16,13.48-2.13,19.86a70,70,0,0,1-18.36,22c-3.9,3.19-8.11,6-12.19,9a1.36,1.36,0,0,1-1.77.2c-9.87-6.47-19-13.73-26-23.39C48.22,88,45.17,83,44,77.06c-1.9-9.17,2-20.38,12.86-23.85,8.06-2.57,17.53,1.61,20.93,9.33C77.94,63,78.15,63.48,78.46,64.15Z"/><path class="cls-2" d="M117.52,83.37a5.21,5.21,0,0,0-1.78-.34,3.47,3.47,0,0,0-1.38.27c-.11,0-.21.12-.32.18a3.35,3.35,0,0,0-1.05-.17,4.13,4.13,0,0,0-1.66.37l-.19.1,0,0a1.66,1.66,0,0,0-.21-.06,4,4,0,0,0-.69-.06A4.5,4.5,0,0,0,107.13,85a5.75,5.75,0,0,0-1.06,1.26,1.37,1.37,0,0,0-.34-.07h-.2a3.23,3.23,0,0,0-1.32.28,4.59,4.59,0,0,0-1.52,1.13,7.94,7.94,0,0,0-1.56,3.3c-.18.61-.39,1.3-.67,2l-.15.32a2.55,2.55,0,0,0-1.77-.75,1.77,1.77,0,0,0-.52.07c-.2.06-1.27.26-2.21.44-1.51.28-3.38.63-4.59.91l-1.11.24H90a22.81,22.81,0,0,0-4.8,1.37A12,12,0,0,0,83,96.79l-.37.26a16.13,16.13,0,0,0-4.21,3.85,16.28,16.28,0,0,0-4.21-3.85l-.38-.26a12,12,0,0,0-2.23-1.26,22.65,22.65,0,0,0-4.8-1.37h-.06l-1.12-.24c-1.2-.28-3.08-.63-4.59-.91-.94-.18-2-.38-2.2-.44a1.83,1.83,0,0,0-.53-.07,2.58,2.58,0,0,0-1.77.75c0-.11-.1-.22-.14-.33-.29-.71-.49-1.4-.68-2a7.82,7.82,0,0,0-1.56-3.3,4.4,4.4,0,0,0-1.52-1.13,3.22,3.22,0,0,0-1.31-.28h-.2a1.28,1.28,0,0,0-.34.07A6.08,6.08,0,0,0,49.72,85a4.48,4.48,0,0,0-3.06-1.29,4,4,0,0,0-.69.06,1.17,1.17,0,0,0-.2.06l-.06,0-.18-.1a4.14,4.14,0,0,0-1.67-.37,3.29,3.29,0,0,0-1,.17,3.47,3.47,0,0,0-.33-.18A3.43,3.43,0,0,0,41.11,83a5.26,5.26,0,0,0-1.78.34,1.58,1.58,0,0,0-.95,2c.39,1.19,1.37,4.12,2,5.6,3.56,8.66,15.34,14.59,20.24,16.75q.51.23,1,.42l.85.36a22.75,22.75,0,0,1,6.58,4.38,43.74,43.74,0,0,0,6.83,5.07c.28.17.56.32.83.46a3.57,3.57,0,0,0,1.65.41h.13a3.64,3.64,0,0,0,1.66-.41l.83-.46a43.74,43.74,0,0,0,6.83-5.07,22.69,22.69,0,0,1,6.57-4.38l.86-.36,1-.42c4.9-2.16,16.68-8.09,20.25-16.75.62-1.52,1.67-4.67,2-5.6A1.56,1.56,0,0,0,117.52,83.37Z"/><path class="cls-3" d="M98.36,98l1.47-.47.07,0a15.26,15.26,0,0,0,1.27-1.25,32.91,32.91,0,0,0,3-4.56,18.11,18.11,0,0,1,1.48-3.94,1.75,1.75,0,0,0-.78.15,3.12,3.12,0,0,0-1,.75,6.65,6.65,0,0,0-1.21,2.69c-.19.64-.41,1.37-.72,2.16a10.69,10.69,0,0,1-2.39,3.36c-.36.38-.77.76-1.2,1.14Z"/><path class="cls-3" d="M101.71,96.72l-.19.21.25-.09.21-.08.52-.2.55-.23.18-.09c.12-.07.25-.13.38-.19l.22-.13.35-.19.23-.15.32-.2c.88-1.31,2.57-4.43,3.16-5.53l.43-.85a15.75,15.75,0,0,1,2.31-3.69,2.81,2.81,0,0,0-2.45.86c-.76.68-1.12,1.36-2.65,4.45A38,38,0,0,1,101.71,96.72Z"/><path class="cls-3" d="M108.52,90.18s-1.2,2.28-2.26,4.08l.16-.13.09-.07.72-.63.06,0,.3-.28,0,0,.31-.29,0,0,.63-.62,0,0,.27-.27,0,0,.73-.77,0,0,.18-.19,0,0,.16-.18a12.74,12.74,0,0,0,1.46-2.28A21,21,0,0,1,113.64,85a2.09,2.09,0,0,0-1.68.11c-1.27.78-2.19,2.6-3,4.21Z"/><path class="cls-3" d="M115,84.74a1.45,1.45,0,0,0-.45.33,18,18,0,0,0-2.43,3.63,13.61,13.61,0,0,1-1.56,2.41,29.9,29.9,0,0,1-5.37,4.83,13.86,13.86,0,0,1-2.06,1.14l-.36.15c-.71.28-1.6.6-2.56.92s-2.27.73-3.36,1c-4.49,1.25-5.14.87-5.35.75a.58.58,0,0,1-.34-.54c0-.38.44-.62.85-.79a16.41,16.41,0,0,1,2.55-.77h0a10.11,10.11,0,0,0,2.64-.7,4.39,4.39,0,0,0,1.52-1,2.34,2.34,0,0,0,.24-.31c.28-.42.55-1,.26-1.39a.93.93,0,0,0-.78-.33c-.23.07-1,.22-2.36.47s-3.35.63-4.52.9c-.38.09-.79.18-1.23.26A22.18,22.18,0,0,0,85.87,97a11.86,11.86,0,0,0-2,1.1l-.37.27c-2.21,1.56-4.3,3-5.12,6.33-.83-3.29-2.92-4.77-5.12-6.33l-.38-.27A11.09,11.09,0,0,0,71,97,21.82,21.82,0,0,0,66.5,95.7c-.43-.08-.84-.17-1.22-.26-1.17-.27-3-.62-4.53-.9s-2.13-.4-2.36-.47a.91.91,0,0,0-.77.33c-.29.39,0,1,.25,1.39a3.65,3.65,0,0,0,.24.31,4.59,4.59,0,0,0,1.52,1,10.21,10.21,0,0,0,2.64.7h0a16.74,16.74,0,0,1,2.55.77c.4.17.82.41.84.79a.57.57,0,0,1-.33.54c-.22.12-.86.5-5.36-.75-1.09-.3-2.25-.66-3.36-1s-1.84-.64-2.56-.92l-.36-.15a13.31,13.31,0,0,1-2-1.14,29.69,29.69,0,0,1-5.38-4.83,13.62,13.62,0,0,1-1.55-2.41,18.41,18.41,0,0,0-2.43-3.63,1.5,1.5,0,0,0-.46-.33,2.85,2.85,0,0,0-2,.1c.32,1,1.34,4,1.93,5.5,3.35,8.13,14.7,13.83,19.42,15.91.64.28,1.28.52,1.87.78,6.11,2.67,6.72,5.42,13.59,9.54l.73.41a2.31,2.31,0,0,0,2,0c.24-.12.48-.26.74-.41,6.86-4.12,7.48-6.87,13.58-9.54.59-.26,1.23-.5,1.87-.78,4.73-2.08,16.08-7.78,19.42-15.91.6-1.45,1.61-4.51,1.94-5.5A2.88,2.88,0,0,0,115,84.74Z"/><path class="cls-3" d="M55.68,96.25A15.26,15.26,0,0,0,57,97.5l.07,0,1.47.47h0q-.65-.57-1.2-1.14a10.48,10.48,0,0,1-2.38-3.36,22.7,22.7,0,0,1-.72-2.16A6.65,6.65,0,0,0,53,88.65a3,3,0,0,0-1-.75,1.73,1.73,0,0,0-.78-.15,18.11,18.11,0,0,1,1.48,3.94A33.85,33.85,0,0,0,55.68,96.25Z"/><path class="cls-3" d="M49,89.85c.58,1.1,2.27,4.22,3.16,5.53l.31.2.24.15.35.19.22.13.37.19.19.09.54.23.52.2.21.08.26.09-.2-.21a38,38,0,0,1-3.81-6.1c-1.54-3.09-1.89-3.77-2.66-4.45a2.81,2.81,0,0,0-2.45-.86A15.79,15.79,0,0,1,48.54,89C48.68,89.3,48.83,89.58,49,89.85Z"/><path class="cls-3" d="M46.83,90.63l.17.18,0,0,.17.19,0,0,.72.77,0,0,.26.27,0,0c.2.2.41.41.64.62v0l.31.29.06,0,.3.28,0,0,.72.63.1.07.15.13c-1.05-1.8-2.24-4.05-2.26-4.08l-.43-.85c-.82-1.61-1.74-3.43-3-4.21A2.07,2.07,0,0,0,43.22,85a20.88,20.88,0,0,1,2.15,3.34A12.74,12.74,0,0,0,46.83,90.63Z"/></svg>