<svg id="Calque_1" data-name="Calque 1" xmlns="http://www.w3.org/2000/svg" xmlns:xlink="http://www.w3.org/1999/xlink" viewBox="0 0 156.85 163.56"><defs><style>.cls-1{fill:url(#Dégradé_sans_nom_162);}</style><linearGradient id="Dégradé_sans_nom_162" x1="42.82" y1="84.71" x2="111.71" y2="84.71" gradientUnits="userSpaceOnUse"><stop offset="0" stop-color="#c08a81"/><stop offset="1" stop-color="#d4958d"/></linearGradient></defs><path class="cls-1" d="M110.47,66.07c-2.66-7.94-10-13.31-17.74-13.08-7,.22-12.24,3.09-15.51,8.56a18.36,18.36,0,0,0-20.81-7.82c-11,3.51-14.82,16.66-13.26,24.4a34.36,34.36,0,0,0,3,7.89,53.17,53.17,0,0,0,3.46,6c.34.5.6.87.93,1.33,0,.06.09.11.13.18l.09.11c5.78,8,13.43,14.9,24.79,22.35a3.09,3.09,0,0,0,1.68.53,3.41,3.41,0,0,0,2-.78l3.5-2.51c2.65-1.89,5.4-3.84,8-6a66.81,66.81,0,0,0,17.64-21.19,32.56,32.56,0,0,0,2.29-5.6c.25-.85.46-1.69.62-2.53A22.9,22.9,0,0,0,110.47,66.07ZM46.72,77.41C45.39,70.83,48.86,60,57.52,57.2a12.89,12.89,0,0,1,4-.62c5.55,0,11.11,3.28,13.33,8.34.13.29.25.57.41.91l2,4.59,1.58-4.06c2.46-6.34,7-9.52,13.92-9.73,6.18-.17,12,4.16,14.18,10.59.14.42.27.84.38,1.26A20.08,20.08,0,0,1,108,71.8S94.89,91,77.35,86.81c-10.45-2.52-21.88-4-27.84-2.1A31.07,31.07,0,0,1,46.72,77.41Z"/></svg>