<svg id="Calque_1" data-name="Calque 1" xmlns="http://www.w3.org/2000/svg" xmlns:xlink="http://www.w3.org/1999/xlink" viewBox="0 0 156.85 163.56"><defs><style>.cls-1{fill:#d2978d;}.cls-2{fill:#c08a81;}.cls-3{fill:#fff;}.cls-4{fill:url(#Dégradé_sans_nom_162);}</style><linearGradient id="Dégradé_sans_nom_162" x1="44.88" y1="85.17" x2="115.38" y2="85.17" gradientUnits="userSpaceOnUse"><stop offset="0" stop-color="#c08a81"/><stop offset="1" stop-color="#d4958d"/></linearGradient></defs><path class="cls-1" d="M133.09,54.19l.25-.54.23-.56c.16-.38.32-.76.45-1.16a23.47,23.47,0,0,0,.79-2.49,16.2,16.2,0,0,0,.49-2.83,10.85,10.85,0,0,0-.2-3.14,7.38,7.38,0,0,0-1.34-2.87A3.83,3.83,0,0,0,131.28,39a2.55,2.55,0,0,0-.73,0,3.52,3.52,0,0,0-.71.18,4.42,4.42,0,0,0-1.27.83,9.64,9.64,0,0,0-1.78,2.46c-.48.89-.89,1.79-1.31,2.64-.21.42-.43.81-.65,1.22s-.47.78-.71,1.17a21.93,21.93,0,0,1-3.49,4.05,32.73,32.73,0,0,1-8.76,5.54c-3.12,1.41-6.37,2.54-9.5,3.94a33.57,33.57,0,0,0-8.84,5.47A28.83,28.83,0,0,0,87.16,75c-.42.77-.76,1.59-1.12,2.37s-.64,1.6-.9,2.41-.5,1.61-.74,2.4l-.29,1.19c0,.2-.1.39-.14.59l-.12.59a35.58,35.58,0,0,0-.73,8.62,11.3,11.3,0,0,0,.71,3.48,5.81,5.81,0,0,0,1.52,2.26,3.56,3.56,0,0,0,.86.57,2.7,2.7,0,0,0,.81.23,2,2,0,0,0,1.19-.23,3.17,3.17,0,0,0,1.4-1.55l.09-.25a16.06,16.06,0,0,1,2.22.91,18.58,18.58,0,0,0,3,1.23,6.73,6.73,0,0,0,1.59.24,4.6,4.6,0,0,0,1.51-.21,4.55,4.55,0,0,0,2.17-1.43,3.3,3.3,0,0,0,.73-1.37h0a25,25,0,0,0,3.46,2.37,8.07,8.07,0,0,0,5,1.1A5.86,5.86,0,0,0,113,98.39a5.73,5.73,0,0,0,1.14-2.26,4.56,4.56,0,0,0,.07-.64v-.24a15.05,15.05,0,0,0,1.52.14,12.59,12.59,0,0,0,5.45-.94,11.28,11.28,0,0,0,4.44-3.35A9.49,9.49,0,0,0,127,88.8a8.37,8.37,0,0,0,.61-2.27,6.7,6.7,0,0,0-.15-2.76,3.34,3.34,0,0,0-.33-.72,18.4,18.4,0,0,0,2.7-2.8c.27-.38.56-.73.81-1.12s.5-.75.72-1.15.44-.78.63-1.17a12.93,12.93,0,0,0,.54-1.2,9.26,9.26,0,0,0,.61-2.45,6,6,0,0,0-.16-2.17,4.37,4.37,0,0,0-.62-1.38,2.18,2.18,0,0,0-.57-.56,1.64,1.64,0,0,0-.32-.14,21.69,21.69,0,0,0,1.28-2.07c.12-.22.24-.43.35-.66l.31-.67a14.25,14.25,0,0,0,.56-1.35,13.43,13.43,0,0,0,.78-2.77,7.12,7.12,0,0,0-.05-2.73,4.22,4.22,0,0,0-.44-1.13,3.37,3.37,0,0,0-.62-.74,2.19,2.19,0,0,0-1.21-.57,1.76,1.76,0,0,0-.33,0l.53-1C132.77,54.91,132.92,54.54,133.09,54.19Z"/><path class="cls-2" d="M133.06,66.18l.31-.67a14.25,14.25,0,0,0,.56-1.35,13.43,13.43,0,0,0,.78-2.77,7.12,7.12,0,0,0-.05-2.73,4.22,4.22,0,0,0-.44-1.13,3.37,3.37,0,0,0-.62-.74,2.19,2.19,0,0,0-1.21-.57,1.76,1.76,0,0,0-.33,0l.53-1c.18-.33.33-.7.5-1.05l.25-.54.23-.56c.16-.38.32-.76.45-1.16a23.47,23.47,0,0,0,.79-2.49,16.2,16.2,0,0,0,.49-2.83,10.85,10.85,0,0,0-.2-3.14,7.38,7.38,0,0,0-1.34-2.87,3.86,3.86,0,0,0-2.43-1.55c.79,2.9.15,6.28-.75,9.09a53.53,53.53,0,0,1-2.27,5.64c-.89,2-1.85,3.9-2.86,5.77-1.14,2.12-2.37,4.17-3.66,6.15-.08.13,0,.37.15.26a12.53,12.53,0,0,1,3.88-2.53,10.76,10.76,0,0,1,2-.59c.65-.11,1.57-.26,1.91.67a4,4,0,0,1-.26,2.47,12.9,12.9,0,0,1-.91,2,15.28,15.28,0,0,1-2.77,3.49,34.79,34.79,0,0,1-3.61,3c-.12.1,0,.36.1.3a5.39,5.39,0,0,1,3.58-.6,3,3,0,0,1,1.93,2.57,3.51,3.51,0,0,1-.55,2,16.58,16.58,0,0,1-1.06,1.61,21.33,21.33,0,0,1-2.44,2.87,19.15,19.15,0,0,1-3.07,2.46c-.13.09,0,.36.1.3.45-.19.87.15,1.11.65a2.26,2.26,0,0,1,.06,1.77,5.22,5.22,0,0,1-2.37,2.39,13.49,13.49,0,0,1-6.29,2.08,12.82,12.82,0,0,1-3.7-.31c-.12,0-.21.14-.12.27a2.17,2.17,0,0,1-.61,2.77,4.68,4.68,0,0,1-3,.41,24.85,24.85,0,0,1-6.55-1.33,26.77,26.77,0,0,1-3.5-1.51c-.07,0-.16.06-.15.16a3.45,3.45,0,0,1-3.44,3.4c-2,.18-3.89-1.08-5.88-.66a3.42,3.42,0,0,0-2.08,1.47,5.4,5.4,0,0,0,1.11,1.4,3.56,3.56,0,0,0,.86.57,2.7,2.7,0,0,0,.81.23,2,2,0,0,0,1.19-.23,3.17,3.17,0,0,0,1.4-1.55l.09-.25a16.06,16.06,0,0,1,2.22.91,18.58,18.58,0,0,0,3,1.23,6.73,6.73,0,0,0,1.59.24,4.6,4.6,0,0,0,1.51-.21,4.55,4.55,0,0,0,2.17-1.43,3.3,3.3,0,0,0,.73-1.37h0a25,25,0,0,0,3.46,2.37,8.07,8.07,0,0,0,5,1.1A5.86,5.86,0,0,0,113,98.39a5.73,5.73,0,0,0,1.14-2.26,4.56,4.56,0,0,0,.07-.64v-.24a15.05,15.05,0,0,0,1.52.14,12.59,12.59,0,0,0,5.45-.94,11.28,11.28,0,0,0,4.44-3.35A9.49,9.49,0,0,0,127,88.8a8.37,8.37,0,0,0,.61-2.27,6.7,6.7,0,0,0-.15-2.76,3.34,3.34,0,0,0-.33-.72,18.4,18.4,0,0,0,2.7-2.8c.27-.38.56-.73.81-1.12s.5-.75.72-1.15.44-.78.63-1.17a12.93,12.93,0,0,0,.54-1.2,9.26,9.26,0,0,0,.61-2.45,6,6,0,0,0-.16-2.17,4.37,4.37,0,0,0-.62-1.38,2.18,2.18,0,0,0-.57-.56,1.64,1.64,0,0,0-.32-.14,21.69,21.69,0,0,0,1.28-2.07C132.83,66.62,133,66.41,133.06,66.18Z"/><path class="cls-2" d="M118.28,59c-2.51,1.42-5,2.84-7.52,4.32s-5,3-7.39,4.59a43.62,43.62,0,0,0-6.61,5A23.33,23.33,0,0,0,92,79.82a48.34,48.34,0,0,0-2.85,8.38l-.27,1.07c0,.2.2.29.25.09l0-.13a.15.15,0,0,0,.07-.07,38.76,38.76,0,0,1,4.31-7.5,32.63,32.63,0,0,1,5.56-5.9,49.86,49.86,0,0,1,7.18-4.64,39.82,39.82,0,0,0,6.81-4.58A19.68,19.68,0,0,0,118,60.2c.15-.33.29-.65.42-1C118.52,59.06,118.39,58.92,118.28,59Z"/><path class="cls-2" d="M115.26,72.31a.11.11,0,0,0-.21,0,7.28,7.28,0,0,1-2.87,3.14,5.16,5.16,0,0,1-1.83.62,1.75,1.75,0,0,0-.86.22,1.25,1.25,0,0,0-.41.93,10.74,10.74,0,0,1-.48,2.28,8.8,8.8,0,0,1-1,1.94,6.71,6.71,0,0,1-1.37,1.48,4.84,4.84,0,0,1-.82.54,7.28,7.28,0,0,0-.85.4,1.59,1.59,0,0,0-.6,1c-.12.48-.24,1-.4,1.42a10.15,10.15,0,0,1-1.33,2.53c-.11.15.07.38.18.23s.27-.4.4-.6a1.69,1.69,0,0,0,1.83,0,6.45,6.45,0,0,0,1.63-1.51,4.78,4.78,0,0,1,1.77-1.46,20.57,20.57,0,0,1,2.17-.49,4.49,4.49,0,0,0,2.9-2.86c.3-.8.36-1.72.69-2.5a6.32,6.32,0,0,1,.72-1.1,6.12,6.12,0,0,0,.53-1A7.44,7.44,0,0,0,115.26,72.31Z"/><path class="cls-3" d="M115.18,67.87a2.69,2.69,0,0,0-.27,1,15.64,15.64,0,0,1-.45,1.85,8.83,8.83,0,0,1-1,2.13,5.79,5.79,0,0,1-.76.94,4.8,4.8,0,0,1-.91.72c-.16.11-.33.18-.49.27a4.65,4.65,0,0,1-.52.2,4.7,4.7,0,0,1-1,.22,9.14,9.14,0,0,1-3.23-.48c-.34,0-.46,0-.39.28a2.57,2.57,0,0,0,.83,1,4.6,4.6,0,0,0,1.46.81,10,10,0,0,1-1.16,3.82,3.94,3.94,0,0,1-.58.75,3.08,3.08,0,0,1-.71.55,2.79,2.79,0,0,1-.8.34,3.55,3.55,0,0,1-.84.12,7.22,7.22,0,0,1-2.66-.64c-.29-.09-.43,0-.4.22a2.29,2.29,0,0,0,.59,1.06,3.83,3.83,0,0,0,1.62,1.09,3.74,3.74,0,0,0,.45.12,1.75,1.75,0,0,0-.13.33,10.92,10.92,0,0,1-.47,1.57,3.38,3.38,0,0,1-.45.79,3.34,3.34,0,0,1-.65.65c-.47.38-1,.58-1.37.87-.18.15-.26.3-.21.47a.83.83,0,0,0,.49.47,1.86,1.86,0,0,0,1.06.14,2.81,2.81,0,0,0,1.27-.59,3.65,3.65,0,0,0,1-1.36,4.78,4.78,0,0,0,.38-1.59,3.37,3.37,0,0,0-.26-1.66,3.42,3.42,0,0,0,1.21-.16,4.21,4.21,0,0,0,2.16-1.56,6.47,6.47,0,0,0,.71-1.22c.1-.2.16-.43.24-.63s.13-.42.18-.64a7.08,7.08,0,0,0,.16-2.16,3.87,3.87,0,0,0-.2-1,4.78,4.78,0,0,0,2.54-.22A5.53,5.53,0,0,0,114,74.94a7.72,7.72,0,0,0,.85-1.36c.12-.23.22-.49.32-.72s.17-.48.23-.72a8.94,8.94,0,0,0,.37-2.5,4.83,4.83,0,0,0-.15-1.32C115.44,67.84,115.29,67.74,115.18,67.87Zm-1.75,11.84c-.23-.29-.38-.31-.48-.19a1.56,1.56,0,0,0-.17.74c0,.36-.08.81-.18,1.31a7.43,7.43,0,0,1-.5,1.56,4.67,4.67,0,0,1-.42.72,3.66,3.66,0,0,1-1.16,1.06,3.18,3.18,0,0,1-.68.31,8.16,8.16,0,0,1-2.35.26q-.4.06-.33.36a1.68,1.68,0,0,0,.66.78,3.2,3.2,0,0,0,1.55.52,3.51,3.51,0,0,0,2-.49,4.48,4.48,0,0,0,1.68-1.79,6.58,6.58,0,0,0,.74-2.33,6.49,6.49,0,0,0-.05-1.91A2.62,2.62,0,0,0,113.43,79.71Zm19.66-25.52.25-.54.23-.56c.16-.38.32-.76.45-1.16a23.47,23.47,0,0,0,.79-2.49,16.2,16.2,0,0,0,.49-2.83,10.85,10.85,0,0,0-.2-3.14,7.38,7.38,0,0,0-1.34-2.87A3.83,3.83,0,0,0,131.28,39a2.55,2.55,0,0,0-.73,0,3.52,3.52,0,0,0-.71.18,4.42,4.42,0,0,0-1.27.83,9.64,9.64,0,0,0-1.78,2.46c-.48.89-.89,1.79-1.31,2.64-.21.42-.43.81-.65,1.22s-.47.78-.71,1.17a21.93,21.93,0,0,1-3.49,4.05,32.73,32.73,0,0,1-8.76,5.54c-3.12,1.41-6.37,2.54-9.5,3.94a33.57,33.57,0,0,0-8.84,5.47A28.83,28.83,0,0,0,87.16,75c-.42.77-.76,1.59-1.12,2.37s-.64,1.6-.9,2.41-.5,1.61-.74,2.4l-.29,1.19c0,.2-.1.39-.14.59l-.12.59a35.58,35.58,0,0,0-.73,8.62,11.3,11.3,0,0,0,.71,3.48,5.81,5.81,0,0,0,1.52,2.26,3.56,3.56,0,0,0,.86.57,2.7,2.7,0,0,0,.81.23,2,2,0,0,0,1.19-.23,3.17,3.17,0,0,0,1.4-1.55l.09-.25a16.06,16.06,0,0,1,2.22.91,18.58,18.58,0,0,0,3,1.23,6.73,6.73,0,0,0,1.59.24,4.6,4.6,0,0,0,1.51-.21,4.55,4.55,0,0,0,2.17-1.43,3.3,3.3,0,0,0,.73-1.37h0a25,25,0,0,0,3.46,2.37,8.07,8.07,0,0,0,5,1.1A5.86,5.86,0,0,0,113,98.39a5.73,5.73,0,0,0,1.14-2.26,4.56,4.56,0,0,0,.07-.64v-.24a15.05,15.05,0,0,0,1.52.14,12.59,12.59,0,0,0,5.45-.94,11.28,11.28,0,0,0,4.44-3.35A9.49,9.49,0,0,0,127,88.8a8.37,8.37,0,0,0,.61-2.27,6.7,6.7,0,0,0-.15-2.76,3.34,3.34,0,0,0-.33-.72,18.4,18.4,0,0,0,2.7-2.8c.27-.38.56-.73.81-1.12s.5-.75.72-1.15.44-.78.63-1.17a12.93,12.93,0,0,0,.54-1.2,9.26,9.26,0,0,0,.61-2.45,6,6,0,0,0-.16-2.17,4.37,4.37,0,0,0-.62-1.38,2.18,2.18,0,0,0-.57-.56,1.64,1.64,0,0,0-.32-.14,21.69,21.69,0,0,0,1.28-2.07c.12-.22.24-.43.35-.66l.31-.67a14.25,14.25,0,0,0,.56-1.35,13.43,13.43,0,0,0,.78-2.77,7.12,7.12,0,0,0-.05-2.73,4.22,4.22,0,0,0-.44-1.13,3.37,3.37,0,0,0-.62-.74,2.19,2.19,0,0,0-1.21-.57,1.76,1.76,0,0,0-.33,0l.53-1C132.77,54.91,132.92,54.54,133.09,54.19Zm-2.57,2.27a26.36,26.36,0,0,1-4.28,5.6,24.77,24.77,0,0,1-3.75,3c-.51.33-.92.6-1.23.77a5.42,5.42,0,0,0-.58.4c-.17.17.08.14.72-.06a13.77,13.77,0,0,0,2.9-1.45,21.37,21.37,0,0,0,4.33-3.71c.2-.21.39-.44.58-.68s.39-.46.59-.72c.37-.51.77-1,1.14-1.61.2-.27.38-.57.56-.87a1.33,1.33,0,0,1,.83.12,1.87,1.87,0,0,1,.43.3,2.07,2.07,0,0,1,.41.5,2,2,0,0,1,.27.64,4.11,4.11,0,0,1,.1.89,7.34,7.34,0,0,1-.35,2.15,12.08,12.08,0,0,1-.43,1.18c-.18.4-.34.82-.53,1.22a21.61,21.61,0,0,1-2.86,4.5A19.17,19.17,0,0,1,125.8,72a18.14,18.14,0,0,1-3.45,2l-.73.32-.66.24c-.41.18-.76.29-1,.42-.54.25-.62.43-.3.55a3.23,3.23,0,0,0,.75.12,7.15,7.15,0,0,0,1.26,0,12.08,12.08,0,0,0,3.57-1.14,15.72,15.72,0,0,0,4.06-3,17.5,17.5,0,0,0,1.84-2.14,3.85,3.85,0,0,1,.6,1,4.65,4.65,0,0,1,.29,1.37,5.15,5.15,0,0,1-.21,1.76,10.08,10.08,0,0,1-.84,2c-.19.34-.4.68-.62,1-.1.17-.21.36-.32.53l-.36.5a19.78,19.78,0,0,1-3.32,3.68,18,18,0,0,1-3.82,2.52A18.7,18.7,0,0,1,119,85l-.74.19-.66.13c-.41.1-.76.16-1,.24-.55.17-.64.33-.34.5a3.17,3.17,0,0,0,.71.24,2.84,2.84,0,0,0,.55.1l.66.06a11.6,11.6,0,0,0,3.54-.46,14.41,14.41,0,0,0,4.23-2c.29-.2.58-.41.86-.64a12.1,12.1,0,0,1,0,1.64,8,8,0,0,1-1.18,3.66,9.79,9.79,0,0,1-3.49,3.25,11.79,11.79,0,0,1-4.8,1.43,17.82,17.82,0,0,1-4.92-.33c-1.55-.31-3-.72-4.16-1a18.34,18.34,0,0,0-2.78-.61c-1.25-.11-.47.53,1.49,1.53a28,28,0,0,0,3.75,1.57,20.4,20.4,0,0,0,3.17.79,11.14,11.14,0,0,1-.77,1.33,5.47,5.47,0,0,1-2.6,2,4.23,4.23,0,0,1-.92.23,4,4,0,0,1-.49,0,4.34,4.34,0,0,1-.51,0,7.41,7.41,0,0,1-2.16-.53,19.88,19.88,0,0,1-4.43-2.8,29.35,29.35,0,0,0-4.5-3.09,7.59,7.59,0,0,0-4.3-.9,4.85,4.85,0,0,0-1.6.47,3.46,3.46,0,0,0-1,.74c-.46.52-.43.71-.12.65a11.46,11.46,0,0,1,1.83-.4,7.21,7.21,0,0,1,3.4.59,19.26,19.26,0,0,1,4.12,2.65l.61.48c-.09.1-.2.22-.33.34a4.63,4.63,0,0,1-.65.53,4.2,4.2,0,0,1-.9.45,4.36,4.36,0,0,1-1.12.23,4.5,4.5,0,0,1-1.25-.09c-1.77-.34-3.77-1.64-5.73-2.13a5.47,5.47,0,0,0-2.65-.08,2.76,2.76,0,0,0-1.55.93c-.26.37-.23.54,0,.59a10.54,10.54,0,0,0,1.1-.08,6.63,6.63,0,0,1,2,.24,2.65,2.65,0,0,1-.56.72,1.92,1.92,0,0,1-1.46.53,2.7,2.7,0,0,1-1.75-1.09,5.38,5.38,0,0,1-.72-1.2A8.08,8.08,0,0,1,84.33,95a16.16,16.16,0,0,1-.17-3.88,39.78,39.78,0,0,1,.51-4.44c.12-.78.31-1.54.48-2.33s.39-1.57.65-2.35.53-1.56.81-2.35c.16-.39.32-.78.49-1.17s.35-.77.52-1.16a32.67,32.67,0,0,1,2.55-4.44A26.67,26.67,0,0,1,93.46,69a24.58,24.58,0,0,1,4-3.11,51.62,51.62,0,0,1,9.14-4.38c1.59-.63,3.21-1.25,4.82-1.94a46.81,46.81,0,0,0,4.77-2.35,31.23,31.23,0,0,0,4.52-3.13,23.74,23.74,0,0,0,3.93-4.18c.28-.41.57-.8.83-1.23l.4-.64.19-.32.18-.34c.23-.45.48-.89.69-1.34s.41-.88.62-1.31a16.94,16.94,0,0,1,1.3-2.33A3.36,3.36,0,0,1,130.41,41a1.85,1.85,0,0,1,1.73.3,4.23,4.23,0,0,1,1.31,1.73,5.51,5.51,0,0,1,.36,1.13,8.11,8.11,0,0,1,.15,1.23,11.55,11.55,0,0,1-.17,2.49,24.56,24.56,0,0,1-1.38,4.64A30.41,30.41,0,0,1,130.52,56.46Zm-11.64,2a10.91,10.91,0,0,0-2.34,1l-4.79,2.39c-1.91,1-4.11,2-6.39,3.38-1.14.66-2.29,1.38-3.44,2.18-.57.39-1.14.82-1.7,1.24s-1.13.89-1.66,1.38S97.5,71,97,71.52c-.26.26-.5.53-.75.8s-.49.53-.73.81a30.37,30.37,0,0,0-2.57,3.46,26.77,26.77,0,0,0-3.21,7.08c-.14.56-.29,1.07-.38,1.58s-.18,1-.24,1.41A15.92,15.92,0,0,0,89,88.87c0,1.15.15,1.28.33.7.09-.29.17-.77.31-1.39.08-.31.16-.65.25-1,0-.19.1-.38.16-.58l.18-.64a27.56,27.56,0,0,1,2.59-6.08c.32-.54.64-1.1,1-1.64s.75-1.08,1.15-1.63a32.21,32.21,0,0,1,2.68-3.09A38.46,38.46,0,0,1,104,68.32c2.21-1.47,4.41-2.74,6.39-3.87s3.72-2.15,5-3A27.58,27.58,0,0,0,118,59.63C118.93,58.8,119.17,58.44,118.88,58.45Z"/><path class="cls-1" d="M27.16,54.19c-.08-.18-.17-.36-.24-.54l-.24-.56c-.15-.38-.31-.76-.45-1.16a26,26,0,0,1-.79-2.49A15.32,15.32,0,0,1,25,46.61a10.51,10.51,0,0,1,.2-3.14,7.22,7.22,0,0,1,1.33-2.87A3.83,3.83,0,0,1,29,39a2.62,2.62,0,0,1,.74,0,3.7,3.7,0,0,1,.71.18,4.42,4.42,0,0,1,1.27.83,9.89,9.89,0,0,1,1.78,2.46c.48.89.89,1.79,1.31,2.64.21.42.43.81.64,1.22s.48.78.72,1.17a21.93,21.93,0,0,0,3.49,4.05,32.58,32.58,0,0,0,8.76,5.54c3.12,1.41,6.36,2.54,9.5,3.94a33.52,33.52,0,0,1,8.83,5.47A28.86,28.86,0,0,1,73.1,75c.41.77.76,1.59,1.11,2.37s.65,1.6.91,2.41.5,1.61.74,2.4l.29,1.19c0,.2.1.39.14.59l.11.59a35.62,35.62,0,0,1,.74,8.62,11.3,11.3,0,0,1-.71,3.48,5.92,5.92,0,0,1-1.52,2.26,3.76,3.76,0,0,1-.86.57,2.78,2.78,0,0,1-.81.23,2.09,2.09,0,0,1-1.2-.23,3.19,3.19,0,0,1-1.39-1.55c0-.09-.07-.17-.1-.25a17.13,17.13,0,0,0-2.22.91,18.47,18.47,0,0,1-3,1.23,6.81,6.81,0,0,1-1.6.24,4.68,4.68,0,0,1-1.51-.21A4.52,4.52,0,0,1,60,98.43a3.3,3.3,0,0,1-.73-1.37h0a24.46,24.46,0,0,1-3.47,2.37,8,8,0,0,1-5,1.1,5.83,5.83,0,0,1-3.59-2.13,5.59,5.59,0,0,1-1.14-2.26c0-.26-.07-.47-.08-.64a1.77,1.77,0,0,1,0-.24c-.5.07-1,.12-1.52.14a12.56,12.56,0,0,1-5.45-.94,11.28,11.28,0,0,1-4.44-3.35,9.87,9.87,0,0,1-1.36-2.3,8.75,8.75,0,0,1-.61-2.27,6.82,6.82,0,0,1,.16-2.76,2.91,2.91,0,0,1,.33-.72,17.49,17.49,0,0,1-2.7-2.8c-.28-.38-.56-.73-.81-1.12s-.51-.75-.72-1.15-.44-.78-.64-1.17-.37-.79-.53-1.2a9.29,9.29,0,0,1-.62-2.45A5.76,5.76,0,0,1,27.32,71a4.37,4.37,0,0,1,.62-1.38,2.18,2.18,0,0,1,.56-.56,1.7,1.7,0,0,1,.33-.14,19.92,19.92,0,0,1-1.29-2.07c-.11-.22-.24-.43-.34-.66l-.31-.67a14.25,14.25,0,0,1-.56-1.35,12.84,12.84,0,0,1-.78-2.77,7.12,7.12,0,0,1,.05-2.73A3.92,3.92,0,0,1,26,57.53a3.11,3.11,0,0,1,.62-.74,2.13,2.13,0,0,1,1.21-.57,1.63,1.63,0,0,1,.32,0l-.52-1C27.49,54.91,27.34,54.54,27.16,54.19Z"/><path class="cls-2" d="M27.2,66.18l-.31-.67a14.25,14.25,0,0,1-.56-1.35,12.84,12.84,0,0,1-.78-2.77,7.12,7.12,0,0,1,.05-2.73A3.92,3.92,0,0,1,26,57.53a3.11,3.11,0,0,1,.62-.74,2.13,2.13,0,0,1,1.21-.57,1.63,1.63,0,0,1,.32,0l-.52-1c-.18-.33-.33-.7-.51-1.05-.08-.18-.17-.36-.24-.54l-.24-.56c-.15-.38-.31-.76-.45-1.16a26,26,0,0,1-.79-2.49A15.32,15.32,0,0,1,25,46.61a10.51,10.51,0,0,1,.2-3.14,7.22,7.22,0,0,1,1.33-2.87,3.86,3.86,0,0,1,2.43-1.55c-.78,2.9-.15,6.28.76,9.09A53.53,53.53,0,0,0,32,53.78c.89,2,1.84,3.9,2.85,5.77q1.73,3.18,3.66,6.15c.09.13,0,.37-.15.26a12.42,12.42,0,0,0-3.88-2.53,10.55,10.55,0,0,0-2-.59c-.64-.11-1.57-.26-1.9.67A4,4,0,0,0,30.75,66a11.3,11.3,0,0,0,.91,2,15.24,15.24,0,0,0,2.76,3.49,36,36,0,0,0,3.62,3c.12.1,0,.36-.1.3a5.4,5.4,0,0,0-3.58-.6,3,3,0,0,0-1.93,2.57,3.58,3.58,0,0,0,.54,2A18.66,18.66,0,0,0,34,80.33a22.09,22.09,0,0,0,2.44,2.87,19.21,19.21,0,0,0,3.08,2.46c.12.09,0,.36-.1.3-.46-.19-.87.15-1.11.65a2.22,2.22,0,0,0-.06,1.77,5.22,5.22,0,0,0,2.37,2.39,13.46,13.46,0,0,0,6.29,2.08,12.78,12.78,0,0,0,3.69-.31c.12,0,.22.14.13.27a2.15,2.15,0,0,0,.61,2.77,4.67,4.67,0,0,0,3.05.41A24.7,24.7,0,0,0,61,94.66a26.2,26.2,0,0,0,3.5-1.51c.08,0,.16.06.16.16a3.44,3.44,0,0,0,3.43,3.4c2,.18,3.89-1.08,5.89-.66A3.42,3.42,0,0,1,76,97.52a5.62,5.62,0,0,1-1.11,1.4,3.76,3.76,0,0,1-.86.57,2.78,2.78,0,0,1-.81.23,2.09,2.09,0,0,1-1.2-.23,3.19,3.19,0,0,1-1.39-1.55c0-.09-.07-.17-.1-.25a17.13,17.13,0,0,0-2.22.91,18.47,18.47,0,0,1-3,1.23,6.81,6.81,0,0,1-1.6.24,4.68,4.68,0,0,1-1.51-.21A4.52,4.52,0,0,1,60,98.43a3.3,3.3,0,0,1-.73-1.37h0a24.46,24.46,0,0,1-3.47,2.37,8,8,0,0,1-5,1.1,5.83,5.83,0,0,1-3.59-2.13,5.59,5.59,0,0,1-1.14-2.26c0-.26-.07-.47-.08-.64a1.77,1.77,0,0,1,0-.24c-.5.07-1,.12-1.52.14a12.56,12.56,0,0,1-5.45-.94,11.28,11.28,0,0,1-4.44-3.35,9.87,9.87,0,0,1-1.36-2.3,8.75,8.75,0,0,1-.61-2.27,6.82,6.82,0,0,1,.16-2.76,2.91,2.91,0,0,1,.33-.72,17.49,17.49,0,0,1-2.7-2.8c-.28-.38-.56-.73-.81-1.12s-.51-.75-.72-1.15-.44-.78-.64-1.17-.37-.79-.53-1.2a9.29,9.29,0,0,1-.62-2.45A5.76,5.76,0,0,1,27.32,71a4.37,4.37,0,0,1,.62-1.38,2.18,2.18,0,0,1,.56-.56,1.7,1.7,0,0,1,.33-.14,19.92,19.92,0,0,1-1.29-2.07C27.43,66.62,27.3,66.41,27.2,66.18Z"/><path class="cls-2" d="M41.8,59.21c.14.34.28.66.43,1a19.66,19.66,0,0,0,4.89,6.34,39.89,39.89,0,0,0,6.82,4.58,50.41,50.41,0,0,1,7.18,4.64,32.63,32.63,0,0,1,5.56,5.9A39.82,39.82,0,0,1,71,89.16a.12.12,0,0,0,.07.07l0,.13c0,.2.29.11.24-.09-.08-.36-.17-.71-.26-1.07a49.19,49.19,0,0,0-2.85-8.38,23.52,23.52,0,0,0-4.72-6.88,43.62,43.62,0,0,0-6.61-5c-2.43-1.61-4.9-3.13-7.39-4.59s-5-2.9-7.53-4.32C41.86,58.92,41.74,59.06,41.8,59.21Z"/><path class="cls-2" d="M45.17,77.55a5.46,5.46,0,0,0,.54,1,6.27,6.27,0,0,1,.71,1.1c.34.78.4,1.7.7,2.5A4.47,4.47,0,0,0,50,85a19.85,19.85,0,0,1,2.16.49A4.81,4.81,0,0,1,54,86.94a6.45,6.45,0,0,0,1.63,1.51,1.69,1.69,0,0,0,1.83,0c.12.2.26.4.4.6s.29-.08.17-.23a10.12,10.12,0,0,1-1.32-2.53,13.56,13.56,0,0,1-.4-1.42,1.56,1.56,0,0,0-.61-1,7.28,7.28,0,0,0-.85-.4,5.27,5.27,0,0,1-.82-.54,6.45,6.45,0,0,1-1.36-1.48,8.38,8.38,0,0,1-1-1.94,9.63,9.63,0,0,1-.48-2.28,1.22,1.22,0,0,0-.42-.93,1.75,1.75,0,0,0-.86-.22,5.18,5.18,0,0,1-1.82-.62,7.22,7.22,0,0,1-2.87-3.14c-.05-.09-.18-.11-.22,0A7.5,7.5,0,0,0,45.17,77.55Z"/><path class="cls-3" d="M44.62,68.32a4.83,4.83,0,0,0-.15,1.32,8.88,8.88,0,0,0,.36,2.5c.06.24.16.47.24.72a7.55,7.55,0,0,0,.32.72,7.18,7.18,0,0,0,.85,1.36,5.48,5.48,0,0,0,2.46,1.85,4.78,4.78,0,0,0,2.54.22,3.87,3.87,0,0,0-.2,1,6.78,6.78,0,0,0,.16,2.16c0,.22.11.42.17.64s.15.43.25.63a5.93,5.93,0,0,0,.7,1.22,4.28,4.28,0,0,0,2.17,1.56,3.42,3.42,0,0,0,1.21.16A3.37,3.37,0,0,0,55.44,86a4.52,4.52,0,0,0,.37,1.59,3.65,3.65,0,0,0,1,1.36,2.84,2.84,0,0,0,1.28.59,1.87,1.87,0,0,0,1.06-.14.87.87,0,0,0,.49-.47.46.46,0,0,0-.21-.47c-.37-.29-.9-.49-1.38-.87a3.28,3.28,0,0,1-.64-.65,3.06,3.06,0,0,1-.45-.79,11.1,11.1,0,0,1-.48-1.57,1,1,0,0,0-.13-.33,3,3,0,0,0,.45-.12,3.83,3.83,0,0,0,1.62-1.09A2.2,2.2,0,0,0,59,82c0-.24-.1-.31-.4-.22a7.16,7.16,0,0,1-2.65.64,3.48,3.48,0,0,1-.84-.12,2.68,2.68,0,0,1-.8-.34,2.88,2.88,0,0,1-.71-.55,4,4,0,0,1-.59-.75,9.75,9.75,0,0,1-1.15-3.82A4.83,4.83,0,0,0,53.33,76a2.44,2.44,0,0,0,.82-1c.08-.24,0-.33-.38-.28a9.16,9.16,0,0,1-3.24.48,5,5,0,0,1-1-.22,5.38,5.38,0,0,1-.51-.2,4.82,4.82,0,0,1-.5-.27,5.08,5.08,0,0,1-.9-.72,5.79,5.79,0,0,1-.76-.94,8.47,8.47,0,0,1-1-2.13,14.11,14.11,0,0,1-.46-1.85,2.33,2.33,0,0,0-.27-1C45,67.74,44.81,67.84,44.62,68.32Zm1.9,12.3a6.16,6.16,0,0,0-.05,1.91,6.56,6.56,0,0,0,.73,2.33,4.62,4.62,0,0,0,1.68,1.79,3.55,3.55,0,0,0,2,.49,3.13,3.13,0,0,0,1.55-.52,1.56,1.56,0,0,0,.66-.78c.06-.2-.05-.32-.32-.36a8.13,8.13,0,0,1-2.35-.26,3.49,3.49,0,0,1-.69-.31,3,3,0,0,1-.62-.46,2.78,2.78,0,0,1-.53-.6,4.67,4.67,0,0,1-.42-.72,6.42,6.42,0,0,1-.5-1.56c-.1-.5-.14-.95-.18-1.31a1.56,1.56,0,0,0-.17-.74c-.1-.12-.25-.1-.49.19A2.68,2.68,0,0,0,46.52,80.62ZM27.67,55.24l.52,1a1.63,1.63,0,0,0-.32,0,2.13,2.13,0,0,0-1.21.57,3.11,3.11,0,0,0-.62.74,3.92,3.92,0,0,0-.44,1.13,7.12,7.12,0,0,0-.05,2.73,12.84,12.84,0,0,0,.78,2.77,14.25,14.25,0,0,0,.56,1.35l.31.67c.1.23.23.44.34.66a19.92,19.92,0,0,0,1.29,2.07,1.7,1.7,0,0,0-.33.14,2.18,2.18,0,0,0-.56.56A4.37,4.37,0,0,0,27.32,71a5.76,5.76,0,0,0-.17,2.17,9.29,9.29,0,0,0,.62,2.45c.16.41.34.81.53,1.2s.42.77.64,1.17.47.76.72,1.15.53.74.81,1.12a17.49,17.49,0,0,0,2.7,2.8,2.91,2.91,0,0,0-.33.72,6.82,6.82,0,0,0-.16,2.76,8.75,8.75,0,0,0,.61,2.27,9.87,9.87,0,0,0,1.36,2.3,11.28,11.28,0,0,0,4.44,3.35,12.56,12.56,0,0,0,5.45.94c.51,0,1-.07,1.52-.14a1.77,1.77,0,0,0,0,.24c0,.17,0,.38.08.64a5.59,5.59,0,0,0,1.14,2.26,5.83,5.83,0,0,0,3.59,2.13,8,8,0,0,0,5-1.1,24.46,24.46,0,0,0,3.47-2.37h0A3.3,3.3,0,0,0,60,98.43a4.52,4.52,0,0,0,2.16,1.43,4.68,4.68,0,0,0,1.51.21,6.81,6.81,0,0,0,1.6-.24,18.47,18.47,0,0,0,3-1.23,17.13,17.13,0,0,1,2.22-.91c0,.08.06.16.1.25A3.19,3.19,0,0,0,72,99.49a2.09,2.09,0,0,0,1.2.23,2.78,2.78,0,0,0,.81-.23,3.76,3.76,0,0,0,.86-.57,5.92,5.92,0,0,0,1.52-2.26,11.3,11.3,0,0,0,.71-3.48,35.62,35.62,0,0,0-.74-8.62L76.29,84c0-.2-.1-.39-.14-.59l-.29-1.19c-.24-.79-.45-1.61-.74-2.4s-.59-1.6-.91-2.41-.7-1.6-1.11-2.37a28.86,28.86,0,0,0-6.38-8.46,33.52,33.52,0,0,0-8.83-5.47c-3.14-1.4-6.38-2.53-9.5-3.94a32.58,32.58,0,0,1-8.76-5.54,21.93,21.93,0,0,1-3.49-4.05c-.24-.39-.49-.78-.72-1.17s-.43-.8-.64-1.22c-.42-.85-.83-1.75-1.31-2.64a9.89,9.89,0,0,0-1.78-2.46,4.42,4.42,0,0,0-1.27-.83,3.7,3.7,0,0,0-.71-.18A2.62,2.62,0,0,0,29,39a3.83,3.83,0,0,0-2.48,1.56,7.22,7.22,0,0,0-1.33,2.87,10.51,10.51,0,0,0-.2,3.14,15.32,15.32,0,0,0,.48,2.83,26,26,0,0,0,.79,2.49c.14.4.3.78.45,1.16l.24.56c.07.18.16.36.24.54C27.34,54.54,27.49,54.91,27.67,55.24Zm.18-2.7a24.56,24.56,0,0,1-1.38-4.64,11.56,11.56,0,0,1-.18-2.49,8.11,8.11,0,0,1,.15-1.23,5.54,5.54,0,0,1,.37-1.13,4.21,4.21,0,0,1,1.3-1.73,1.87,1.87,0,0,1,1.74-.3,3.3,3.3,0,0,1,1.6,1.35,16,16,0,0,1,1.31,2.33L33.38,46c.2.45.46.89.69,1.34.06.11.11.23.18.34l.19.32.39.64c.26.43.56.82.84,1.23a23.74,23.74,0,0,0,3.93,4.18,30.61,30.61,0,0,0,4.51,3.13,47,47,0,0,0,4.78,2.35c1.61.69,3.22,1.31,4.82,1.94a51.53,51.53,0,0,1,9.13,4.38,24.65,24.65,0,0,1,4,3.11,26.61,26.61,0,0,1,3.28,3.88,31.65,31.65,0,0,1,2.55,4.44c.18.39.38.76.53,1.16l.48,1.17c.29.79.59,1.56.81,2.35s.45,1.58.66,2.35.36,1.55.47,2.33a37.64,37.64,0,0,1,.52,4.44A16.13,16.13,0,0,1,75.92,95a6.87,6.87,0,0,1-.46,1.55,5.76,5.76,0,0,1-.71,1.2A2.72,2.72,0,0,1,73,98.81a1.9,1.9,0,0,1-1.45-.53,2.7,2.7,0,0,1-.57-.72,6.69,6.69,0,0,1,2-.24A10.4,10.4,0,0,0,74,97.4c.2-.05.24-.22,0-.59a2.8,2.8,0,0,0-1.55-.93,5.47,5.47,0,0,0-2.65.08c-2,.49-4,1.79-5.73,2.13a4.53,4.53,0,0,1-1.25.09A4.36,4.36,0,0,1,61.72,98a4.2,4.2,0,0,1-.9-.45,5.44,5.44,0,0,1-.66-.53c-.13-.12-.23-.24-.33-.34l.61-.48a19.3,19.3,0,0,1,4.13-2.65A7.17,7.17,0,0,1,68,92.91a11.67,11.67,0,0,1,1.84.4c.3.06.33-.13-.12-.65a3.52,3.52,0,0,0-1-.74,4.78,4.78,0,0,0-1.6-.47,7.56,7.56,0,0,0-4.29.9,29,29,0,0,0-4.51,3.09,19.83,19.83,0,0,1-4.42,2.8,7.49,7.49,0,0,1-2.16.53,4.34,4.34,0,0,1-.51,0,3.89,3.89,0,0,1-.49,0,3.55,3.55,0,0,1-.47-.09,3,3,0,0,1-.45-.14,5.47,5.47,0,0,1-2.6-2,11.14,11.14,0,0,1-.77-1.33,20.4,20.4,0,0,0,3.17-.79,29.16,29.16,0,0,0,3.75-1.57c2-1,2.73-1.64,1.48-1.53a18.53,18.53,0,0,0-2.77.61c-1.19.32-2.62.73-4.17,1a17.72,17.72,0,0,1-4.91.33,11.84,11.84,0,0,1-4.81-1.43,9.84,9.84,0,0,1-3.48-3.25A7.9,7.9,0,0,1,33.47,85a11.74,11.74,0,0,1,0-1.64c.28.23.56.44.85.64a14.65,14.65,0,0,0,4.23,2,11.64,11.64,0,0,0,3.54.46l.67-.06a3,3,0,0,0,.55-.1,3.36,3.36,0,0,0,.71-.24c.29-.17.2-.33-.35-.5-.27-.08-.62-.14-1-.24-.2,0-.42-.09-.65-.13L41.27,85a18.7,18.7,0,0,1-3.52-1.26,18,18,0,0,1-3.82-2.52,19.49,19.49,0,0,1-3.33-3.68c-.12-.17-.23-.34-.35-.5s-.22-.36-.33-.53c-.21-.35-.43-.69-.61-1a10.08,10.08,0,0,1-.84-2,5.44,5.44,0,0,1-.22-1.76,4.63,4.63,0,0,1,.3-1.37,3.88,3.88,0,0,1,.59-1A18.48,18.48,0,0,0,31,71.49a15.4,15.4,0,0,0,4.06,3,12.08,12.08,0,0,0,3.57,1.14,7,7,0,0,0,1.25,0,3.33,3.33,0,0,0,.76-.12c.32-.12.24-.3-.31-.55-.27-.13-.62-.24-1-.42l-.66-.24c-.23-.11-.48-.21-.74-.32a18.4,18.4,0,0,1-3.44-2,19.17,19.17,0,0,1-3.57-3.35A21.21,21.21,0,0,1,28,64.18c-.19-.4-.36-.82-.53-1.22a12.08,12.08,0,0,1-.43-1.18,7.06,7.06,0,0,1-.36-2.15,4.09,4.09,0,0,1,.11-.89,2.43,2.43,0,0,1,.67-1.14,2.15,2.15,0,0,1,.44-.3,1.32,1.32,0,0,1,.83-.12c.18.3.36.6.55.87.37.59.77,1.1,1.15,1.61.19.26.39.49.59.72s.38.47.58.68A21.09,21.09,0,0,0,36,64.77a13.79,13.79,0,0,0,2.91,1.45c.63.2.89.23.72.06a4.89,4.89,0,0,0-.59-.4c-.3-.17-.71-.44-1.23-.77a24.76,24.76,0,0,1-3.74-3,26.36,26.36,0,0,1-4.28-5.6A29.15,29.15,0,0,1,27.85,52.54Zm14.41,7.09a29.06,29.06,0,0,0,2.61,1.82c1.33.85,3.07,1.86,5.05,3s4.18,2.4,6.39,3.87a38.46,38.46,0,0,1,6.32,5.16,33.56,33.56,0,0,1,2.67,3.09c.4.55.8,1.07,1.15,1.63s.7,1.1,1,1.64a28,28,0,0,1,2.59,6.08l.18.64c.06.2.12.39.16.58.08.39.16.73.24,1,.14.62.22,1.1.32,1.39.17.58.29.45.32-.7a15.69,15.69,0,0,0-.12-2.21q-.1-.66-.24-1.41c-.1-.51-.25-1-.38-1.58a26.5,26.5,0,0,0-3.22-7.08,28.16,28.16,0,0,0-2.57-3.46q-.34-.42-.72-.81l-.75-.8c-.52-.5-1-1-1.58-1.49S60.6,69.1,60,68.65s-1.13-.85-1.71-1.24c-1.14-.8-2.3-1.52-3.44-2.18-2.27-1.33-4.47-2.42-6.39-3.38l-4.78-2.39a10.91,10.91,0,0,0-2.34-1C41.09,58.44,41.33,58.8,42.26,59.63Z"/><path class="cls-3" d="M80.13,119.36a3.18,3.18,0,0,1-1.78-.57c-12.25-8-20.49-15.44-26.72-24.07-3.25-4.49-6.75-10-8.13-16.65C41.41,68,45.63,55.71,57.74,51.84A18.52,18.52,0,0,1,63.31,51a19.76,19.76,0,0,1,16.84,9.37c3.52-6,9.13-9.08,16.73-9.31h.54c8.25,0,15.69,5.65,18.51,14.05,2.34,7,1.6,14-2.27,21.5a72,72,0,0,1-19,22.82c-2.79,2.27-5.75,4.38-8.61,6.42-1.26.9-2.52,1.79-3.77,2.71A3.63,3.63,0,0,1,80.13,119.36Z"/><path class="cls-4" d="M80.16,64.67C83.22,56.8,89,53.17,96.94,52.93c7.67-.24,14.64,5.1,17.21,12.76,2.35,7,1.17,13.6-2.16,20A70.35,70.35,0,0,1,93.47,108c-3.94,3.22-8.19,6.06-12.3,9.07-.55.4-1,.69-1.79.2-10-6.52-19.19-13.85-26.23-23.6-3.5-4.85-6.58-10-7.81-15.93-1.91-9.25,2-20.56,13-24.06C66.45,51,76,55.25,79.43,63,79.64,63.52,79.85,64,80.16,64.67Z"/></svg>