<svg id="Calque_1" data-name="Calque 1" xmlns="http://www.w3.org/2000/svg" xmlns:xlink="http://www.w3.org/1999/xlink" viewBox="0 0 156.85 163.56"><defs><style>.cls-1{fill:url(#Dégradé_sans_nom_162);}</style><linearGradient id="Dégradé_sans_nom_162" x1="44.01" y1="83.99" x2="112.85" y2="83.99" gradientUnits="userSpaceOnUse"><stop offset="0" stop-color="#c08a81"/><stop offset="1" stop-color="#d4958d"/></linearGradient></defs><path class="cls-1" d="M78.46,64c3-7.68,8.65-11.23,16.38-11.47,7.49-.22,14.3,5,16.81,12.47,2.29,6.84,1.14,13.27-2.11,19.56a68.9,68.9,0,0,1-18.08,21.7c-3.85,3.15-8,5.92-12,8.86a1.32,1.32,0,0,1-1.74.19C68,108.92,59,101.76,52.09,92.24c-3.43-4.74-6.43-9.75-7.63-15.56-1.87-9,2-20.08,12.67-23.49,7.94-2.53,17.27,1.59,20.62,9.19C78,62.84,78.16,63.3,78.46,64Z"/></svg>