<svg id="Calque_1" data-name="Calque 1" xmlns="http://www.w3.org/2000/svg" xmlns:xlink="http://www.w3.org/1999/xlink" viewBox="0 0 156.85 163.56"><defs><style>.cls-1{fill:url(#Dégradé_sans_nom_162);}.cls-2{fill:#fff;}.cls-3{fill:#f9df5a;}</style><linearGradient id="Dégradé_sans_nom_162" x1="43.63" y1="84.82" x2="113.23" y2="84.82" gradientUnits="userSpaceOnUse"><stop offset="0" stop-color="#c08a81"/><stop offset="1" stop-color="#d4958d"/></linearGradient></defs><path class="cls-1" d="M78.46,64.58C81.48,56.82,87.21,53.23,95,53c7.58-.23,14.46,5,17,12.6,2.32,6.92,1.16,13.42-2.13,19.78A69.58,69.58,0,0,1,91.6,107.32c-3.89,3.17-8.08,6-12.14,9-.55.39-1,.68-1.77.2-9.83-6.44-18.95-13.68-25.9-23.3-3.46-4.8-6.49-9.86-7.71-15.73-1.88-9.14,2-20.3,12.81-23.75,8-2.57,17.47,1.6,20.85,9.29C77.94,63.44,78.15,63.91,78.46,64.58Z"/><path class="cls-2" d="M117.37,83.72a5.4,5.4,0,0,0-1.78-.34,3.46,3.46,0,0,0-1.37.28,2.58,2.58,0,0,0-.32.18,3,3,0,0,0-1-.18,4.12,4.12,0,0,0-1.66.38l-.18.09-.06,0a1.52,1.52,0,0,0-.2-.06,4,4,0,0,0-.69-.06,4.52,4.52,0,0,0-3,1.29A5.93,5.93,0,0,0,106,86.59a1.28,1.28,0,0,0-.34-.06h-.2a3.39,3.39,0,0,0-1.31.28,4.7,4.7,0,0,0-1.51,1.12,7.82,7.82,0,0,0-1.56,3.3,20.54,20.54,0,0,1-.67,2c0,.11-.09.22-.14.33a2.55,2.55,0,0,0-1.77-.75,1.77,1.77,0,0,0-.52.07c-.2.06-1.26.26-2.2.43-1.5.29-3.37.64-4.57.92l-1.11.23-.06,0a22.43,22.43,0,0,0-4.78,1.36A12.61,12.61,0,0,0,83,97.09l-.37.27a16.09,16.09,0,0,0-4.19,3.82,16.29,16.29,0,0,0-4.2-3.82l-.37-.27a12.88,12.88,0,0,0-2.22-1.25,22.43,22.43,0,0,0-4.78-1.36l-.06,0-1.12-.23c-1.2-.28-3.07-.63-4.57-.92-.94-.17-2-.37-2.19-.43a1.88,1.88,0,0,0-.53-.07,2.54,2.54,0,0,0-1.76.75c-.06-.11-.1-.22-.15-.33-.28-.71-.49-1.39-.67-2a7.82,7.82,0,0,0-1.56-3.3,4.6,4.6,0,0,0-1.51-1.12,3.35,3.35,0,0,0-1.31-.28h-.2a1.35,1.35,0,0,0-.34.06,5.93,5.93,0,0,0-1.06-1.25,4.5,4.5,0,0,0-3-1.29,4,4,0,0,0-.68.06l-.21.06,0,0L45.65,84A4.07,4.07,0,0,0,44,83.66a3.13,3.13,0,0,0-1,.18,2.43,2.43,0,0,0-.32-.18,3.39,3.39,0,0,0-1.37-.28,5.51,5.51,0,0,0-1.78.34,1.56,1.56,0,0,0-.94,2c.39,1.19,1.36,4.12,2,5.58C44.05,99.89,55.79,105.8,60.67,108l1,.42.85.36a22.36,22.36,0,0,1,6.55,4.37,44.06,44.06,0,0,0,6.81,5c.28.17.56.33.82.46a3.61,3.61,0,0,0,1.66.41h.12a3.57,3.57,0,0,0,1.65-.41l.83-.46a43.88,43.88,0,0,0,6.8-5,22.36,22.36,0,0,1,6.55-4.37l.85-.36,1-.42c4.89-2.15,16.62-8.06,20.17-16.69.62-1.51,1.66-4.65,2-5.58A1.58,1.58,0,0,0,117.37,83.72Z"/><path class="cls-3" d="M98.28,98.29l1.47-.47.07,0a13.49,13.49,0,0,0,1.26-1.25A33,33,0,0,0,104,92a17.74,17.74,0,0,1,1.48-3.93,1.73,1.73,0,0,0-.78.15,3.09,3.09,0,0,0-1,.75,6.59,6.59,0,0,0-1.2,2.68c-.2.64-.41,1.36-.72,2.14a10.8,10.8,0,0,1-2.38,3.36c-.37.37-.77.75-1.2,1.13Z"/><path class="cls-3" d="M101.62,97l-.19.22.25-.1.21-.07.52-.2q.27-.11.54-.24l.18-.09.38-.19.22-.12.35-.2.23-.14.31-.2c.89-1.31,2.57-4.41,3.15-5.51l.43-.84a15.49,15.49,0,0,1,2.31-3.68,2.8,2.8,0,0,0-2.44.85c-.77.69-1.12,1.36-2.65,4.44A37.67,37.67,0,0,1,101.62,97Z"/><path class="cls-3" d="M108.4,90.51s-1.2,2.27-2.24,4.06l.15-.12.09-.08c.25-.21.49-.41.72-.62l0,0,.3-.27.06-.05.31-.29v0c.23-.21.44-.42.63-.61l0,0,.27-.27,0,0,.72-.76,0,0,.17-.19,0,0,.16-.18a13,13,0,0,0,1.45-2.27,21.52,21.52,0,0,1,2.15-3.33,2.07,2.07,0,0,0-1.67.11c-1.26.77-2.18,2.59-3,4.19C108.69,90,108.55,90.24,108.4,90.51Z"/><path class="cls-3" d="M114.85,85.09a1.45,1.45,0,0,0-.45.33A17.81,17.81,0,0,0,112,89a13.62,13.62,0,0,1-1.55,2.41,30.21,30.21,0,0,1-5.36,4.81,14.56,14.56,0,0,1-2,1.13l-.36.15c-.72.28-1.6.6-2.55.92-1.1.37-2.26.72-3.35,1-4.48,1.24-5.12.86-5.33.74a.59.59,0,0,1-.34-.54c0-.38.44-.61.84-.79a17.54,17.54,0,0,1,2.54-.76h0a10.08,10.08,0,0,0,2.63-.7,4.42,4.42,0,0,0,1.51-1,2.34,2.34,0,0,0,.24-.31c.28-.42.55-1,.26-1.38a.89.89,0,0,0-.78-.33c-.22.06-1,.21-2.35.46s-3.34.63-4.5.9L90.31,96a21.05,21.05,0,0,0-4.46,1.27,10.46,10.46,0,0,0-1.95,1.09l-.37.27c-2.2,1.55-4.28,3-5.1,6.31-.82-3.28-2.91-4.76-5.1-6.31L73,98.37A10.7,10.7,0,0,0,71,97.28,21.22,21.22,0,0,0,66.55,96c-.44-.09-.85-.17-1.22-.26-1.17-.27-3-.62-4.51-.9s-2.12-.4-2.35-.46a.89.89,0,0,0-.77.33c-.29.39,0,1,.25,1.38a3.65,3.65,0,0,0,.24.31,4.42,4.42,0,0,0,1.51,1,10.18,10.18,0,0,0,2.63.7h0a17.17,17.17,0,0,1,2.54.76c.4.18.82.41.84.79a.58.58,0,0,1-.33.54c-.21.12-.86.5-5.34-.74-1.09-.31-2.24-.66-3.34-1s-1.84-.64-2.55-.92l-.36-.15a14.1,14.1,0,0,1-2-1.13,30.06,30.06,0,0,1-5.35-4.81A13.08,13.08,0,0,1,44.88,89a18.68,18.68,0,0,0-2.42-3.61,1.39,1.39,0,0,0-.46-.33,2.82,2.82,0,0,0-2,.1c.32,1,1.33,4,1.93,5.48,3.33,8.1,14.63,13.78,19.34,15.84l1.86.79c6.08,2.66,6.69,5.39,13.53,9.5.26.15.5.29.74.41a2,2,0,0,0,1,.23,2.08,2.08,0,0,0,1-.23l.73-.41c6.84-4.11,7.45-6.84,13.53-9.5.59-.26,1.23-.51,1.86-.79,4.71-2.06,16-7.74,19.35-15.84.59-1.45,1.61-4.49,1.93-5.48A2.85,2.85,0,0,0,114.85,85.09Z"/><path class="cls-3" d="M55.77,96.55A14.87,14.87,0,0,0,57,97.8l.07,0,1.47.47h0c-.43-.38-.83-.76-1.2-1.13A10.59,10.59,0,0,1,55,93.81a21.57,21.57,0,0,1-.72-2.14A6.6,6.6,0,0,0,53.1,89a2.89,2.89,0,0,0-1-.75,1.7,1.7,0,0,0-.78-.15A17.74,17.74,0,0,1,52.81,92,33,33,0,0,0,55.77,96.55Z"/><path class="cls-3" d="M49.08,90.18c.58,1.1,2.26,4.2,3.15,5.51l.31.2.24.14.35.2.21.12.38.19.18.09c.18.09.37.17.55.24l.52.2.2.07.26.1-.2-.22A38.38,38.38,0,0,1,51.43,91c-1.53-3.08-1.88-3.75-2.64-4.44a2.82,2.82,0,0,0-2.44-.85,15.78,15.78,0,0,1,2.3,3.68Z"/><path class="cls-3" d="M47,91l.17.18,0,0,.17.19,0,0,.72.76,0,0,.26.27,0,0,.63.61,0,0,.3.29.06.05.3.27,0,0c.23.21.47.41.72.62l.1.08.15.12c-1.05-1.79-2.23-4-2.25-4.06L48,89.66c-.81-1.6-1.72-3.42-3-4.19a2.07,2.07,0,0,0-1.67-.11,20.81,20.81,0,0,1,2.15,3.33A13.63,13.63,0,0,0,47,91Z"/><path class="cls-3" d="M101.58,41.43s-.46,17.91-13.78,17.91c13.32,0,13.78,17.92,13.78,17.92s.47-17.92,13.79-17.92C102.05,59.34,101.58,41.43,101.58,41.43Z"/><path class="cls-3" d="M91.32,61.82S91.14,69,85.78,69c5.36,0,5.54,7.2,5.54,7.2s.19-7.2,5.54-7.2C91.51,69,91.32,61.82,91.32,61.82Z"/><path class="cls-3" d="M109.9,47.18s-.12,4.47-3.43,4.47c3.31,0,3.43,4.46,3.43,4.46s.12-4.46,3.43-4.46C110,51.65,109.9,47.18,109.9,47.18Z"/></svg>