<svg id="Calque_1" data-name="Calque 1" xmlns="http://www.w3.org/2000/svg" xmlns:xlink="http://www.w3.org/1999/xlink" viewBox="0 0 156.85 163.56"><defs><style>.cls-1{fill:url(#Dégradé_sans_nom_162);}</style><linearGradient id="Dégradé_sans_nom_162" x1="42.95" y1="85.04" x2="113.9" y2="85.04" gradientUnits="userSpaceOnUse"><stop offset="0" stop-color="#c08a81"/><stop offset="1" stop-color="#d4958d"/></linearGradient></defs><path class="cls-1" d="M78.41,117.71a3.11,3.11,0,0,1-1.72-.56C65,109.5,57.15,102.42,51.2,94.19c-3.1-4.29-6.44-9.54-7.76-15.9-2-9.67,2-21.39,13.63-25.09a18.85,18.85,0,0,1,21.38,8c3.37-5.62,8.72-8.58,16-8.8,8-.25,15.49,5.28,18.23,13.44,2.24,6.67,1.53,13.39-2.17,20.55A68.57,68.57,0,0,1,92.33,108.2c-2.66,2.17-5.48,4.18-8.21,6.13q-1.82,1.28-3.59,2.57A3.69,3.69,0,0,1,78.41,117.71ZM62.35,56.13a13.55,13.55,0,0,0-4.14.63c-9.49,3-12.77,12.74-11.11,20.77C48.27,83.21,51.36,88,54.23,92c5.61,7.77,13.08,14.51,24.19,21.82,1.17-.86,2.35-1.7,3.53-2.54,2.68-1.9,5.45-3.88,8-6a65,65,0,0,0,17.17-20.6c3.21-6.21,3.85-12,2-17.64-2.17-6.47-8-10.9-14.18-10.9h-.4c-7.1.22-11.78,3.49-14.31,10l-1.62,4.16-2.09-4.66c-.16-.37-.3-.67-.44-1C73.77,59.5,68.05,56.13,62.35,56.13Z"/></svg>